<svg xmlns="http://www.w3.org/2000/svg" xmlns:xlink="http://www.w3.org/1999/xlink" width="1080" zoomAndPan="magnify" viewBox="0 0 810 1012.49997" height="1350" preserveAspectRatio="xMidYMid meet" version="1.0"><defs><clipPath id="47a36767f0"><path d="M 0.199219 676 L 809.800781 676 L 809.800781 890.558594 L 0.199219 890.558594 Z M 0.199219 676 " clip-rule="nonzero"/></clipPath></defs><path fill="#000000" d="M 254.765625 303.167969 C 254.765625 325.742188 259.375 347.480469 268.441406 367.75 C 268.472656 367.832031 268.503906 367.910156 268.542969 367.992188 C 286.429688 408.265625 320.535156 439.417969 362.09375 453.441406 C 362.195312 453.472656 362.304688 453.5 362.40625 453.53125 C 362.433594 453.535156 362.453125 453.542969 362.476562 453.550781 C 378.421875 458.9375 395.136719 461.683594 412.191406 461.683594 C 429.257812 461.683594 445.980469 458.9375 461.910156 453.550781 C 461.929688 453.542969 461.949219 453.535156 461.96875 453.53125 C 462.0625 453.5 462.167969 453.472656 462.269531 453.441406 C 503.851562 439.40625 537.957031 408.261719 555.824219 368.003906 C 555.84375 367.96875 555.859375 367.929688 555.878906 367.890625 C 555.882812 367.875 555.882812 367.871094 555.890625 367.859375 C 564.992188 347.539062 569.617188 325.773438 569.617188 303.160156 C 569.617188 280.542969 564.992188 258.765625 555.890625 238.460938 C 555.890625 238.457031 555.882812 238.449219 555.882812 238.445312 C 555.871094 238.410156 555.859375 238.378906 555.839844 238.339844 C 537.957031 198.074219 503.847656 166.914062 462.28125 152.878906 C 462.261719 152.875 462.25 152.875 462.230469 152.867188 C 462.222656 152.867188 462.21875 152.867188 462.210938 152.859375 C 448.195312 148.097656 433.449219 145.535156 418.605469 144.9375 L 418.605469 88.921875 C 418.605469 85.371094 415.726562 82.5 412.183594 82.5 C 408.640625 82.5 405.765625 85.371094 405.765625 88.921875 L 405.765625 144.945312 C 390.902344 145.546875 376.132812 148.105469 362.105469 152.878906 C 320.539062 166.914062 286.441406 198.054688 268.5625 238.28125 C 268.511719 238.40625 268.460938 238.515625 268.414062 238.636719 C 259.363281 258.910156 254.765625 280.625 254.765625 303.167969 Z M 418.609375 448.554688 L 418.609375 371.800781 L 480.316406 371.800781 C 474.890625 396.050781 466.660156 419.632812 455.609375 442.03125 C 443.664062 445.84375 431.1875 447.996094 418.609375 448.554688 Z M 328.347656 247.375 C 325.496094 263.667969 323.886719 280.207031 323.558594 296.738281 L 267.765625 296.738281 C 268.492188 279.597656 272.164062 263.046875 278.679688 247.375 Z M 483.007812 247.375 C 485.980469 263.65625 487.640625 280.203125 487.980469 296.738281 L 418.609375 296.738281 L 418.609375 247.375 Z M 336.398438 309.585938 L 405.769531 309.585938 L 405.769531 358.960938 L 341.382812 358.960938 C 338.410156 342.675781 336.746094 326.125 336.398438 309.585938 Z M 545.695312 358.960938 L 496.035156 358.960938 C 498.882812 342.652344 500.496094 326.121094 500.824219 309.585938 L 556.609375 309.585938 C 555.882812 326.730469 552.210938 343.28125 545.695312 358.960938 Z M 284.722656 371.800781 L 330.800781 371.800781 C 335.46875 393.597656 342.382812 414.878906 351.429688 435.328125 C 323.019531 422.050781 299.515625 399.703125 284.722656 371.800781 Z M 539.660156 234.535156 L 493.582031 234.535156 C 488.902344 212.722656 481.984375 191.441406 472.953125 171.003906 C 501.363281 184.28125 524.867188 206.636719 539.660156 234.535156 Z M 405.769531 234.535156 L 344.070312 234.535156 C 349.503906 210.269531 357.734375 186.683594 368.777344 164.289062 C 380.71875 160.476562 393.121094 158.304688 405.769531 157.746094 Z M 405.769531 234.535156 " fill-opacity="1" fill-rule="nonzero"/><g clip-path="url(#47a36767f0)"><path fill="#000000" d="M 808.59375 880.070312 L 664.457031 679.628906 C 663.25 677.953125 661.3125 676.957031 659.242188 676.957031 L 151.398438 676.957031 C 149.332031 676.957031 147.390625 677.953125 146.183594 679.628906 L 2.050781 880.070312 C 0.644531 882.027344 0.449219 884.601562 1.546875 886.746094 C 2.644531 888.890625 4.855469 890.238281 7.261719 890.238281 L 803.378906 890.238281 C 805.789062 890.238281 807.996094 888.890625 809.09375 886.746094 C 810.191406 884.601562 810 882.027344 808.59375 880.070312 Z M 168.464844 877.398438 L 192.121094 828.027344 L 292.265625 828.027344 L 277.050781 877.398438 Z M 398.902344 689.796875 L 398.902344 711.496094 L 341.613281 711.496094 L 348.296875 689.796875 Z M 552.28125 689.796875 L 562.683594 711.496094 L 482.46875 711.496094 L 475.785156 689.796875 Z M 309.660156 815.1875 L 322.738281 772.753906 L 398.902344 772.753906 L 398.902344 815.1875 Z M 472.992188 724.339844 L 483.949219 759.90625 L 411.742188 759.90625 L 411.742188 724.339844 Z M 324.21875 724.339844 L 313.261719 759.90625 L 224.761719 759.90625 L 241.808594 724.339844 Z M 514.421875 815.1875 L 501.34375 772.753906 L 592.03125 772.753906 L 612.363281 815.1875 Z M 600.121094 759.90625 L 583.074219 724.339844 L 680.789062 724.339844 L 706.367188 759.90625 Z M 95.039062 772.746094 L 204.371094 772.746094 L 184.039062 815.179688 L 64.53125 815.179688 Z M 411.742188 828.027344 L 504.9375 828.027344 L 520.15625 877.398438 L 411.742188 877.398438 Z M 154.691406 689.796875 L 244.121094 689.796875 L 233.71875 711.496094 L 139.082031 711.496094 Z M 656.417969 877.398438 L 632.761719 828.027344 L 755.347656 828.027344 L 790.855469 877.398438 Z M 656.417969 877.398438 " fill-opacity="1" fill-rule="nonzero"/></g><path fill="#000000" d="M 168.949219 201.71875 C 173.417969 202.65625 180.011719 204.921875 186.09375 210.375 C 198.097656 221.082031 199.035156 236.484375 199.035156 240.960938 C 199.035156 244.511719 201.914062 247.378906 205.457031 247.378906 C 209 247.378906 211.878906 244.511719 211.878906 240.960938 C 211.878906 236.492188 212.816406 221.082031 224.832031 210.359375 C 230.882812 204.941406 237.460938 202.667969 241.917969 201.714844 C 244.878906 201.082031 246.996094 198.472656 246.996094 195.441406 C 246.996094 192.410156 244.882812 189.789062 241.925781 189.15625 C 237.457031 188.199219 230.863281 185.914062 224.808594 180.480469 C 212.808594 169.835938 211.878906 154.394531 211.878906 149.90625 C 211.878906 146.355469 209 143.488281 205.457031 143.488281 C 201.914062 143.488281 199.035156 146.355469 199.035156 149.90625 C 199.035156 154.390625 198.105469 169.835938 186.082031 180.507812 C 180.027344 185.933594 173.417969 188.199219 168.945312 189.148438 C 165.980469 189.785156 163.851562 192.402344 163.851562 195.433594 C 163.851562 198.464844 165.984375 201.089844 168.949219 201.71875 Z M 168.949219 201.71875 " fill-opacity="1" fill-rule="nonzero"/><path fill="#000000" d="M 548.128906 139.5 C 552.5625 140.4375 559.152344 142.703125 565.261719 148.148438 C 577.222656 158.859375 578.148438 174.265625 578.148438 178.742188 C 578.148438 182.292969 581.023438 185.160156 584.570312 185.160156 C 588.113281 185.160156 590.988281 182.292969 590.988281 178.742188 C 590.988281 174.292969 591.925781 158.914062 603.945312 148.140625 C 610 142.71875 616.605469 140.449219 621.082031 139.5 C 624.054688 138.871094 626.179688 136.25 626.179688 133.214844 C 626.179688 130.179688 624.046875 127.566406 621.082031 126.9375 C 617.421875 126.164062 610.335938 124.027344 603.945312 118.351562 C 591.925781 107.597656 590.996094 92.167969 590.996094 87.703125 C 590.996094 84.152344 588.121094 81.28125 584.574219 81.28125 C 581.03125 81.28125 578.15625 84.152344 578.15625 87.703125 C 578.15625 92.183594 577.226562 107.644531 565.308594 118.324219 C 558.8125 124.046875 551.761719 126.179688 548.132812 126.941406 C 545.167969 127.570312 543.042969 130.183594 543.035156 133.222656 C 543.03125 136.257812 545.160156 138.871094 548.128906 139.5 Z M 548.128906 139.5 " fill-opacity="1" fill-rule="nonzero"/><path fill="#000000" d="M 611.667969 321.894531 C 611.6875 324.917969 613.8125 327.519531 616.773438 328.136719 C 621.339844 329.09375 628.074219 331.390625 634.222656 336.917969 C 646.472656 347.851562 647.425781 363.582031 647.425781 368.140625 C 647.425781 371.691406 650.300781 374.558594 653.84375 374.558594 C 657.386719 374.558594 660.265625 371.691406 660.265625 368.140625 C 660.265625 363.570312 661.207031 347.800781 673.394531 336.917969 C 679.597656 331.390625 686.351562 329.09375 690.914062 328.136719 C 693.875 327.519531 696 324.917969 696.019531 321.894531 C 696.039062 318.863281 693.945312 316.238281 690.992188 315.582031 C 684.21875 314.082031 678.292969 311.101562 673.394531 306.730469 C 661.203125 295.839844 660.257812 280.074219 660.257812 275.5 C 660.257812 271.949219 657.382812 269.082031 653.839844 269.082031 C 650.292969 269.082031 647.417969 271.949219 647.417969 275.5 C 647.417969 280.058594 646.46875 295.789062 634.199219 306.742188 C 629.34375 311.109375 623.449219 314.082031 616.675781 315.582031 C 613.742188 316.238281 611.648438 318.863281 611.667969 321.894531 Z M 611.667969 321.894531 " fill-opacity="1" fill-rule="nonzero"/><path fill="#000000" d="M 254.078125 491.722656 C 258.230469 492.605469 264.355469 494.695312 269.929688 499.652344 C 281 509.59375 281.859375 523.863281 281.859375 528.003906 C 281.859375 531.554688 284.734375 534.425781 288.277344 534.425781 C 291.824219 534.425781 294.699219 531.554688 294.699219 528.003906 C 294.699219 523.863281 295.566406 509.597656 306.699219 499.652344 C 312.226562 494.691406 318.332031 492.597656 322.480469 491.722656 C 325.445312 491.09375 327.566406 488.476562 327.570312 485.445312 C 327.570312 482.410156 325.453125 479.789062 322.484375 479.160156 C 318.324219 478.273438 312.199219 476.179688 306.679688 471.222656 C 295.558594 461.28125 294.691406 447.011719 294.691406 442.878906 C 294.691406 439.328125 291.816406 436.457031 288.273438 436.457031 C 284.726562 436.457031 281.851562 439.328125 281.851562 442.878906 C 281.851562 447.019531 280.992188 461.292969 269.949219 471.210938 C 264.363281 476.175781 258.230469 478.28125 254.066406 479.160156 C 251.097656 479.796875 248.980469 482.414062 248.980469 485.445312 C 248.988281 488.476562 251.113281 491.09375 254.078125 491.722656 Z M 254.078125 491.722656 " fill-opacity="1" fill-rule="nonzero"/><path fill="#000000" d="M 591.355469 450.070312 C 590.757812 446.578125 587.484375 444.238281 583.945312 444.832031 L 556.917969 449.453125 C 553.425781 450.050781 551.074219 453.355469 551.671875 456.847656 L 558.832031 498.984375 C 557.996094 498.78125 557.191406 498.515625 556.328125 498.375 C 549.496094 497.199219 542.933594 498.246094 538.816406 501.164062 C 536.277344 502.960938 534.683594 505.394531 534.214844 508.171875 C 533.734375 510.945312 534.433594 513.734375 536.222656 516.257812 C 539.164062 520.390625 545.019531 523.53125 551.859375 524.648438 C 553.707031 524.96875 555.53125 525.117188 557.289062 525.117188 C 562.066406 525.117188 566.367188 523.988281 569.371094 521.855469 C 571.902344 520.058594 573.488281 517.636719 573.964844 514.851562 C 574.144531 513.808594 574.105469 512.769531 573.957031 511.738281 C 573.945312 511.621094 573.988281 511.519531 573.96875 511.402344 L 565.410156 461.027344 L 586.125 457.484375 C 589.601562 456.886719 591.953125 453.570312 591.355469 450.070312 Z M 553.964844 511.980469 C 552.257812 511.699219 550.851562 511.253906 549.734375 510.78125 C 550.941406 510.691406 552.449219 510.734375 554.195312 511.035156 C 555.894531 511.3125 557.308594 511.757812 558.417969 512.230469 C 557.199219 512.316406 555.703125 512.269531 553.964844 511.980469 Z M 553.964844 511.980469 " fill-opacity="1" fill-rule="nonzero"/><path fill="#000000" d="M 133.671875 506.929688 C 135.527344 507.230469 137.316406 507.371094 139.03125 507.371094 C 147.957031 507.371094 154.664062 503.421875 155.757812 496.925781 C 155.917969 495.777344 155.855469 494.691406 155.628906 493.632812 C 155.621094 493.585938 155.640625 493.542969 155.628906 493.496094 L 147.097656 443.296875 L 167.886719 439.695312 C 171.378906 439.089844 173.722656 435.773438 173.117188 432.273438 C 172.515625 428.78125 169.1875 426.46875 165.695312 427.046875 L 138.601562 431.734375 C 135.117188 432.335938 132.773438 435.644531 133.371094 439.128906 L 140.488281 481.117188 C 139.640625 480.90625 138.800781 480.71875 137.980469 480.574219 C 126.53125 478.722656 117.261719 482.832031 115.976562 490.394531 C 114.691406 497.992188 122.113281 504.9375 133.671875 506.929688 Z M 135.847656 493.238281 C 137.613281 493.546875 139.070312 494.011719 140.199219 494.484375 C 138.988281 494.570312 137.503906 494.535156 135.789062 494.261719 C 134.042969 493.957031 132.613281 493.503906 131.488281 493.015625 C 132.683594 492.925781 134.152344 492.957031 135.847656 493.238281 Z M 135.847656 493.238281 " fill-opacity="1" fill-rule="nonzero"/><path fill="#000000" d="M 55.929688 354.445312 C 57.785156 354.746094 59.582031 354.886719 61.296875 354.886719 C 70.21875 354.886719 76.921875 350.941406 78.015625 344.488281 C 78.1875 343.324219 78.125 342.226562 77.898438 341.15625 C 77.890625 341.109375 77.910156 341.066406 77.898438 341.015625 L 68.300781 284.503906 C 67.710938 281.011719 64.414062 278.691406 60.898438 279.246094 C 57.398438 279.839844 55.046875 283.15625 55.640625 286.648438 L 62.757812 328.636719 C 61.910156 328.425781 61.070312 328.238281 60.242188 328.089844 C 48.789062 326.234375 39.523438 330.351562 38.238281 337.914062 C 36.949219 345.507812 44.363281 352.457031 55.929688 354.445312 Z M 58.089844 340.757812 C 59.855469 341.066406 61.316406 341.527344 62.449219 342.003906 C 61.230469 342.082031 59.753906 342.0625 58.039062 341.777344 C 56.292969 341.476562 54.863281 341.019531 53.738281 340.53125 C 54.925781 340.449219 56.398438 340.46875 58.089844 340.757812 Z M 58.089844 340.757812 " fill-opacity="1" fill-rule="nonzero"/><path fill="#000000" d="M 688.136719 501.65625 C 684.496094 508.40625 689.265625 517.375 699.53125 522.996094 C 703.621094 525.207031 708 526.492188 711.859375 526.617188 C 712.082031 526.625 712.296875 526.632812 712.519531 526.632812 C 717.597656 526.632812 721.609375 524.5625 723.644531 520.769531 C 723.890625 520.28125 724.589844 518.875 724.699219 517.046875 C 724.699219 517.039062 724.707031 517.035156 724.707031 517.027344 L 733.820312 460.847656 C 734.386719 457.351562 732.011719 454.050781 728.511719 453.484375 C 725.03125 452.894531 721.714844 455.28125 721.148438 458.792969 L 714.335938 500.820312 C 713.636719 500.367188 712.929688 499.910156 712.167969 499.492188 C 705.984375 496.160156 699.429688 495.0625 694.625 496.515625 C 691.679688 497.40625 689.425781 499.210938 688.136719 501.65625 Z M 706.023438 510.765625 C 707.589844 511.632812 708.800781 512.546875 709.71875 513.359375 C 708.550781 513.046875 707.179688 512.53125 705.667969 511.71875 C 704.117188 510.863281 702.910156 509.972656 702.003906 509.144531 C 703.160156 509.445312 704.527344 509.964844 706.023438 510.765625 Z M 706.023438 510.765625 " fill-opacity="1" fill-rule="nonzero"/><path fill="#000000" d="M 448.894531 547.980469 C 448.84375 547.574219 448.800781 547.191406 448.675781 546.8125 C 448.550781 546.417969 448.371094 546.074219 448.171875 545.707031 C 447.972656 545.347656 447.777344 545 447.515625 544.6875 C 447.265625 544.378906 446.964844 544.132812 446.65625 543.875 C 446.316406 543.59375 445.972656 543.335938 445.578125 543.125 C 445.429688 543.046875 445.332031 542.914062 445.179688 542.847656 L 397.089844 522.117188 C 395.261719 521.328125 393.191406 521.429688 391.460938 522.382812 C 389.71875 523.332031 388.527344 525.039062 388.210938 526.996094 L 381.445312 569.121094 C 380.730469 568.664062 380.050781 568.195312 379.273438 567.78125 C 373.109375 564.394531 366.550781 563.265625 361.734375 564.699219 C 358.765625 565.589844 356.496094 567.386719 355.191406 569.851562 C 351.578125 576.5625 356.347656 585.519531 366.554688 591.175781 C 370.941406 593.578125 375.539062 594.839844 379.574219 594.839844 C 381.175781 594.839844 382.683594 594.648438 384.058594 594.238281 C 387.023438 593.359375 389.300781 591.585938 390.636719 589.101562 C 390.644531 589.082031 390.65625 589.070312 390.664062 589.050781 C 391.15625 588.117188 391.460938 587.136719 391.644531 586.140625 C 391.671875 586.011719 391.75 585.917969 391.773438 585.78125 L 399.582031 537.175781 L 435.503906 552.660156 L 429.480469 589.820312 C 428.78125 589.371094 428.074219 588.929688 427.324219 588.523438 C 421.210938 585.144531 414.683594 583.972656 409.839844 585.421875 C 406.863281 586.316406 404.582031 588.113281 403.28125 590.589844 C 399.640625 597.34375 404.421875 606.308594 414.644531 611.90625 C 419.027344 614.308594 423.625 615.578125 427.664062 615.578125 C 429.261719 615.578125 430.769531 615.378906 432.144531 614.96875 C 435.109375 614.089844 437.390625 612.3125 438.398438 610.367188 C 439.265625 609.074219 439.757812 607.585938 439.855469 606.039062 C 439.855469 606.03125 439.863281 606.03125 439.863281 606.023438 L 448.980469 549.777344 C 449.003906 549.601562 448.945312 549.449219 448.960938 549.28125 C 448.980469 548.828125 448.945312 548.410156 448.894531 547.980469 Z M 372.730469 579.914062 C 371.222656 579.078125 370.035156 578.191406 369.128906 577.378906 C 370.277344 577.707031 371.632812 578.230469 373.128906 579.054688 C 374.664062 579.875 375.859375 580.761719 376.757812 581.570312 C 375.601562 581.253906 374.234375 580.734375 372.730469 579.914062 Z M 420.792969 600.636719 C 419.277344 599.804688 418.089844 598.925781 417.1875 598.117188 C 418.320312 598.441406 419.664062 598.96875 421.140625 599.785156 C 422.675781 600.613281 423.875 601.492188 424.78125 602.289062 C 423.636719 601.972656 422.285156 601.453125 420.792969 600.636719 Z M 420.792969 600.636719 " fill-opacity="1" fill-rule="nonzero"/></svg>