<svg xmlns="http://www.w3.org/2000/svg" xmlns:xlink="http://www.w3.org/1999/xlink" width="500" zoomAndPan="magnify" viewBox="0 0 375 374.999991" height="500" preserveAspectRatio="xMidYMid meet" version="1.0"><defs><clipPath id="54e3eb9d7e"><path d="M 14.441406 77.824219 L 360.191406 77.824219 L 360.191406 296.824219 L 14.441406 296.824219 Z M 14.441406 77.824219 " clip-rule="nonzero"/></clipPath></defs><g clip-path="url(#54e3eb9d7e)"><path fill="#000000" d="M 360.191406 293.296875 C 360.191406 293.296875 359.027344 85.046875 359.027344 82.441406 C 359.027344 79.835938 356.714844 78.082031 355.238281 78.082031 L 354.832031 78.082031 C 354.597656 78.050781 354.453125 77.945312 354.179688 77.945312 C 352.042969 77.945312 238.570312 78 144.367188 78.082031 L 18.726562 78.082031 C 15.914062 78.082031 15.875 80.476562 15.828125 83.25 C 15.804688 84.808594 15.777344 87.09375 15.746094 90.007812 C 15.683594 95.816406 15.613281 104.117188 15.539062 114.078125 C 15.386719 133.992188 15.214844 160.542969 15.054688 187.09375 C 14.730469 240.195312 14.441406 293.296875 14.441406 293.3125 C 14.441406 294.457031 15.050781 295.421875 15.917969 296.035156 C 16.003906 296.101562 16.085938 296.15625 16.179688 296.210938 C 16.675781 296.496094 17.222656 296.707031 17.835938 296.707031 L 356.800781 296.707031 C 357.414062 296.707031 357.957031 296.5 358.453125 296.210938 C 358.550781 296.15625 358.632812 296.101562 358.71875 296.03125 C 359.589844 295.414062 360.191406 294.449219 360.191406 293.296875 Z M 346.953125 83.734375 C 329.136719 100.210938 271.960938 150.953125 229.214844 179.597656 C 230.480469 176.292969 231.234375 173.019531 231.183594 169.878906 C 231.082031 163.5625 228.074219 158.339844 222.238281 154.351562 C 217.285156 150.96875 212.273438 149.25 207.339844 149.25 C 197.722656 149.25 190.878906 155.597656 187.316406 159.949219 C 183.757812 155.597656 176.914062 149.25 167.292969 149.25 C 162.363281 149.25 157.355469 150.96875 152.398438 154.351562 C 146.5625 158.339844 143.554688 163.5625 143.453125 169.878906 C 143.398438 173.21875 144.273438 176.707031 145.691406 180.226562 C 109.109375 155.921875 59.945312 114.015625 26.839844 83.898438 C 44.359375 83.839844 91.832031 83.78125 145.351562 83.734375 Z M 21.4375 86.625 C 40.855469 104.335938 101.585938 158.691406 146.238281 187.371094 C 100.3125 216.566406 37.285156 272.171875 20.128906 287.542969 C 20.484375 222.417969 21.128906 112.304688 21.4375 86.625 Z M 148.8125 169.964844 C 148.886719 165.425781 151.050781 161.765625 155.425781 158.777344 C 159.472656 156.011719 163.464844 154.609375 167.292969 154.609375 C 177.234375 154.609375 183.84375 164.039062 185.066406 165.929688 L 187.320312 169.40625 L 189.570312 165.929688 C 190.792969 164.039062 197.402344 154.609375 207.339844 154.609375 C 211.171875 154.609375 215.164062 156.011719 219.210938 158.777344 C 223.585938 161.765625 225.75 165.425781 225.824219 169.964844 C 226.113281 188.054688 194.789062 213.253906 187.316406 219.003906 C 179.847656 213.253906 148.523438 188.054688 148.8125 169.964844 Z M 285.792969 144.015625 C 305.316406 128.097656 323.308594 112.410156 334.96875 102.050781 C 341.910156 95.886719 347.175781 91.101562 350.375 88.175781 C 351.507812 87.140625 352.429688 86.328125 353.261719 85.609375 L 354.5 287.539062 C 337.289062 272.117188 273.949219 216.242188 228 187.121094 C 243.734375 176.949219 262.984375 162.613281 285.792969 144.015625 Z M 24.664062 291.054688 C 58.507812 260.628906 113.171875 214.621094 151.429688 190.640625 C 163.328125 207.960938 184.492188 223.617188 185.734375 224.527344 L 187.316406 225.683594 L 188.902344 224.527344 C 190.144531 223.617188 211.3125 207.957031 223.207031 190.636719 C 261.464844 214.621094 316.128906 260.628906 349.972656 291.054688 Z M 24.664062 291.054688 " fill-opacity="1" fill-rule="nonzero"/></g></svg>