<svg xmlns="http://www.w3.org/2000/svg" xmlns:xlink="http://www.w3.org/1999/xlink" width="500" zoomAndPan="magnify" viewBox="0 0 375 374.999991" height="500" preserveAspectRatio="xMidYMid meet" version="1.0"><path fill="#020302" d="M 202.324219 94.789062 C 201.257812 93.429688 199.972656 92.285156 198.480469 91.367188 C 193.890625 88.527344 189.261719 86.046875 184.597656 83.941406 C 170.828125 77.71875 157.109375 73.164062 143.429688 70.285156 C 140.761719 69.726562 138.136719 69.53125 135.546875 69.71875 C 134.566406 69.785156 133.703125 70.367188 133.253906 71.242188 C 122.425781 92.941406 112.886719 115.226562 104.644531 138.113281 C 101.960938 145.585938 99.539062 153.601562 97.414062 162.167969 C 93.734375 176.953125 92.914062 193.042969 97.285156 207.65625 C 98.636719 212.167969 101.609375 217.738281 102.816406 222.460938 C 104.863281 230.46875 104.550781 238.445312 102.175781 246.410156 C 101.125 249.933594 100.289062 252.632812 99.660156 254.492188 C 92.546875 275.582031 85.03125 296.40625 76.007812 316.597656 C 74.125 320.8125 69.058594 328.289062 63.683594 327.109375 C 56.988281 325.628906 50.554688 324.523438 44.375 323.792969 C 41.382812 323.433594 34.605469 322.992188 32.097656 324.941406 C 22.796875 332.167969 63.117188 348.078125 75.03125 352.730469 C 80.980469 355.054688 110.804688 365.117188 114.921875 358.910156 C 119.058594 352.671875 93.839844 339.277344 89.546875 336.851562 C 87.957031 335.945312 86.914062 334.660156 86.613281 332.957031 C 85.851562 328.566406 86.171875 324.089844 87.578125 319.527344 C 94.816406 296.019531 103.445312 272.988281 112.648438 249.882812 C 116.386719 240.492188 122.671875 233.375 131.484375 228.535156 C 134.269531 227.007812 136.335938 225.902344 137.6875 225.222656 C 153.839844 217.140625 165.421875 200.148438 172.804688 184.273438 C 185.269531 157.449219 194.523438 128.375 202.027344 99.761719 C 202.527344 97.851562 202.734375 96.453125 202.628906 95.566406 C 202.601562 95.28125 202.496094 95.011719 202.316406 94.789062 Z M 136.292969 72.042969 C 136.382812 71.804688 136.746094 71.691406 137.398438 71.71875 C 139.859375 71.832031 142.300781 72.144531 144.710938 72.660156 C 151.847656 74.171875 160.058594 76.644531 169.335938 80.085938 C 178.613281 83.53125 186.441406 87.011719 192.832031 90.53125 C 194.996094 91.71875 197.046875 93.078125 198.996094 94.59375 C 199.503906 94.996094 199.710938 95.320312 199.621094 95.566406 C 199.539062 95.773438 199.183594 95.863281 198.53125 95.835938 C 196.070312 95.714844 193.628906 95.402344 191.21875 94.894531 C 184.074219 93.382812 175.871094 90.910156 166.59375 87.46875 C 157.316406 84.023438 149.488281 80.542969 143.097656 77.023438 C 140.933594 75.835938 138.882812 74.476562 136.941406 72.953125 C 136.433594 72.550781 136.21875 72.25 136.300781 72.042969 Z M 89.667969 341.511719 C 89.585938 341.109375 89.292969 340.367188 88.777344 339.292969 C 88.75 339.226562 88.777344 339.160156 88.84375 339.128906 C 88.875 339.113281 88.921875 339.113281 88.949219 339.128906 C 95.863281 342.828125 102.332031 346.988281 108.371094 351.609375 C 110.242188 353.046875 111.730469 354.742188 112.820312 356.683594 C 113.09375 357.183594 112.914062 357.820312 112.421875 358.09375 C 112.332031 358.148438 112.238281 358.175781 112.140625 358.199219 C 109.902344 358.683594 106.976562 358.648438 105.191406 358.371094 C 96.898438 357.101562 88.839844 355.09375 80.984375 352.351562 C 66.902344 347.421875 51.46875 340.867188 38.621094 332.695312 C 36.488281 331.335938 34.800781 329.871094 33.5625 328.304688 C 33.1875 327.832031 33.269531 327.144531 33.742188 326.773438 C 33.824219 326.714844 33.914062 326.660156 34 326.625 C 37.597656 325.152344 43.683594 325.855469 47.675781 326.472656 C 52.519531 327.230469 57.355469 328.140625 62.191406 329.191406 C 62.265625 329.214844 62.3125 329.289062 62.289062 329.363281 C 62.28125 329.402344 62.253906 329.433594 62.222656 329.453125 C 60.675781 330.261719 59.757812 330.867188 59.476562 331.269531 C 56.542969 335.484375 76.582031 342.316406 79.105469 343.140625 C 81.195312 343.804688 83.398438 344.261719 85.703125 344.507812 C 87.554688 344.707031 90.121094 343.851562 89.667969 341.519531 Z M 200.003906 98.457031 C 199.613281 100.9375 196.832031 110.757812 191.660156 127.917969 C 186.648438 144.523438 180.785156 160.628906 174.050781 176.25 C 166.117188 194.648438 154.609375 214.226562 136.269531 223.511719 C 133.65625 224.835938 130.515625 226.269531 127.886719 228.003906 C 122.132812 231.789062 117.460938 236.527344 113.855469 242.203125 C 112.511719 244.308594 109.886719 250.464844 105.96875 260.65625 C 98.265625 280.695312 91.636719 299.199219 86.089844 316.171875 C 84.867188 319.90625 83.433594 325.683594 83.890625 329.992188 C 84.324219 334.054688 85.433594 337.886719 87.226562 341.472656 C 87.34375 341.714844 87.25 342.003906 87.007812 342.125 C 86.949219 342.152344 86.890625 342.167969 86.824219 342.175781 C 85.882812 342.25 84.933594 342.175781 83.980469 341.953125 C 76.058594 340.105469 68.722656 337.089844 61.960938 332.898438 C 61.796875 332.800781 61.746094 332.585938 61.839844 332.421875 C 61.878906 332.359375 61.929688 332.316406 62 332.285156 C 63.820312 331.449219 65.46875 330.636719 66.953125 329.859375 C 74.894531 325.660156 77.875 318.652344 81.113281 310.816406 C 89.078125 291.566406 96.644531 271.007812 103.414062 250.003906 C 106.640625 240 107.480469 231.171875 104.863281 221.4375 C 103.773438 217.386719 101.035156 212.054688 99.972656 208.683594 C 94.75 192.078125 96.027344 175.285156 100.554688 158.605469 C 103.0625 149.359375 106.414062 139.273438 110.609375 128.351562 C 117.46875 110.496094 125.371094 92.421875 134.328125 74.109375 C 134.390625 73.984375 134.546875 73.933594 134.679688 73.992188 C 134.703125 74.007812 134.726562 74.015625 134.746094 74.035156 C 138.679688 77.710938 144.726562 80.402344 149.464844 82.621094 C 160.96875 87.992188 172.761719 92.367188 184.867188 95.757812 C 190.300781 97.285156 195.234375 98.058594 199.675781 98.089844 C 199.855469 98.089844 200.003906 98.230469 200.003906 98.410156 C 200.003906 98.433594 200.003906 98.449219 200.003906 98.472656 Z M 200.003906 98.457031 " fill-opacity="1" fill-rule="nonzero"/><path fill="#020302" d="M 215.324219 23.335938 C 217.796875 21.328125 220.550781 20.707031 223.773438 20.160156 C 224 20.125 224.171875 20.011719 224.289062 19.824219 C 224.402344 19.644531 224.460938 19.4375 224.460938 19.207031 C 224.460938 18.972656 224.402344 18.78125 224.289062 18.609375 C 224.171875 18.421875 224 18.308594 223.78125 18.265625 C 220.550781 17.695312 217.8125 17.054688 215.355469 15.03125 C 211.398438 11.765625 210.332031 5.664062 210.140625 0.835938 C 210.125 0.574219 210.019531 0.359375 209.824219 0.179688 C 209.683594 0.0507812 209.445312 -0.0078125 209.101562 -0.0078125 C 208.757812 -0.0078125 208.503906 0.0507812 208.371094 0.171875 C 208.175781 0.351562 208.070312 0.566406 208.054688 0.828125 C 207.824219 5.65625 206.710938 11.757812 202.742188 14.984375 C 200.273438 16.988281 197.515625 17.605469 194.285156 18.160156 C 194.0625 18.195312 193.890625 18.308594 193.777344 18.496094 C 193.667969 18.667969 193.605469 18.871094 193.605469 19.09375 C 193.605469 19.316406 193.660156 19.542969 193.769531 19.714844 C 193.890625 19.902344 194.0625 20.011719 194.277344 20.050781 C 197.511719 20.617188 200.257812 21.265625 202.710938 23.292969 C 206.667969 26.546875 207.734375 32.652344 207.929688 37.484375 C 207.945312 37.738281 208.050781 37.957031 208.242188 38.136719 C 208.378906 38.261719 208.617188 38.320312 208.960938 38.328125 C 209.316406 38.328125 209.554688 38.269531 209.691406 38.140625 C 209.886719 37.964844 209.988281 37.746094 210.011719 37.492188 C 210.234375 32.660156 211.347656 26.5625 215.324219 23.335938 Z M 209.226562 28.566406 C 209.226562 28.566406 209.175781 28.609375 209.109375 28.625 L 208.988281 28.625 C 208.921875 28.609375 208.871094 28.589844 208.871094 28.566406 C 207.347656 24.121094 204.519531 21.007812 200.367188 19.234375 C 200.300781 19.207031 200.265625 19.117188 200.300781 19.046875 C 200.316406 19.019531 200.347656 18.988281 200.375 18.972656 C 204.496094 17.332031 207.242188 14.378906 208.632812 10.136719 C 208.855469 9.457031 209.003906 9.121094 209.09375 9.121094 C 209.175781 9.121094 209.324219 9.464844 209.550781 10.144531 C 210.914062 14.386719 213.652344 17.34375 217.765625 19.011719 C 217.839844 19.042969 217.871094 19.125 217.839844 19.199219 C 217.828125 19.234375 217.804688 19.257812 217.765625 19.273438 C 213.617188 21.027344 210.765625 24.128906 209.226562 28.566406 Z M 209.226562 28.566406 " fill-opacity="1" fill-rule="nonzero"/><path fill="#020302" d="M 246.753906 54.570312 C 249.964844 54.570312 252.570312 51.960938 252.570312 48.75 C 252.570312 45.539062 249.964844 42.929688 246.753906 42.929688 C 243.546875 42.929688 240.941406 45.539062 240.941406 48.75 C 240.941406 51.960938 243.546875 54.570312 246.753906 54.570312 Z M 246.71875 45.15625 C 248.71875 45.15625 250.339844 46.777344 250.339844 48.78125 C 250.339844 50.78125 248.71875 52.402344 246.71875 52.402344 C 244.71875 52.402344 243.097656 50.78125 243.097656 48.78125 C 243.097656 46.777344 244.71875 45.15625 246.71875 45.15625 Z M 246.71875 45.15625 " fill-opacity="1" fill-rule="nonzero"/><path fill="#020302" d="M 169.394531 58.484375 C 172.542969 58.484375 175.097656 55.929688 175.097656 52.777344 C 175.097656 49.625 172.542969 47.070312 169.394531 47.070312 C 166.246094 47.070312 163.691406 49.625 163.691406 52.777344 C 163.691406 55.929688 166.246094 58.484375 169.394531 58.484375 Z M 169.378906 49.316406 C 171.304688 49.316406 172.855469 50.878906 172.855469 52.796875 C 172.855469 54.71875 171.296875 56.28125 169.378906 56.28125 C 167.460938 56.28125 165.902344 54.71875 165.902344 52.796875 C 165.902344 50.878906 167.460938 49.316406 169.378906 49.316406 Z M 169.378906 49.316406 " fill-opacity="1" fill-rule="nonzero"/><path fill="#020302" d="M 215.976562 63.890625 C 217.886719 63.890625 219.4375 62.339844 219.4375 60.425781 C 219.4375 58.511719 217.886719 56.960938 215.976562 56.960938 C 214.066406 56.960938 212.511719 58.511719 212.511719 60.425781 C 212.511719 62.339844 214.066406 63.890625 215.976562 63.890625 Z M 214.742188 60.484375 C 214.742188 59.820312 215.28125 59.28125 215.945312 59.28125 C 216.609375 59.28125 217.148438 59.820312 217.148438 60.484375 C 217.148438 61.152344 216.609375 61.6875 215.945312 61.6875 C 215.28125 61.6875 214.742188 61.152344 214.742188 60.484375 Z M 214.742188 60.484375 " fill-opacity="1" fill-rule="nonzero"/><path fill="#020302" d="M 235.222656 70.234375 C 236.738281 70.234375 237.972656 69 237.972656 67.484375 C 237.972656 65.96875 236.738281 64.734375 235.222656 64.734375 C 233.710938 64.734375 232.476562 65.96875 232.476562 67.484375 C 232.476562 69 233.710938 70.234375 235.222656 70.234375 Z M 235.222656 70.234375 " fill-opacity="1" fill-rule="nonzero"/><path fill="#020302" d="M 333.15625 347.285156 C 328.519531 347.171875 322.410156 347.324219 314.824219 347.71875 C 311.152344 347.90625 307.160156 340.78125 306.078125 337.777344 C 302.957031 329.132812 300.605469 318.101562 298.636719 308.769531 L 297.753906 304.898438 C 295.285156 293.574219 292.867188 281.757812 290.5 269.453125 C 289.179688 262.621094 288.457031 257.769531 288.328125 254.910156 C 288.015625 248.097656 289.359375 241.660156 292.359375 235.578125 C 294.277344 231.6875 297.734375 227.097656 299.570312 223.3125 C 306.613281 208.773438 307.863281 192.550781 306.078125 176.503906 C 305.265625 169.152344 304.398438 163.109375 303.496094 158.367188 C 298.835938 133.9375 292.457031 109.78125 284.335938 85.890625 C 283.730469 84.105469 283.132812 83.515625 281.441406 83.148438 C 279.230469 82.664062 276.96875 82.457031 274.640625 82.53125 C 257.964844 83.015625 240.492188 86.972656 224.851562 92.210938 C 221.371094 93.375 215.824219 95.429688 213.667969 98.015625 C 213.152344 98.621094 212.90625 99.40625 212.980469 100.195312 C 215.28125 126.722656 219.371094 153.324219 226.074219 179.351562 C 231.507812 200.4375 240.417969 222.078125 257.625 235.113281 C 261.445312 238.011719 263.855469 239.925781 264.863281 240.859375 C 268.429688 244.167969 271.542969 248.113281 274.183594 252.707031 C 275.796875 255.515625 277.550781 260.765625 279.445312 268.453125 C 285.238281 291.992188 289.695312 313.476562 292.820312 332.90625 C 293.800781 338.980469 294.023438 343.917969 292.128906 349.117188 C 291.710938 350.265625 291.1875 351.175781 290.5625 351.84375 C 290.390625 352.027344 290.171875 352.164062 289.941406 352.253906 C 281.589844 355.277344 273.9375 358.183594 266.609375 362.464844 C 264.398438 363.757812 260.027344 366.542969 260.527344 369.621094 C 261.40625 375 280.6875 373.328125 284.132812 372.996094 C 301.308594 371.355469 317.9375 367.714844 334.03125 362.078125 C 337.746094 360.769531 346.074219 357.421875 347.941406 354.332031 C 351.84375 347.851562 335.910156 347.339844 333.15625 347.269531 Z M 216.585938 98.320312 C 218.683594 97.117188 220.863281 96.09375 223.125 95.25 C 229.820312 92.75 237.902344 90.476562 247.375 88.445312 C 256.847656 86.414062 265.152344 85.175781 272.289062 84.726562 C 274.699219 84.570312 277.101562 84.613281 279.507812 84.84375 C 280.140625 84.914062 280.484375 85.0625 280.535156 85.316406 C 280.582031 85.523438 280.328125 85.792969 279.777344 86.109375 C 277.679688 87.3125 275.5 88.335938 273.238281 89.179688 C 266.550781 91.6875 258.464844 93.960938 248.988281 95.984375 C 239.515625 98.015625 231.207031 99.253906 224.082031 99.710938 C 221.671875 99.867188 219.265625 99.824219 216.863281 99.585938 C 216.230469 99.523438 215.894531 99.390625 215.839844 99.164062 C 215.789062 98.917969 216.035156 98.636719 216.585938 98.320312 Z M 289.820312 357.96875 C 289.835938 357.914062 289.859375 357.863281 289.890625 357.820312 C 293.320312 352.769531 295.890625 347.472656 295.90625 341.625 C 295.90625 339.023438 295.578125 335.722656 294.910156 331.734375 C 293.441406 322.875 292.246094 315.972656 291.179688 310.75 C 287.882812 294.621094 284.222656 277.941406 280.214844 262.304688 C 277.78125 252.789062 272.917969 244.847656 265.625 238.476562 C 262.28125 235.539062 256.839844 232.050781 253.488281 228.691406 C 247.570312 222.765625 242.769531 216.066406 239.082031 208.59375 C 231.679688 193.589844 227.304688 177.058594 224 160.890625 C 220.050781 141.625 217.175781 122.046875 215.378906 102.140625 C 215.363281 101.960938 215.492188 101.804688 215.675781 101.78125 L 215.722656 101.78125 C 221.4375 102.183594 227.328125 101.945312 233.378906 101.078125 C 247.546875 99.0625 263.222656 95.609375 277.164062 90.066406 C 278.941406 89.363281 280.597656 88.46875 282.132812 87.371094 C 282.261719 87.28125 282.441406 87.316406 282.523438 87.4375 C 282.535156 87.460938 282.550781 87.484375 282.558594 87.503906 C 288.753906 105.941406 294.023438 124.734375 298.359375 143.90625 C 300.261719 152.308594 301.941406 161.675781 303.421875 172.007812 C 305.703125 188.046875 305.25 204.414062 299.078125 219.121094 C 297.261719 223.445312 294.761719 227.1875 292.066406 231.542969 C 287.792969 238.46875 285.621094 247.148438 286.074219 254.566406 C 286.3125 258.488281 287.195312 264.40625 288.722656 272.316406 C 290.574219 281.929688 292.980469 293.417969 295.828125 306.804688 C 297.695312 315.589844 300.667969 328.035156 303.101562 336.15625 C 305.316406 343.550781 309.824219 349.152344 316.625 352.957031 C 316.832031 353.066406 316.90625 353.328125 316.796875 353.53125 C 316.742188 353.613281 316.667969 353.679688 316.578125 353.71875 C 309.382812 356.636719 301.882812 358.328125 294.105469 358.78125 C 292.679688 358.871094 291.367188 358.765625 290.148438 358.476562 C 289.917969 358.421875 289.777344 358.183594 289.828125 357.960938 Z M 345.84375 353.449219 C 345.785156 353.53125 345.710938 353.605469 345.628906 353.664062 C 343.5 355.339844 340.792969 356.855469 337.5 358.207031 C 331.027344 360.867188 324.699219 362.988281 318.503906 364.578125 C 305.257812 367.984375 290.566406 370.78125 276.519531 371.167969 C 272.019531 371.289062 266.699219 371.503906 263.234375 369.734375 C 262.765625 369.488281 262.585938 368.910156 262.824219 368.449219 C 262.839844 368.417969 262.855469 368.390625 262.878906 368.359375 C 263.59375 367.269531 264.585938 366.34375 265.847656 365.582031 C 272.691406 361.449219 280.179688 358.050781 288.300781 355.382812 C 288.375 355.359375 288.449219 355.40625 288.472656 355.480469 C 288.484375 355.519531 288.472656 355.5625 288.449219 355.601562 C 285.285156 359.84375 289.554688 361.046875 292.792969 361.015625 C 299.589844 360.957031 306.398438 359.566406 313.109375 357.496094 C 315.242188 356.839844 316.808594 356.207031 317.796875 355.59375 C 321.027344 353.582031 318.429688 351.632812 316.652344 350.191406 C 316.570312 350.125 316.558594 350.003906 316.632812 349.921875 C 316.667969 349.878906 316.714844 349.855469 316.765625 349.855469 C 327.183594 349.40625 334.410156 348.921875 342.648438 350.640625 C 343.894531 350.902344 344.882812 351.296875 345.589844 351.820312 C 346.105469 352.207031 346.21875 352.941406 345.835938 353.457031 Z M 345.84375 353.449219 " fill-opacity="1" fill-rule="nonzero"/><path fill="#020302" d="M 184.613281 127.449219 C 183.054688 127.082031 182.097656 126.878906 181.746094 126.835938 C 172.96875 125.683594 164.074219 125.378906 155.054688 125.917969 C 141.949219 126.691406 131.457031 127.925781 123.566406 129.621094 C 121.851562 129.996094 109.453125 132.511719 111.386719 135.464844 C 111.484375 135.621094 111.714844 135.792969 112.074219 135.984375 C 113.855469 136.957031 116 137.703125 118.5 138.234375 C 123.582031 139.308594 128.597656 139.625 133.433594 139.480469 C 144.160156 139.167969 155.257812 137.980469 166.714844 135.933594 C 172.246094 134.949219 176.65625 133.9375 179.949219 132.914062 C 181.851562 132.324219 183.476562 131.617188 184.84375 130.792969 C 185.71875 130.265625 186.144531 129.253906 185.890625 128.335938 C 185.777344 127.917969 185.351562 127.628906 184.605469 127.457031 Z M 182.523438 129.359375 C 182.007812 129.800781 181.367188 130.144531 180.589844 130.382812 C 177.359375 131.398438 173.753906 132.296875 169.765625 133.074219 C 156.980469 135.558594 144.800781 136.949219 133.203125 137.242188 C 126.878906 137.398438 120.371094 137.121094 114.878906 134.867188 C 114.699219 134.789062 114.609375 134.582031 114.683594 134.402344 C 114.722656 134.3125 114.796875 134.246094 114.886719 134.207031 C 116.582031 133.542969 118.460938 132.992188 120.527344 132.535156 C 134.554688 129.464844 149.824219 127.902344 166.335938 127.867188 C 168.410156 127.867188 173.773438 128.253906 182.417969 129.046875 C 182.515625 129.054688 182.589844 129.144531 182.574219 129.242188 C 182.574219 129.285156 182.546875 129.332031 182.515625 129.359375 Z M 182.523438 129.359375 " fill-opacity="1" fill-rule="nonzero"/><path fill="#020302" d="M 180.761719 137.75 C 162.15625 141.886719 142.425781 143.597656 123.589844 140.960938 C 119.804688 140.429688 115.9375 139.347656 111.992188 137.703125 C 111.75 137.605469 111.476562 137.660156 111.296875 137.839844 C 111.066406 138.0625 110.910156 138.300781 110.824219 138.535156 C 107.566406 147.496094 104.832031 157.484375 102.636719 168.503906 C 99.78125 182.808594 99.511719 208.265625 113.929688 217.105469 C 124.789062 223.753906 137.292969 218.882812 146.09375 210.6875 C 152.28125 204.914062 157.578125 198.242188 161.984375 190.683594 C 170.820312 175.523438 177.335938 158.710938 182.449219 141.878906 C 182.84375 140.574219 183.082031 139.75 183.164062 139.414062 C 183.566406 137.785156 181.949219 137.488281 180.761719 137.75 Z M 180.484375 140.609375 C 175.027344 158.121094 168.625 175.0625 159.730469 190.078125 C 154.109375 199.550781 146.734375 208.796875 137.367188 214.378906 C 125.65625 221.363281 112.46875 218.292969 107.035156 205.285156 C 102.726562 194.957031 102.445312 181.941406 104.390625 171.179688 C 106.265625 160.800781 108.945312 150.695312 112.429688 140.863281 C 112.542969 140.558594 112.871094 140.402344 113.175781 140.503906 C 113.199219 140.511719 113.222656 140.519531 113.246094 140.535156 C 114.691406 141.265625 116.214844 141.796875 117.804688 142.132812 C 124.917969 143.628906 132.394531 144.390625 140.253906 144.417969 C 153.40625 144.480469 166.707031 143.082031 180.164062 140.238281 C 180.3125 140.207031 180.460938 140.304688 180.5 140.460938 C 180.507812 140.511719 180.507812 140.558594 180.5 140.609375 Z M 180.484375 140.609375 " fill-opacity="1" fill-rule="nonzero"/><path fill="#020302" d="M 127.074219 224.566406 C 123.46875 225 120.015625 224.679688 116.699219 223.589844 C 113.371094 222.558594 110.355469 220.816406 107.675781 218.367188 C 107.660156 218.351562 107.648438 218.34375 107.632812 218.328125 C 107.214844 217.992188 106.601562 218.066406 106.265625 218.484375 L 106.214844 218.554688 C 105.847656 219.023438 105.886719 219.6875 106.3125 220.105469 C 108.929688 222.707031 112.542969 224.632812 116.011719 225.738281 C 119.46875 226.84375 123.535156 227.375 127.179688 226.777344 C 127.769531 226.679688 128.195312 226.152344 128.15625 225.554688 L 128.15625 225.46875 C 128.15625 225.46875 128.15625 225.433594 128.15625 225.410156 C 128.097656 224.878906 127.613281 224.5 127.082031 224.558594 Z M 127.074219 224.566406 " fill-opacity="1" fill-rule="nonzero"/><path fill="#020302" d="M 47.078125 332.210938 C 45.742188 331.417969 44.382812 330.285156 43.011719 328.820312 C 42.964844 328.765625 42.914062 328.722656 42.855469 328.683594 C 42.40625 328.363281 41.777344 328.476562 41.457031 328.925781 L 41.414062 329 C 41.011719 329.566406 41.078125 330.34375 41.585938 330.820312 C 42.695312 331.882812 43.988281 332.875 45.464844 333.808594 C 53.429688 338.84375 62 342.640625 71.089844 346.1875 C 80.171875 349.742188 89.039062 352.777344 98.300781 354.480469 C 100.019531 354.792969 101.636719 354.941406 103.175781 354.921875 C 103.871094 354.914062 104.453125 354.390625 104.542969 353.695312 L 104.554688 353.605469 C 104.5625 353.539062 104.5625 353.472656 104.554688 353.402344 C 104.511719 352.851562 104.035156 352.441406 103.480469 352.476562 C 101.480469 352.628906 99.71875 352.539062 98.199219 352.207031 C 89.332031 350.320312 80.695312 347.503906 71.917969 344.066406 C 63.125 340.628906 54.871094 336.851562 47.070312 332.210938 Z M 47.078125 332.210938 " fill-opacity="1" fill-rule="nonzero"/><path fill="#020302" d="M 293.605469 147.585938 C 294.375 147.363281 294.875 146.855469 295.121094 146.078125 C 295.226562 145.742188 295.121094 145.367188 294.835938 145.152344 C 293.457031 144.039062 292.039062 143.128906 290.558594 142.417969 C 280.984375 137.792969 270.632812 135.089844 260.011719 133.386719 C 249.398438 131.683594 238.71875 131.011719 228.179688 132.421875 C 226.566406 132.632812 224.925781 133.058594 223.265625 133.683594 C 222.9375 133.804688 222.714844 134.125 222.714844 134.476562 C 222.707031 135.296875 223.027344 135.933594 223.683594 136.390625 C 232.960938 142.867188 246.425781 145.839844 257.734375 147.65625 C 269.050781 149.46875 282.769531 150.84375 293.597656 147.585938 Z M 226 135.296875 C 226.023438 135.171875 226.066406 135.105469 226.132812 135.089844 C 237.308594 132.984375 248.800781 133.871094 259.636719 135.597656 C 270.46875 137.332031 281.664062 140.070312 291.621094 145.5625 C 291.6875 145.601562 291.710938 145.675781 291.6875 145.800781 C 291.664062 145.921875 291.621094 145.988281 291.554688 146.003906 C 280.378906 148.109375 268.886719 147.222656 258.054688 145.496094 C 247.21875 143.761719 236.023438 141.019531 226.066406 135.53125 C 226 135.492188 225.976562 135.417969 226 135.296875 Z M 226 135.296875 " fill-opacity="1" fill-rule="nonzero"/><path fill="#020302" d="M 284.640625 228.203125 C 297.949219 219.425781 300.921875 198.011719 300.1875 183.488281 C 299.613281 172.140625 298.015625 160.898438 295.382812 149.769531 C 295.382812 149.746094 295.375 149.730469 295.367188 149.714844 C 295.226562 149.246094 294.726562 148.984375 294.253906 149.125 C 281.933594 152.808594 268.058594 152.480469 255.957031 150.554688 C 246.015625 148.96875 236.394531 146.734375 227.097656 143.851562 C 226.574219 143.695312 226.015625 143.933594 225.773438 144.414062 C 225.550781 144.875 225.484375 145.441406 225.589844 146.128906 C 226.6875 153.652344 228.042969 160.847656 229.65625 167.703125 C 234.1875 187.015625 240.316406 207.167969 254.21875 221.945312 C 262.167969 230.386719 273.984375 235.210938 284.632812 228.191406 Z M 250.570312 214.117188 C 244.898438 205.957031 240.554688 197.167969 237.53125 187.753906 C 233.195312 174.234375 229.992188 160.59375 227.917969 146.816406 C 227.894531 146.667969 227.992188 146.527344 228.140625 146.503906 C 228.1875 146.496094 228.238281 146.503906 228.28125 146.519531 C 232.203125 147.886719 239.105469 149.582031 249.003906 151.597656 C 263.183594 154.480469 279.222656 155.683594 293.359375 151.621094 C 293.480469 151.582031 293.597656 151.660156 293.636719 151.777344 C 293.636719 151.777344 293.636719 151.785156 293.636719 151.792969 C 296.800781 166.5 299.085938 182.792969 297.636719 196.726562 C 296.464844 207.984375 291.492188 223.953125 279.597656 228.292969 C 267.929688 232.550781 257.046875 223.453125 250.570312 214.132812 Z M 250.570312 214.117188 " fill-opacity="1" fill-rule="nonzero"/><path fill="#020302" d="M 288.910156 232.195312 L 288.875 232.125 C 288.875 232.125 288.859375 232.097656 288.84375 232.082031 C 288.539062 231.640625 287.933594 231.527344 287.492188 231.835938 C 284.539062 233.917969 281.34375 235.269531 277.925781 235.890625 C 274.511719 236.554688 271.050781 236.460938 267.542969 235.585938 C 267.519531 235.585938 267.503906 235.578125 267.484375 235.570312 C 266.953125 235.472656 266.453125 235.824219 266.355469 236.355469 L 266.355469 236.429688 C 266.234375 237.019531 266.585938 237.59375 267.160156 237.765625 C 270.691406 238.804688 274.773438 238.773438 278.335938 238.109375 C 281.894531 237.445312 285.710938 235.980469 288.621094 233.734375 C 289.089844 233.367188 289.21875 232.710938 288.902344 232.203125 Z M 288.910156 232.195312 " fill-opacity="1" fill-rule="nonzero"/><path fill="#020302" d="M 337.632812 353.121094 C 337.605469 353.058594 337.566406 353 337.53125 352.941406 C 337.195312 352.5 336.558594 352.410156 336.121094 352.746094 C 334.507812 353.964844 332.96875 354.851562 331.507812 355.414062 C 322.984375 358.664062 314.144531 360.984375 304.847656 362.882812 C 295.546875 364.78125 286.5 366.09375 277.386719 366.4375 C 275.820312 366.5 274.058594 366.28125 272.101562 365.796875 C 272.035156 365.78125 271.96875 365.765625 271.902344 365.765625 C 271.347656 365.746094 270.878906 366.171875 270.847656 366.730469 L 270.847656 366.820312 C 270.8125 367.523438 271.304688 368.136719 271.992188 368.261719 C 273.511719 368.554688 275.148438 368.6875 276.902344 368.671875 C 286.375 368.574219 295.679688 367.097656 305.308594 365.140625 C 314.929688 363.175781 324.082031 360.890625 332.828125 357.265625 C 334.453125 356.601562 335.902344 355.839844 337.1875 354.972656 C 337.769531 354.585938 337.976562 353.820312 337.671875 353.195312 L 337.632812 353.113281 Z M 337.632812 353.121094 " fill-opacity="1" fill-rule="nonzero"/><path fill="#020302" d="M 165.675781 151.6875 C 164.820312 151.6875 164.125 152.382812 164.125 153.242188 C 164.125 154.101562 164.820312 154.796875 165.675781 154.796875 C 166.535156 154.796875 167.230469 154.101562 167.230469 153.242188 C 167.230469 152.382812 166.535156 151.6875 165.675781 151.6875 Z M 165.675781 151.6875 " fill-opacity="1" fill-rule="nonzero"/><path fill="#020302" d="M 159.839844 156.484375 C 159.839844 155.222656 158.816406 154.191406 157.550781 154.191406 C 156.28125 154.191406 155.257812 155.214844 155.257812 156.484375 C 155.257812 157.753906 156.28125 158.777344 157.550781 158.777344 C 158.816406 158.777344 159.839844 157.753906 159.839844 156.484375 Z M 159.839844 156.484375 " fill-opacity="1" fill-rule="nonzero"/><path fill="#020302" d="M 122.164062 163.796875 C 120.878906 163.796875 119.835938 164.835938 119.835938 166.128906 C 119.835938 167.421875 120.871094 168.457031 122.164062 168.457031 C 123.453125 168.457031 124.492188 167.421875 124.492188 166.128906 C 124.492188 164.84375 123.449219 163.796875 122.164062 163.796875 Z M 122.164062 163.796875 " fill-opacity="1" fill-rule="nonzero"/><path fill="#020302" d="M 159.976562 169.027344 C 159.09375 169.027344 158.386719 169.742188 158.386719 170.617188 C 158.386719 171.492188 159.101562 172.207031 159.976562 172.207031 C 160.847656 172.207031 161.566406 171.492188 161.566406 170.617188 C 161.566406 169.742188 160.847656 169.027344 159.976562 169.027344 Z M 159.976562 169.027344 " fill-opacity="1" fill-rule="nonzero"/><path fill="#020302" d="M 151.011719 171.753906 C 150.128906 171.753906 149.421875 172.46875 149.421875 173.34375 C 149.421875 174.21875 150.136719 174.933594 151.011719 174.933594 C 151.882812 174.933594 152.601562 174.21875 152.601562 173.34375 C 152.601562 172.46875 151.882812 171.753906 151.011719 171.753906 Z M 151.011719 171.753906 " fill-opacity="1" fill-rule="nonzero"/><path fill="#020302" d="M 116.171875 179.230469 C 114.878906 179.230469 113.828125 180.277344 113.828125 181.578125 C 113.828125 182.875 114.871094 183.921875 116.171875 183.921875 C 117.46875 183.921875 118.515625 182.875 118.515625 181.578125 C 118.515625 180.277344 117.46875 179.230469 116.171875 179.230469 Z M 116.171875 179.230469 " fill-opacity="1" fill-rule="nonzero"/><path fill="#020302" d="M 144.351562 180.296875 C 143.085938 180.296875 142.046875 181.328125 142.046875 182.605469 C 142.046875 183.882812 143.078125 184.914062 144.351562 184.914062 C 145.621094 184.914062 146.660156 183.882812 146.660156 182.605469 C 146.660156 181.328125 145.628906 180.296875 144.351562 180.296875 Z M 144.351562 180.296875 " fill-opacity="1" fill-rule="nonzero"/><path fill="#020302" d="M 133.589844 195.476562 C 131.867188 195.476562 130.464844 196.875 130.464844 198.609375 C 130.464844 200.339844 131.859375 201.738281 133.589844 201.738281 C 135.320312 201.738281 136.71875 200.339844 136.71875 198.609375 C 136.71875 196.875 135.320312 195.476562 133.589844 195.476562 Z M 134.480469 198.914062 C 134.292969 199.429688 133.792969 199.714844 133.367188 199.558594 C 132.933594 199.398438 132.738281 198.863281 132.917969 198.347656 C 133.097656 197.832031 133.605469 197.546875 134.03125 197.703125 C 134.464844 197.859375 134.65625 198.398438 134.480469 198.914062 Z M 134.480469 198.914062 " fill-opacity="1" fill-rule="nonzero"/><path fill="#020302" d="M 129.433594 206.542969 C 129.433594 206.757812 129.390625 206.964844 129.308594 207.160156 C 129.226562 207.359375 129.109375 207.535156 128.957031 207.6875 C 128.808594 207.839844 128.632812 207.957031 128.433594 208.039062 C 128.234375 208.121094 128.027344 208.164062 127.8125 208.164062 C 127.597656 208.164062 127.390625 208.121094 127.195312 208.039062 C 126.996094 207.957031 126.820312 207.839844 126.667969 207.6875 C 126.515625 207.535156 126.398438 207.359375 126.316406 207.160156 C 126.234375 206.964844 126.195312 206.757812 126.195312 206.542969 C 126.195312 206.328125 126.234375 206.121094 126.316406 205.921875 C 126.398438 205.722656 126.515625 205.546875 126.667969 205.394531 C 126.820312 205.242188 126.996094 205.125 127.195312 205.042969 C 127.390625 204.960938 127.597656 204.921875 127.8125 204.921875 C 128.027344 204.921875 128.234375 204.960938 128.433594 205.042969 C 128.632812 205.125 128.808594 205.242188 128.957031 205.394531 C 129.109375 205.546875 129.226562 205.722656 129.308594 205.921875 C 129.390625 206.121094 129.433594 206.328125 129.433594 206.542969 Z M 129.433594 206.542969 " fill-opacity="1" fill-rule="nonzero"/><path fill="#020302" d="M 239.351562 159.203125 C 238.523438 158.867188 237.605469 159.21875 237.300781 159.980469 C 236.992188 160.742188 237.410156 161.632812 238.238281 161.96875 C 239.066406 162.304688 239.984375 161.953125 240.292969 161.191406 C 240.597656 160.429688 240.179688 159.539062 239.351562 159.203125 Z M 239.351562 159.203125 " fill-opacity="1" fill-rule="nonzero"/><path fill="#020302" d="M 246.457031 162.59375 C 245.210938 162.59375 244.203125 163.601562 244.203125 164.851562 C 244.203125 166.097656 245.210938 167.105469 246.457031 167.105469 C 247.703125 167.105469 248.710938 166.097656 248.710938 164.851562 C 248.710938 163.601562 247.703125 162.59375 246.457031 162.59375 Z M 246.457031 162.59375 " fill-opacity="1" fill-rule="nonzero"/><path fill="#020302" d="M 242.816406 177.25 C 241.957031 177.25 241.261719 177.945312 241.261719 178.804688 C 241.261719 179.664062 241.957031 180.359375 242.816406 180.359375 C 243.671875 180.359375 244.367188 179.664062 244.367188 178.804688 C 244.367188 177.945312 243.671875 177.25 242.816406 177.25 Z M 242.816406 177.25 " fill-opacity="1" fill-rule="nonzero"/><path fill="#020302" d="M 282.789062 180.269531 C 282.789062 179 281.761719 177.960938 280.484375 177.960938 C 279.207031 177.960938 278.179688 178.992188 278.179688 180.269531 C 278.179688 181.546875 279.207031 182.578125 280.484375 182.578125 C 281.761719 182.578125 282.789062 181.546875 282.789062 180.269531 Z M 282.789062 180.269531 " fill-opacity="1" fill-rule="nonzero"/><path fill="#020302" d="M 251.398438 180.972656 C 250.515625 180.972656 249.808594 181.6875 249.808594 182.5625 C 249.808594 183.4375 250.523438 184.152344 251.398438 184.152344 C 252.273438 184.152344 252.988281 183.4375 252.988281 182.5625 C 252.988281 181.679688 252.273438 180.972656 251.398438 180.972656 Z M 251.398438 180.972656 " fill-opacity="1" fill-rule="nonzero"/><path fill="#020302" d="M 256.703125 190.226562 C 255.429688 190.226562 254.390625 191.265625 254.390625 192.542969 C 254.390625 193.820312 255.429688 194.859375 256.703125 194.859375 C 257.980469 194.859375 259.019531 193.820312 259.019531 192.542969 C 259.019531 191.265625 257.980469 190.226562 256.703125 190.226562 Z M 256.703125 190.226562 " fill-opacity="1" fill-rule="nonzero"/><path fill="#020302" d="M 284.695312 198.832031 C 286 198.832031 287.066406 197.769531 287.066406 196.457031 C 287.066406 195.140625 286.007812 194.082031 284.695312 194.082031 C 283.378906 194.082031 282.320312 195.140625 282.320312 196.457031 C 282.320312 197.769531 283.378906 198.832031 284.695312 198.832031 Z M 284.695312 198.832031 " fill-opacity="1" fill-rule="nonzero"/><path fill="#020302" d="M 267.421875 209.820312 C 267.238281 208.65625 266.214844 207.855469 265.148438 208.027344 C 264.078125 208.199219 263.363281 209.28125 263.550781 210.449219 C 263.734375 211.613281 264.757812 212.414062 265.824219 212.242188 C 266.894531 212.070312 267.609375 210.984375 267.421875 209.820312 Z M 267.421875 209.820312 " fill-opacity="1" fill-rule="nonzero"/><path fill="#020302" d="M 269.960938 216.609375 C 269.074219 216.609375 268.355469 217.328125 268.355469 218.21875 C 268.355469 219.105469 269.074219 219.824219 269.960938 219.824219 C 270.847656 219.824219 271.566406 219.105469 271.566406 218.21875 C 271.566406 217.328125 270.847656 216.609375 269.960938 216.609375 Z M 269.960938 216.609375 " fill-opacity="1" fill-rule="nonzero"/></svg>