<svg xmlns="http://www.w3.org/2000/svg" xmlns:xlink="http://www.w3.org/1999/xlink" width="500" zoomAndPan="magnify" viewBox="0 0 375 374.999991" height="500" preserveAspectRatio="xMidYMid meet" version="1.0"><path fill="#000000" d="M 347.796875 308.585938 C 352.039062 311.230469 356.441406 314.578125 357.269531 319.917969 C 357.953125 324.320312 359.992188 328.742188 357.824219 333.472656 C 355.902344 337.664062 353.558594 341.273438 349.882812 344.167969 C 343.121094 349.488281 335.484375 352.925781 327.546875 356.09375 C 318.6875 359.628906 309.621094 362.132812 300.3125 363.996094 C 294.097656 365.238281 287.941406 366.792969 281.703125 367.925781 C 277.460938 368.699219 273.128906 369.019531 268.832031 369.46875 C 262.109375 370.171875 255.332031 370.488281 248.671875 371.5625 C 240.890625 372.820312 233.03125 372.304688 225.289062 373.117188 C 208.582031 374.871094 191.878906 373.679688 175.179688 373.871094 C 166.144531 373.976562 157.089844 373.054688 148.050781 372.449219 C 143.164062 372.121094 138.277344 371.601562 133.421875 370.945312 C 128.414062 370.265625 123.445312 369.273438 118.449219 368.496094 C 116.621094 368.210938 114.742188 368.234375 112.910156 367.960938 C 108.84375 367.351562 104.792969 366.652344 100.738281 365.960938 C 100.457031 365.914062 100.210938 365.644531 99.699219 365.476562 C 96.25 364.949219 93.019531 364.574219 89.863281 363.855469 C 83.183594 362.324219 76.457031 360.894531 69.910156 358.902344 C 62.167969 356.550781 54.460938 353.960938 46.984375 350.882812 C 40.863281 348.363281 34.90625 345.292969 29.226562 341.878906 C 24.078125 338.785156 19.625 334.707031 17.175781 328.914062 C 15.015625 323.804688 15.136719 318.945312 18.839844 314.59375 C 26.933594 305.097656 41.429688 301.488281 42.644531 301.0625 C 45.128906 300.191406 46.085938 299.433594 45.667969 287.550781 C 45.402344 280.019531 45.039062 272.488281 44.675781 264.960938 C 44.589844 263.109375 44.261719 261.265625 44.230469 259.417969 C 44.21875 258.605469 44.679688 257.785156 44.925781 256.96875 C 45.511719 257.800781 46.53125 258.589844 46.613281 259.472656 C 46.960938 263.082031 47.089844 266.714844 47.175781 270.34375 C 47.382812 278.945312 47.5 287.542969 47.707031 296.140625 C 47.746094 297.824219 47.949219 299.515625 48.234375 301.175781 C 48.320312 301.65625 48.878906 302.222656 49.363281 302.4375 C 54.625 304.816406 59.777344 307.5625 65.238281 309.363281 C 73.039062 311.9375 81.035156 313.972656 89.027344 315.910156 C 94.457031 317.222656 100.011719 318.027344 105.527344 318.953125 C 111.851562 320.019531 118.191406 321.015625 124.539062 321.957031 C 130.601562 322.851562 136.6875 323.601562 142.753906 324.476562 C 150.773438 325.636719 158.78125 326.640625 166.929688 326.546875 C 172.289062 326.480469 177.652344 327.316406 183.019531 327.433594 C 195.78125 327.714844 208.550781 327.992188 221.316406 327.890625 C 227.863281 327.839844 234.433594 327.199219 240.941406 326.410156 C 248.410156 325.503906 255.910156 324.535156 263.234375 322.875 C 273.835938 320.46875 284.246094 317.234375 294.824219 314.699219 C 303.847656 312.539062 312.007812 308.273438 320.511719 304.855469 C 322.257812 304.15625 323.386719 302.667969 323.292969 300.328125 C 322.84375 288.882812 322.507812 277.4375 322.292969 265.988281 C 322.253906 263.714844 322.925781 261.433594 323.234375 259.148438 C 323.480469 257.320312 322.738281 257.261719 321.152344 257.722656 C 318.527344 258.488281 315.804688 258.933594 313.113281 259.453125 C 308.558594 260.324219 305.320312 257.796875 302.15625 255.125 C 296.261719 250.144531 292.523438 250.542969 287.265625 254.691406 C 283.796875 257.421875 280.460938 260.328125 276.921875 262.957031 C 274.433594 264.800781 271.488281 264.546875 268.46875 264.601562 C 263.953125 264.683594 260.445312 261.917969 256.28125 261.296875 C 252.398438 260.714844 248.433594 258.644531 244.582031 260.554688 C 241.78125 261.9375 238.871094 263.765625 236.957031 266.152344 C 230.570312 274.132812 222.390625 277.472656 212.457031 276.371094 C 208.605469 275.941406 205.65625 273.058594 202.46875 270.96875 C 199.65625 269.125 196.898438 267.167969 193.972656 265.515625 C 188.730469 262.550781 185.363281 264.347656 181.351562 267.546875 C 178.742188 269.628906 176.226562 271.960938 173.308594 273.496094 C 166.128906 277.277344 159.171875 276.15625 152.863281 271.300781 C 149.207031 268.492188 145.964844 265.144531 142.28125 262.371094 C 138.472656 259.503906 135.566406 259.640625 131.722656 262.195312 C 126.546875 265.628906 120.976562 267.824219 114.648438 267.449219 C 106.828125 266.988281 100.746094 263.738281 96.617188 256.785156 C 94.902344 253.898438 92.636719 251.070312 89.984375 249.0625 C 85.59375 245.742188 80.695312 247.542969 76.191406 249.285156 C 70.519531 251.476562 65.179688 254.746094 59.363281 256.289062 C 51.316406 258.421875 43.820312 256.039062 38.0625 249.941406 C 34.269531 245.925781 32.101562 241.105469 32.0625 235.160156 C 32 225.589844 34.773438 216.777344 38.34375 208.207031 C 40.328125 203.441406 44.773438 200.527344 49.175781 197.960938 C 56.351562 193.777344 64.15625 191.871094 72.433594 191.988281 C 73.886719 192.011719 75.359375 192.519531 76.753906 193 C 77.183594 193.152344 77.386719 193.957031 77.695312 194.464844 C 77.222656 194.625 76.753906 194.917969 76.28125 194.925781 C 73.667969 194.96875 71.042969 194.761719 68.449219 194.980469 C 60.910156 195.621094 54.195312 198.527344 47.8125 202.507812 C 41.730469 206.304688 40.027344 212.4375 38.117188 218.695312 C 36.484375 224.042969 35.109375 229.402344 35.234375 234.976562 C 35.4375 244.117188 40.617188 250.765625 49.015625 253.296875 C 51.851562 254.15625 55.25 253.285156 58.375 253 C 64.878906 252.402344 70.195312 248.5625 76.097656 246.304688 C 81.589844 244.199219 87.210938 243.511719 92.214844 247.070312 C 94.660156 248.808594 96.558594 251.574219 98.128906 254.21875 C 101.25 259.46875 105.816406 262.421875 111.542969 263.972656 C 116.621094 265.347656 121.179688 263.589844 125.695312 261.6875 C 128.390625 260.554688 131.117188 259.402344 133.617188 257.90625 C 136.34375 256.273438 138.816406 256.980469 141.191406 258.265625 C 143.390625 259.457031 145.492188 260.90625 147.433594 262.492188 C 150.460938 264.964844 153.039062 268.078125 156.300781 270.140625 C 161.398438 273.367188 169.046875 273.777344 174.542969 269.371094 C 176.554688 267.757812 178.429688 265.960938 180.511719 264.449219 C 186.511719 260.089844 191.6875 260.609375 197.859375 264.277344 C 202.984375 267.328125 207.339844 271.8125 213.5 272.972656 C 214.996094 273.25 216.59375 273.648438 218.042969 273.398438 C 223.589844 272.445312 228.523438 270.363281 232.53125 266.046875 C 235.363281 263.003906 238.757812 260.414062 242.183594 258.023438 C 245.179688 255.9375 248.886719 256.585938 252.128906 257.25 C 256.804688 258.207031 261.238281 260.355469 265.917969 261.265625 C 270.65625 262.1875 275.335938 261.691406 279.160156 257.875 C 281.59375 255.445312 284.527344 253.53125 287.140625 251.273438 C 291.542969 247.46875 298.140625 248.613281 302.433594 251.394531 C 304.660156 252.839844 306.847656 254.378906 309.207031 255.574219 C 310.234375 256.09375 311.664062 256.03125 312.875 255.914062 C 314.425781 255.765625 315.933594 255.242188 317.476562 254.984375 C 323.082031 254.039062 325.882812 250.332031 327.816406 245.300781 C 329.601562 240.652344 331.292969 236.070312 330.726562 231.015625 C 329.800781 222.746094 328.367188 214.546875 322.230469 208.320312 C 319.457031 205.503906 316.128906 203.152344 312.777344 201.015625 C 309.804688 199.117188 306.597656 197.261719 303.234375 196.390625 C 300.046875 195.566406 296.503906 195.863281 293.148438 196.089844 C 292.445312 196.136719 291.394531 197.996094 291.324219 199.074219 C 291.085938 202.558594 291.128906 206.070312 291.269531 209.566406 C 291.371094 211.964844 290.425781 213.386719 288.3125 214.484375 C 282.011719 217.761719 275.183594 219.472656 268.4375 221.445312 C 261.429688 223.492188 254.425781 225.457031 247.058594 226.023438 C 240.542969 226.523438 234.078125 227.65625 227.582031 228.433594 C 225.164062 228.722656 222.707031 228.660156 220.292969 228.972656 C 205.460938 230.894531 190.5625 229.800781 175.695312 229.855469 C 167.152344 229.886719 158.601562 229.023438 150.066406 228.425781 C 145.09375 228.078125 140.121094 227.597656 135.1875 226.910156 C 130.671875 226.277344 126.214844 225.234375 121.710938 224.464844 C 117.417969 223.734375 113.058594 223.308594 108.800781 222.402344 C 103.476562 221.269531 98.152344 220.023438 92.972656 218.371094 C 89.027344 217.113281 85.308594 215.15625 81.496094 213.496094 C 79.519531 212.636719 78.542969 211.269531 78.660156 208.949219 C 79.082031 200.507812 79.394531 192.058594 79.683594 183.609375 C 79.902344 177.261719 80.003906 170.910156 80.210938 164.5625 C 80.261719 163.015625 80.59375 161.480469 80.664062 159.933594 C 80.6875 159.347656 80.484375 158.640625 80.136719 158.171875 C 75.628906 152.09375 72.714844 145.449219 72.695312 137.742188 C 72.683594 133.382812 72.335938 128.980469 72.777344 124.664062 C 73.410156 118.492188 77.046875 114.113281 82.566406 111.453125 C 91.695312 107.058594 101.125 103.410156 110.96875 100.957031 C 115 99.953125 119.105469 99.257812 123.179688 98.429688 C 127.253906 97.605469 131.328125 96.75 135.417969 95.992188 C 137.070312 95.6875 138.761719 95.601562 140.4375 95.429688 C 143.800781 95.089844 147.160156 94.707031 150.527344 94.449219 C 152.410156 94.304688 152.730469 93.222656 152.726562 91.625 C 152.695312 80.625 152.703125 69.621094 152.71875 58.621094 C 152.71875 57.898438 152.589844 56.980469 152.964844 56.492188 C 155.058594 53.753906 153.746094 52.027344 151.648438 50.023438 C 146.730469 45.320312 145.648438 39.011719 146.953125 32.894531 C 147.796875 28.921875 150.945312 25.425781 153.132812 21.753906 C 155.671875 17.496094 158.90625 13.59375 159.835938 8.527344 C 160.164062 6.738281 160.539062 4.945312 160.671875 3.136719 C 160.769531 1.792969 160.628906 0.0820312 162.214844 0.0742188 C 163.042969 0.0703125 164.265625 1.628906 164.644531 2.714844 C 166.300781 7.457031 167.679688 12.292969 169.222656 17.078125 C 170.691406 21.632812 172.714844 26.066406 173.640625 30.726562 C 175.125 38.179688 175.148438 45.695312 169.484375 51.773438 C 168.035156 53.332031 168.222656 54.867188 168.242188 56.53125 C 168.253906 57.628906 168.625 58.722656 168.699219 59.824219 C 169.222656 67.785156 169.671875 75.75 170.234375 83.707031 C 170.421875 86.328125 170.832031 88.9375 171.230469 91.542969 C 171.445312 92.953125 171.921875 93.996094 173.8125 93.972656 C 182.0625 93.871094 190.316406 93.902344 198.566406 93.945312 C 200.425781 93.957031 201.011719 93.199219 201.285156 91.355469 C 201.898438 87.25 202.953125 83.214844 203.6875 79.125 C 203.738281 78.835938 204.625 70.917969 204.613281 70.433594 C 204.582031 69.171875 204.039062 68.035156 203.527344 68.875 C 203.375 69.125 200.496094 75.167969 199.535156 73.144531 C 198.535156 71.027344 201.707031 62.910156 204.753906 53.613281 C 204.890625 53.195312 204.777344 52.695312 204.78125 52.234375 C 204.308594 52.296875 203.796875 52.257812 203.375 52.4375 C 189.929688 58.042969 189.957031 58.070312 186.738281 59.324219 C 186.582031 59.382812 186.421875 59.40625 186.265625 59.390625 C 185.742188 59.578125 185.214844 59.722656 184.679688 59.796875 C 183.636719 59.9375 183.292969 58.652344 184.214844 57.421875 C 189.585938 52.632812 194.996094 48.140625 200.308594 43.535156 C 202.320312 41.789062 202.089844 41.957031 199.523438 40.851562 C 195.628906 39.171875 191.925781 37.054688 188.164062 35.082031 C 187.804688 34.894531 187.609375 34.394531 187.339844 34.042969 C 187.835938 33.832031 188.363281 33.394531 188.824219 33.453125 C 191.652344 33.820312 194.480469 34.21875 197.28125 34.761719 C 199.335938 35.160156 201.34375 35.808594 203.382812 36.308594 C 203.632812 36.371094 204.179688 36.207031 204.179688 36.148438 C 204.179688 35.59375 204.261719 34.933594 203.996094 34.496094 C 203.144531 33.085938 202.109375 31.785156 201.226562 30.386719 C 198.894531 26.691406 196.570312 22.988281 194.339844 19.234375 C 193.910156 18.507812 193.914062 17.527344 193.71875 16.664062 C 194.582031 17.027344 195.644531 17.183594 196.277344 17.789062 C 199.761719 21.136719 203.144531 24.59375 206.5625 28.011719 C 206.976562 28.421875 207.339844 28.90625 207.816406 29.222656 C 208.117188 29.417969 208.585938 29.355469 208.976562 29.40625 C 208.960938 29.066406 209.011719 28.703125 208.921875 28.378906 C 207.816406 24.421875 206.667969 20.476562 205.582031 16.515625 C 205.070312 14.636719 204.609375 12.734375 204.265625 10.820312 C 204.191406 10.40625 204.734375 9.882812 204.992188 9.414062 C 205.566406 9.734375 206.417969 9.914062 206.667969 10.402344 C 207.472656 11.972656 208.0625 13.652344 208.714844 15.296875 C 210.222656 19.089844 211.691406 22.902344 213.246094 26.675781 C 213.539062 27.386719 214.300781 27.902344 214.613281 28.609375 C 214.957031 29.378906 215.105469 30.261719 215.171875 31.109375 C 215.191406 31.355469 214.402344 31.902344 214.375 31.878906 C 213.820312 31.378906 213.289062 30.84375 212.828125 30.257812 C 212.226562 29.503906 211.691406 28.699219 211.125 27.914062 C 211.15625 29.011719 211.203125 30.105469 211.214844 31.199219 C 211.21875 31.882812 211.164062 32.566406 211.136719 33.25 C 210.507812 33.066406 209.722656 33.0625 209.277344 32.667969 C 206.769531 30.441406 204.351562 28.113281 201.875 25.847656 C 201.550781 25.550781 201.0625 25.433594 200.648438 25.234375 C 200.714844 25.753906 200.628906 26.359375 200.871094 26.78125 C 202.769531 30.082031 204.628906 33.417969 206.722656 36.597656 C 207.746094 38.148438 206.832031 38.398438 205.792969 38.371094 C 204.128906 38.328125 202.464844 38.023438 200.816406 37.742188 C 200.222656 37.640625 199.6875 37.148438 199.101562 37.089844 C 198.164062 36.992188 197.203125 37.105469 196.25 37.132812 C 196.953125 37.5625 197.625 38.050781 198.363281 38.40625 C 200.167969 39.277344 202.039062 40.015625 203.789062 40.976562 C 204.128906 41.164062 204.351562 42.460938 204.113281 42.679688 C 194.339844 51.644531 193.589844 51.105469 192.183594 54.65625 C 197.191406 53.085938 201.089844 49.976562 206.03125 49.875 C 206.605469 49.863281 207.457031 49.914062 207.699219 50.265625 C 209.023438 52.191406 203.984375 58.265625 204.273438 65.367188 C 207.949219 62.171875 208.25 56.410156 213 53.75 C 215.113281 52.566406 215 54.644531 219.246094 65.855469 C 219.519531 66.570312 220.136719 67.15625 220.59375 67.800781 C 220.636719 67.039062 220.691406 66.277344 220.71875 65.515625 C 220.878906 60.910156 220.980469 56.304688 221.234375 51.707031 C 221.277344 50.925781 222.136719 49.488281 222.335938 49.535156 C 223.433594 49.800781 224.550781 50.285156 225.453125 50.976562 C 226.253906 51.589844 226.753906 52.589844 227.445312 53.363281 C 227.6875 53.632812 228.113281 53.738281 228.457031 53.921875 C 228.394531 53.523438 228.457031 53.042969 228.257812 52.738281 C 227.179688 51.089844 225.957031 49.53125 224.941406 47.851562 C 224.121094 46.492188 222.714844 44.804688 223.007812 43.609375 C 223.484375 41.65625 225.785156 42.546875 227.351562 42.429688 C 230.113281 42.222656 232.886719 42.15625 235.636719 41.863281 C 236.207031 41.800781 236.695312 41.011719 237.222656 40.558594 C 236.640625 40.34375 236.023438 39.890625 235.472656 39.957031 C 232.339844 40.339844 229.460938 39.386719 226.589844 38.40625 C 224.128906 37.570312 223.726562 36.277344 225.222656 34.175781 C 226.554688 32.300781 227.972656 30.488281 229.257812 28.585938 C 229.597656 28.074219 229.59375 27.328125 229.746094 26.6875 C 229.167969 26.917969 228.488281 27.027344 228.027344 27.398438 C 225.886719 29.121094 223.820312 30.933594 221.691406 32.667969 C 221.320312 32.972656 220.78125 33.070312 220.320312 33.265625 C 220.121094 32.765625 219.699219 32.238281 219.757812 31.769531 C 220.066406 29.335938 220.425781 26.90625 220.910156 24.5 C 221.433594 21.902344 222.144531 19.34375 222.683594 16.746094 C 222.765625 16.355469 222.351562 15.859375 222.164062 15.414062 C 221.851562 15.730469 221.40625 15.992188 221.242188 16.375 C 219.804688 19.695312 218.4375 23.050781 216.984375 26.363281 C 216.753906 26.890625 216.1875 27.269531 215.773438 27.71875 C 215.589844 27.046875 215.097656 26.277344 215.273438 25.714844 C 216.089844 23.066406 217.003906 20.4375 218.050781 17.867188 C 219.179688 15.085938 220.480469 12.375 221.726562 9.640625 C 222.046875 8.9375 222.359375 8.207031 222.828125 7.605469 C 223.15625 7.183594 223.742188 6.964844 224.214844 6.65625 C 224.382812 7.25 224.714844 7.855469 224.691406 8.441406 C 224.59375 11.128906 224.210938 13.8125 224.265625 16.488281 C 224.335938 19.980469 223.941406 23.34375 222.792969 26.644531 C 222.570312 27.28125 222.828125 28.085938 222.867188 28.808594 C 223.445312 28.46875 224.09375 28.207031 224.59375 27.769531 C 227.65625 25.085938 230.703125 22.375 233.730469 19.644531 C 234.644531 18.816406 235.425781 17.832031 236.394531 17.078125 C 236.664062 16.867188 237.484375 17.097656 237.84375 17.382812 C 238.027344 17.527344 237.882812 18.335938 237.65625 18.699219 C 234.324219 24.078125 230.941406 29.421875 227.636719 34.816406 C 227.433594 35.148438 227.648438 36.152344 227.9375 36.296875 C 228.964844 36.796875 230.097656 37.292969 231.21875 37.375 C 234.976562 37.652344 238.746094 37.726562 242.511719 37.9375 C 243.191406 37.976562 243.921875 38.1875 244.496094 38.53125 C 244.699219 38.648438 244.667969 39.753906 244.480469 39.839844 C 240.980469 41.4375 237.507812 43.15625 233.875 44.394531 C 232.269531 44.9375 230.316406 44.433594 228.523438 44.488281 C 227.84375 44.507812 227 44.570312 226.554688 44.972656 C 226.308594 45.199219 226.554688 46.253906 226.863281 46.769531 C 230.449219 52.789062 234.105469 58.773438 237.707031 64.789062 C 238.015625 65.304688 238.132812 65.964844 238.207031 66.574219 C 238.328125 67.515625 238.332031 68.472656 238.386719 69.421875 C 237.5 68.71875 236.457031 68.144531 235.75 67.289062 C 232.070312 62.832031 228.492188 58.300781 224.839844 53.820312 C 224.511719 53.417969 223.9375 53.214844 223.476562 52.921875 C 223.390625 53.46875 223.234375 54.015625 223.234375 54.5625 C 223.210938 58.34375 223.292969 62.125 223.199219 65.902344 C 223.125 68.6875 222.847656 71.46875 222.59375 74.246094 C 222.589844 74.320312 221.550781 74.496094 221.449219 74.335938 C 220.15625 72.300781 218.699219 70.316406 217.78125 68.113281 C 216.386719 64.773438 215.425781 61.253906 214.15625 57.859375 C 214.042969 57.554688 212.585938 57.335938 212.488281 57.507812 C 211.316406 59.507812 209.710938 61.484375 209.328125 63.664062 C 208.191406 70.097656 207.59375 76.628906 206.699219 83.109375 C 206.3125 85.917969 205.648438 88.6875 205.246094 91.496094 C 205.019531 93.078125 205.847656 93.890625 207.515625 93.945312 C 211.28125 94.058594 215.070312 94.050781 218.804688 94.480469 C 223.835938 95.058594 228.828125 95.996094 233.835938 96.792969 C 237.195312 97.328125 240.5625 97.824219 243.90625 98.445312 C 248.074219 99.214844 252.265625 99.910156 256.363281 100.972656 C 262.8125 102.644531 269.265625 104.382812 275.574219 106.507812 C 279.609375 107.867188 283.488281 109.554688 286.851562 112.59375 C 290.894531 116.246094 293.808594 120.621094 296.542969 125.125 C 298.683594 128.644531 298.621094 132.808594 298.054688 136.839844 C 297.726562 139.171875 297.085938 141.460938 296.753906 143.792969 C 296.207031 147.6875 295.726562 151.574219 293.238281 154.847656 C 292.1875 156.230469 291.613281 157.597656 292.136719 159.539062 C 292.601562 161.25 292.234375 163.179688 292.234375 165.015625 C 292.234375 171.347656 292.28125 177.683594 292.210938 184.019531 C 292.183594 186.699219 291.910156 189.382812 291.730469 192.0625 C 291.617188 193.789062 292.1875 193.9375 293.851562 193.515625 C 297.804688 192.511719 301.910156 192.261719 305.777344 193.792969 C 312.410156 196.421875 318.1875 200.578125 323.53125 205.160156 C 327.359375 208.445312 329.820312 212.890625 331.308594 217.894531 C 333.066406 223.796875 334.230469 229.8125 333.621094 235.867188 C 332.976562 242.234375 331.261719 248.433594 326.957031 253.597656 C 326.019531 254.714844 325.453125 256.390625 325.308594 257.871094 C 324.941406 261.613281 324.75 265.394531 324.773438 269.15625 C 324.816406 275.671875 324.492188 282.273438 325.4375 288.675781 C 326.394531 295.144531 324.878906 296.550781 328.550781 299.03125 C 330.015625 300.019531 340.300781 303.917969 347.796875 308.585938 Z M 326.707031 313.585938 C 326.71875 316.601562 326.488281 319.625 326.21875 322.628906 C 325.886719 326.359375 322.554688 327.507812 320 328.882812 C 312.699219 332.816406 304.898438 335.550781 296.816406 337.492188 C 291.679688 338.726562 286.628906 340.382812 281.453125 341.40625 C 276.457031 342.390625 271.339844 342.726562 266.296875 343.496094 C 261.695312 344.199219 257.140625 345.1875 252.539062 345.867188 C 249.898438 346.257812 247.207031 346.332031 244.53125 346.460938 C 240.183594 346.671875 235.835938 346.835938 231.484375 346.96875 C 219.957031 347.316406 208.425781 347.859375 196.894531 347.902344 C 188.363281 347.9375 179.832031 347.316406 171.304688 346.96875 C 167.789062 346.828125 164.269531 346.691406 160.757812 346.464844 C 153.628906 346 146.503906 345.480469 139.375 344.96875 C 137.527344 344.835938 135.671875 344.695312 133.832031 344.464844 C 127.339844 343.65625 120.855469 342.792969 114.363281 341.984375 C 112.523438 341.753906 110.664062 341.683594 108.820312 341.464844 C 104.859375 340.992188 100.890625 340.535156 96.941406 339.953125 C 94.0625 339.527344 91.171875 339.0625 88.359375 338.339844 C 83.101562 336.992188 77.859375 335.558594 72.683594 333.933594 C 68.347656 332.578125 64.003906 331.132812 59.859375 329.289062 C 56.261719 327.683594 53.003906 325.339844 49.472656 323.566406 C 46.804688 322.230469 46.386719 319.789062 46.253906 317.429688 C 45.730469 308.027344 46.34375 304.625 44.507812 303.878906 C 43.511719 303.46875 34.9375 307.316406 31.738281 309.007812 C 27.6875 311.152344 23.855469 313.539062 20.914062 317.335938 C 18.316406 320.695312 19.121094 325.980469 21.808594 328.804688 C 25.234375 332.398438 29.300781 335.089844 33.910156 336.988281 C 38.609375 338.921875 43.152344 341.308594 47.964844 342.878906 C 53.28125 344.613281 58.816406 345.699219 64.28125 346.957031 C 70.382812 348.363281 76.480469 349.808594 82.632812 350.921875 C 87.730469 351.84375 92.914062 352.257812 98.046875 352.988281 C 103.460938 353.761719 108.851562 354.699219 114.269531 355.449219 C 116.597656 355.773438 118.960938 355.796875 121.308594 355.980469 C 125.507812 356.304688 129.695312 356.75 133.898438 356.949219 C 139.574219 357.222656 145.296875 356.960938 150.9375 357.539062 C 170.789062 359.5625 190.675781 358.027344 210.539062 358.40625 C 216.394531 358.519531 222.269531 357.859375 228.125 357.464844 C 234.589844 357.023438 241.054688 356.535156 247.507812 355.960938 C 254.15625 355.367188 260.808594 354.769531 267.429688 353.941406 C 274.117188 353.101562 280.792969 352.101562 287.4375 350.941406 C 295.257812 349.578125 303.179688 348.480469 310.796875 346.347656 C 320.59375 343.605469 330.242188 340.226562 339.734375 336.5625 C 344.265625 334.808594 348.492188 332.039062 351.769531 328.195312 C 354.996094 324.414062 355.320312 320.136719 351.78125 316.234375 C 350.445312 314.761719 346.527344 310.441406 330.464844 303.386719 C 324.535156 300.78125 326.675781 306.53125 326.707031 313.585938 Z M 168.710938 104.179688 C 168.628906 102.503906 168.371094 101.96875 166.582031 103.179688 C 164.511719 104.574219 162.128906 105.707031 159.722656 106.34375 C 156.953125 107.074219 156.296875 107.5 156.6875 109.933594 C 156.867188 111.050781 156.816406 112.207031 156.871094 113.34375 C 157.8125 112.875 158.71875 112.308594 159.703125 111.953125 C 161.722656 111.21875 163.789062 110.617188 165.828125 109.925781 C 167.414062 109.386719 168.273438 108.320312 168.226562 106.566406 C 168.210938 105.855469 168.378906 105.140625 168.710938 104.179688 Z M 161.460938 116.433594 C 162.136719 116.265625 162.859375 116.199219 163.480469 115.914062 C 164.875 115.269531 166.269531 114.597656 167.550781 113.765625 C 167.941406 113.507812 167.957031 112.679688 168.144531 112.113281 C 167.578125 112.226562 166.988281 112.273438 166.449219 112.460938 C 164.640625 113.089844 162.84375 113.753906 161.058594 114.441406 C 160.257812 114.75 159.492188 115.152344 158.710938 115.511719 C 159.460938 115.816406 160.210938 116.125 161.460938 116.433594 Z M 255.976562 200.949219 C 252.351562 201.449219 248.734375 202.019531 245.097656 202.429688 C 241.328125 202.851562 237.542969 203.113281 233.765625 203.449219 C 226.292969 204.113281 218.832031 205.101562 211.34375 205.382812 C 195.53125 205.976562 179.742188 205.070312 163.972656 203.953125 C 161.375 203.765625 158.757812 203.753906 156.183594 203.421875 C 150.433594 202.675781 144.710938 201.742188 138.964844 200.960938 C 133.667969 200.238281 128.292969 199.921875 123.0625 198.875 C 115.269531 197.320312 107.539062 195.398438 99.839844 193.40625 C 94.90625 192.128906 90.027344 190.582031 85.214844 188.894531 C 82.390625 187.902344 81.710938 188.164062 81.699219 191.265625 C 81.683594 196.511719 81.820312 201.765625 81.65625 207.011719 C 81.535156 210.859375 82.769531 211.753906 86.109375 212.972656 C 96.558594 216.78125 107.460938 218.765625 118.3125 220.894531 C 125 222.207031 131.789062 223.078125 138.558594 223.914062 C 144.160156 224.605469 149.796875 225.097656 155.433594 225.414062 C 161.519531 225.753906 167.625 225.808594 173.722656 225.945312 C 176.46875 226.003906 179.226562 225.839844 181.96875 225.984375 C 186.335938 226.214844 190.691406 226.863281 195.054688 226.878906 C 198.832031 226.898438 202.605469 226.097656 206.390625 225.992188 C 214.453125 225.761719 222.511719 226.15625 230.535156 224.546875 C 236.328125 223.390625 242.324219 223.3125 248.175781 222.394531 C 253.589844 221.550781 258.984375 220.441406 264.292969 219.074219 C 271.492188 217.21875 278.625 215.09375 285.714844 212.855469 C 286.757812 212.527344 288.070312 210.957031 288.121094 209.90625 C 288.371094 204.753906 288.265625 199.582031 288.207031 194.417969 C 288.199219 193.355469 287.972656 192.378906 286.441406 193.40625 C 285.378906 194.121094 284.09375 194.636719 282.835938 194.917969 C 273.976562 196.890625 265.101562 198.78125 255.976562 200.949219 Z M 207.96875 361.976562 C 192.039062 361.8125 176.109375 361.714844 160.179688 361.4375 C 154.648438 361.339844 149.140625 361.835938 143.5625 360.636719 C 139.132812 359.679688 134.394531 360.21875 129.804688 359.953125 C 125.9375 359.734375 122.082031 359.308594 118.21875 358.980469 C 116.125 358.796875 114.011719 358.75 111.9375 358.4375 C 106.9375 357.679688 101.960938 356.746094 96.960938 355.996094 C 93.015625 355.402344 89.019531 355.125 85.09375 354.4375 C 80.3125 353.597656 75.558594 352.566406 70.835938 351.453125 C 63.558594 349.742188 56.222656 348.1875 49.089844 346 C 43.441406 344.265625 38.0625 341.660156 32.546875 339.496094 C 31.730469 339.175781 30.804688 339.144531 29.929688 338.980469 C 30.574219 339.644531 31.121094 340.46875 31.882812 340.949219 C 38.917969 345.394531 46.582031 348.441406 54.460938 351.003906 C 58.9375 352.460938 63.34375 354.164062 67.871094 355.429688 C 73.347656 356.960938 78.914062 358.160156 84.449219 359.472656 C 88.097656 360.335938 91.742188 361.230469 95.417969 361.953125 C 99.214844 362.699219 103.042969 363.285156 106.867188 363.886719 C 110.476562 364.457031 114.09375 364.984375 117.714844 365.457031 C 118.777344 365.597656 119.894531 365.347656 120.957031 365.507812 C 126.199219 366.289062 131.417969 367.277344 136.679688 367.941406 C 141.949219 368.609375 147.25 369.085938 152.554688 369.453125 C 161.089844 370.046875 169.636719 370.90625 178.179688 370.890625 C 195.207031 370.859375 212.253906 371.746094 229.265625 370.035156 C 234.492188 369.507812 239.792969 369.726562 245.050781 369.449219 C 248.335938 369.277344 251.617188 368.878906 254.886719 368.464844 C 259.699219 367.855469 264.5 367.128906 269.308594 366.484375 C 273.179688 365.960938 277.089844 365.640625 280.925781 364.9375 C 286.472656 363.925781 292 362.78125 297.476562 361.445312 C 305.402344 359.511719 313.441406 357.839844 321.121094 355.15625 C 328.363281 352.625 335.355469 349.226562 342.167969 345.660156 C 347.839844 342.695312 352.597656 338.449219 355.152344 332.285156 C 355.34375 331.832031 355.230469 331.253906 355.253906 330.730469 C 354.570312 330.914062 353.582031 330.863281 353.242188 331.308594 C 349.980469 335.597656 345.316406 338.027344 340.664062 340.148438 C 334.792969 342.828125 328.617188 344.878906 322.480469 346.929688 C 317.777344 348.5 312.972656 349.792969 308.144531 350.925781 C 304.308594 351.832031 300.367188 352.261719 296.488281 352.988281 C 291.394531 353.941406 286.335938 355.132812 281.21875 355.929688 C 276.628906 356.648438 271.964844 356.902344 267.351562 357.496094 C 261.4375 358.253906 255.566406 359.492188 249.632812 359.882812 C 243.078125 360.3125 236.542969 360.554688 229.992188 361.328125 C 222.890625 362.164062 215.648438 361.8125 207.96875 361.976562 Z M 155.960938 80.425781 C 155.875 81.890625 155.738281 83.355469 155.761719 84.816406 C 155.765625 85.058594 156.632812 85.582031 156.84375 85.476562 C 159.742188 84.011719 162.597656 82.472656 165.453125 80.929688 C 167.140625 80.015625 167.925781 76.871094 166.886719 75.347656 C 166.152344 74.261719 165.445312 74.789062 164.609375 75.25 C 162.582031 76.363281 160.480469 77.339844 158.457031 78.460938 C 157.640625 78.914062 156.953125 79.597656 155.960938 80.425781 Z M 106.449219 162.941406 C 103.851562 163.707031 101.292969 164.894531 98.644531 165.144531 C 93.902344 165.597656 88.882812 166.683594 84.941406 162.488281 C 84.375 161.886719 83.457031 161.613281 82.703125 161.1875 C 82.699219 161.964844 82.699219 162.742188 82.695312 163.519531 C 82.695312 163.933594 82.695312 164.351562 82.695312 164.769531 C 82.695312 170.6875 82.757812 176.601562 82.65625 182.519531 C 82.625 184.269531 83.328125 185.320312 84.800781 185.929688 C 86.578125 186.664062 88.367188 187.449219 90.222656 187.914062 C 95.746094 189.304688 101.289062 190.628906 106.855469 191.820312 C 111.46875 192.8125 116.125 193.625 120.777344 194.433594 C 124.988281 195.164062 129.226562 195.742188 133.441406 196.457031 C 138.105469 197.246094 142.734375 198.246094 147.414062 198.910156 C 152.101562 199.578125 156.820312 200.070312 161.539062 200.421875 C 169.660156 201.019531 177.785156 201.761719 185.917969 201.878906 C 200.554688 202.097656 215.214844 202.347656 229.796875 200.464844 C 233.308594 200.011719 236.855469 199.8125 240.378906 199.4375 C 242.996094 199.15625 245.617188 198.855469 248.214844 198.429688 C 251.867188 197.832031 255.5 197.128906 259.136719 196.445312 C 263 195.714844 266.886719 195.097656 270.707031 194.179688 C 275.304688 193.074219 279.804688 191.546875 284.414062 190.5 C 287.824219 189.722656 288.234375 189.515625 288.234375 186.003906 C 288.234375 184.835938 288.085938 183.644531 288.261719 182.507812 C 288.777344 179.207031 288.378906 178.960938 284.996094 179.890625 C 279.671875 181.351562 274.304688 182.699219 268.917969 183.917969 C 263.261719 185.203125 257.582031 186.417969 251.863281 187.394531 C 248.300781 188.003906 244.652344 188.148438 241.035156 188.410156 C 240.476562 188.449219 239.886719 188.003906 239.3125 187.785156 C 239.820312 187.335938 240.261719 186.652344 240.847656 186.496094 C 242.066406 186.164062 243.367188 186.136719 244.625 185.941406 C 247.359375 185.511719 250.105469 185.144531 252.816406 184.582031 C 258.40625 183.429688 263.929688 181.835938 269.566406 181.03125 C 275.804688 180.140625 281.800781 178.542969 287.667969 176.378906 C 288.355469 176.125 289.140625 175 289.164062 174.253906 C 289.304688 170.007812 289.238281 165.753906 289.230469 161.503906 C 289.226562 160.03125 288.730469 159.722656 287.292969 160.394531 C 285.765625 161.105469 284.089844 161.71875 282.433594 161.886719 C 278.625 162.261719 275.234375 160.652344 271.785156 159.292969 C 268.558594 158.023438 265.285156 156.515625 261.90625 156.054688 C 255.503906 155.179688 249.496094 156.996094 244.027344 160.410156 C 239.957031 162.953125 236.046875 165.523438 230.859375 165.523438 C 224.347656 165.523438 219.207031 162.269531 213.890625 159.332031 C 209.777344 157.054688 205.320312 154.890625 200.777344 155.613281 C 192.699219 156.894531 185.261719 160.292969 178.417969 164.921875 C 175.601562 166.824219 172.660156 169.003906 169.464844 169.765625 C 165.105469 170.804688 160.445312 170.539062 155.925781 170.96875 C 153.335938 171.21875 150.882812 170.59375 148.890625 169.253906 C 145.058594 166.675781 141.554688 163.617188 137.847656 160.851562 C 132.222656 156.664062 126.039062 153.945312 119.046875 156.546875 C 114.808594 158.125 110.96875 160.773438 106.449219 162.941406 Z M 155.710938 89.679688 C 155.824219 89.960938 155.96875 90.238281 156.054688 90.527344 C 156.429688 91.824219 156.789062 93.128906 157.15625 94.429688 C 158.386719 93.800781 159.625 93.1875 160.84375 92.539062 C 163.019531 91.382812 165.273438 90.347656 167.3125 88.992188 C 168.613281 88.125 168.664062 85.074219 167.480469 84.007812 C 166.09375 82.75 165.328125 84.234375 164.390625 84.964844 C 163.855469 85.378906 163.183594 85.625 162.558594 85.925781 C 160.28125 87.015625 157.992188 88.09375 155.710938 89.679688 Z M 164.960938 55.421875 C 162.230469 57.652344 159.523438 59.90625 156.765625 62.101562 C 155.285156 63.277344 153.988281 65.863281 155.253906 67.488281 C 155.539062 67.851562 156.578125 68.050781 156.980469 67.820312 C 158.472656 66.96875 159.832031 65.878906 161.269531 64.929688 C 165.679688 62.011719 166.753906 59.515625 164.960938 55.421875 Z M 165.710938 93.679688 C 163.9375 94.59375 162.246094 95.78125 160.367188 96.375 C 156.242188 97.671875 156.203125 97.546875 156.210938 101.734375 C 156.210938 102.066406 156.175781 102.402344 156.214844 102.730469 C 156.367188 103.984375 156.414062 105.261719 158.175781 103.78125 C 158.96875 103.121094 160.097656 102.855469 161.082031 102.433594 C 167.359375 99.722656 168.71875 99.453125 168.210938 94.386719 C 168.148438 93.75 168.078125 93.117188 168.011719 92.480469 C 167.328125 92.796875 166.644531 93.113281 165.710938 93.679688 Z M 318.738281 309.71875 C 314.796875 311.46875 310.960938 313.519531 306.898438 314.910156 C 295.507812 318.816406 284.019531 322.398438 272.117188 324.503906 C 264.707031 325.816406 257.402344 327.773438 249.964844 328.882812 C 242.800781 329.953125 235.546875 330.636719 228.308594 330.890625 C 218.792969 331.222656 209.257812 331.035156 199.730469 330.953125 C 191.050781 330.875 182.371094 330.71875 173.691406 330.445312 C 167.496094 330.25 161.304688 329.804688 155.109375 329.472656 C 154.945312 329.464844 154.773438 329.488281 154.609375 329.46875 C 148.804688 328.804688 142.992188 328.171875 137.195312 327.457031 C 133.964844 327.058594 130.753906 326.519531 127.53125 326.050781 C 123.917969 325.519531 120.296875 325.039062 116.691406 324.460938 C 112.5625 323.796875 108.433594 323.105469 104.324219 322.324219 C 101.566406 321.796875 98.847656 321.066406 96.097656 320.476562 C 92.117188 319.617188 88.09375 318.929688 84.144531 317.9375 C 79.414062 316.742188 74.746094 315.289062 70.046875 313.972656 C 62.945312 311.976562 56.074219 309.457031 49.851562 305.390625 C 49.472656 305.144531 49.03125 304.984375 48.621094 304.785156 C 48.476562 305.308594 48.195312 305.835938 48.210938 306.355469 C 48.335938 309.953125 48.476562 313.554688 48.710938 317.148438 C 48.824219 318.90625 49.089844 320.707031 50.769531 321.777344 C 52.007812 322.566406 53.269531 323.367188 54.617188 323.945312 C 59.351562 325.988281 64.027344 328.25 68.914062 329.839844 C 75.546875 332 82.304688 333.820312 89.101562 335.402344 C 93.570312 336.441406 98.203125 336.757812 102.75 337.488281 C 107.582031 338.261719 112.367188 339.371094 117.21875 339.921875 C 124.921875 340.785156 132.65625 341.335938 140.382812 341.964844 C 147.003906 342.503906 153.628906 343.007812 160.257812 343.460938 C 165.863281 343.847656 171.476562 344.203125 177.089844 344.457031 C 182.515625 344.703125 187.949219 344.96875 193.378906 344.941406 C 205.058594 344.882812 216.738281 344.640625 228.417969 344.476562 C 228.664062 344.472656 228.917969 344.496094 229.164062 344.472656 C 236.902344 343.640625 244.640625 342.824219 252.375 341.96875 C 256.585938 341.5 260.8125 341.109375 264.988281 340.417969 C 270.019531 339.585938 275.015625 338.527344 280.003906 337.457031 C 286.726562 336.015625 293.515625 334.777344 300.109375 332.882812 C 306.394531 331.078125 312.519531 328.671875 318.613281 326.277344 C 322.171875 324.882812 324.703125 322.5625 323.792969 318.0625 C 323.457031 316.382812 323.742188 314.574219 323.742188 312.824219 C 323.742188 307.441406 323.742188 307.441406 318.738281 309.71875 Z M 157.460938 70.421875 C 155.976562 71.3125 154.859375 74.183594 155.753906 75.609375 C 157.140625 77.820312 157.652344 74.863281 158.734375 74.921875 C 158.898438 74.933594 159.082031 74.96875 159.230469 74.917969 C 164.75 72.929688 166.839844 70.410156 166.703125 65.902344 C 166.691406 65.429688 166.585938 64.957031 166.523438 64.484375 C 166.0625 64.738281 165.582031 64.957031 165.148438 65.246094 C 162.660156 66.878906 160.1875 68.527344 157.460938 70.421875 Z M 118.453125 129.433594 C 116.339844 129.101562 114.214844 128.828125 112.117188 128.421875 C 106.261719 127.289062 100.289062 126.511719 94.601562 124.804688 C 89.8125 123.371094 85.324219 120.910156 81.855469 116.980469 C 81.5 116.578125 79.785156 116.75 79.246094 117.246094 C 77.035156 119.292969 75.917969 122.035156 75.742188 124.988281 C 75.535156 128.503906 75.675781 132.042969 75.699219 135.570312 C 75.738281 142.523438 77.539062 149.070312 81.792969 154.507812 C 85.238281 158.914062 88.976562 163.15625 95.945312 162.082031 C 101.804688 161.175781 107.125 159.328125 112.070312 156.277344 C 117.929688 152.660156 124.371094 151.640625 130.671875 153.640625 C 135 155.015625 139.148438 157.800781 142.628906 160.820312 C 148.160156 165.617188 153.988281 169.003906 161.464844 167.867188 C 165.5 167.253906 169.554688 166.660156 173.238281 164.300781 C 178.25 161.085938 183.492188 158.152344 188.894531 155.664062 C 192.371094 154.0625 196.261719 153.039062 200.066406 152.53125 C 207.347656 151.566406 213.441406 155.167969 219.550781 158.484375 C 222.914062 160.3125 226.351562 161.878906 230.367188 162.003906 C 233.796875 162.113281 236.625 160.617188 239.53125 159.324219 C 242.703125 157.914062 245.613281 155.867188 248.851562 154.664062 C 254.242188 152.652344 259.820312 151.972656 265.480469 153.917969 C 269.351562 155.246094 273.257812 156.5 277.191406 157.625 C 284.90625 159.832031 290.554688 154.597656 292.214844 147.855469 C 293 144.660156 293.683594 141.429688 294.191406 138.183594 C 294.554688 135.871094 294.910156 133.457031 294.632812 131.167969 C 294.09375 126.726562 291.5625 123.078125 289.042969 119.511719 C 287.214844 116.925781 285.414062 116.558594 282.527344 117.921875 C 280.996094 118.644531 279.464844 119.417969 277.851562 119.90625 C 271.546875 121.804688 265.242188 123.710938 258.878906 125.386719 C 255.761719 126.207031 252.503906 126.484375 249.328125 127.097656 C 245.558594 127.828125 241.835938 128.839844 238.039062 129.386719 C 233.191406 130.082031 228.300781 130.488281 223.417969 130.921875 C 215.367188 131.636719 207.308594 132.804688 199.25 132.832031 C 177.785156 132.902344 156.289062 133.769531 134.871094 131.457031 C 131.792969 131.125 128.660156 131.242188 125.585938 130.886719 C 123.347656 130.628906 121.160156 129.933594 118.453125 129.433594 Z M 84.195312 146.4375 C 82.664062 142.28125 80.429688 138.617188 80.660156 134.144531 C 80.890625 129.679688 84.203125 127.605469 88.234375 129.398438 C 92.167969 131.152344 96.207031 132.675781 100.246094 134.175781 C 101.195312 134.527344 102.347656 134.285156 103.378906 134.46875 C 103.855469 134.554688 104.261719 135.019531 104.699219 135.3125 C 104.34375 135.6875 104.054688 136.277344 103.625 136.402344 C 99.546875 137.582031 95.597656 136.996094 91.792969 135.261719 C 90.320312 134.585938 88.933594 133.726562 87.488281 132.984375 C 85.878906 132.160156 84.449219 132.871094 84.769531 134.628906 C 85.542969 138.839844 86.6875 142.980469 87.707031 147.140625 C 87.828125 147.636719 88.109375 148.09375 88.316406 148.570312 C 87.640625 148.636719 86.800781 148.988281 86.320312 148.714844 C 85.496094 148.242188 84.894531 147.382812 84.195312 146.4375 Z M 281.605469 142.3125 C 284.757812 139.589844 284.777344 136.257812 283.511719 133.019531 C 283.265625 132.390625 282.535156 131.933594 281.988281 131.441406 C 281.601562 131.09375 281.152344 130.816406 280.734375 130.507812 C 281.128906 130.003906 281.535156 129.066406 281.914062 129.078125 C 283.214844 129.125 284.878906 129.074219 285.738281 129.824219 C 289.875 133.4375 290.058594 140.898438 285.898438 144.410156 C 281.519531 148.101562 276.410156 149.890625 270.492188 148.488281 C 265.609375 147.332031 260.695312 145.835938 255.742188 145.605469 C 250.691406 145.375 245.40625 145.902344 241.234375 149.640625 C 241.039062 149.8125 240.296875 149.765625 240.269531 149.667969 C 240.125 149.242188 239.9375 148.519531 240.144531 148.339844 C 241.519531 147.144531 242.824219 145.613281 244.453125 145.011719 C 251.6875 142.34375 258.96875 142.484375 266.511719 144.285156 C 271.464844 145.464844 276.886719 146.144531 281.605469 142.3125 Z M 155.710938 58.171875 C 155.882812 58.84375 156.058594 59.519531 156.230469 60.195312 C 156.757812 59.816406 157.316406 59.476562 157.808594 59.058594 C 159.230469 57.863281 160.625 56.636719 162.027344 55.417969 C 162.371094 55.121094 162.699219 54.804688 163.035156 54.496094 C 162.535156 54.304688 162.042969 53.984375 161.53125 53.941406 C 159.234375 53.753906 156.730469 55.394531 155.710938 58.171875 Z M 191.964844 97.429688 C 186.132812 97.429688 180.300781 97.476562 174.46875 97.402344 C 172.464844 97.378906 171.644531 98.132812 171.6875 100.152344 C 171.769531 104.066406 171.734375 107.984375 171.703125 111.902344 C 171.6875 114.273438 169.429688 118.113281 167.515625 118.292969 C 164.1875 118.597656 160.679688 119 157.503906 118.261719 C 154.464844 117.558594 152.980469 115.6875 153.164062 112.535156 C 153.363281 109.046875 153.035156 105.527344 153.261719 102.042969 C 153.445312 99.214844 152.535156 98.195312 149.589844 98.464844 C 145.785156 98.8125 142.007812 99.445312 138.210938 99.925781 C 132.824219 100.605469 127.332031 100.816406 122.066406 102.03125 C 113.617188 103.984375 105.269531 106.449219 96.96875 108.992188 C 92.640625 110.316406 88.496094 112.25 84.277344 113.9375 C 82.710938 114.566406 82.695312 115.542969 84.007812 116.410156 C 86.152344 117.824219 88.273438 119.363281 90.609375 120.378906 C 96.0625 122.75 101.660156 124.507812 107.707031 125.039062 C 113.417969 125.542969 119.019531 127.207031 124.726562 127.863281 C 131.652344 128.660156 138.632812 128.972656 145.59375 129.417969 C 149.519531 129.671875 153.453125 129.929688 157.382812 129.902344 C 169.3125 129.820312 181.246094 129.265625 193.164062 129.542969 C 202.535156 129.757812 211.734375 128.164062 221.039062 127.894531 C 224.324219 127.800781 227.597656 127.285156 230.871094 126.925781 C 232.289062 126.765625 233.707031 126.558594 235.105469 126.289062 C 238.1875 125.699219 241.261719 125.054688 244.335938 124.433594 C 249.40625 123.40625 254.550781 122.644531 259.539062 121.296875 C 267.226562 119.21875 274.808594 116.742188 282.429688 114.417969 C 282.863281 114.285156 283.246094 113.984375 283.652344 113.761719 C 283.320312 113.484375 283.03125 113.105469 282.648438 112.949219 C 280.65625 112.128906 278.671875 111.261719 276.625 110.601562 C 272.136719 109.152344 267.640625 107.707031 263.097656 106.460938 C 258.441406 105.179688 253.742188 104.050781 249.027344 103.011719 C 244.65625 102.046875 240.265625 101.125 235.839844 100.472656 C 231.160156 99.78125 226.433594 99.410156 221.71875 98.933594 C 216.597656 98.414062 211.476562 97.855469 206.339844 97.519531 C 205.675781 97.476562 204.414062 98.582031 204.300781 99.292969 C 203.480469 104.492188 202.917969 109.730469 202.1875 114.945312 C 202.050781 115.910156 201.683594 116.96875 201.082031 117.703125 C 200.679688 118.191406 199.4375 118.578125 198.996094 118.308594 C 198.367188 117.929688 197.695312 116.847656 197.789062 116.171875 C 198.304688 112.425781 199.070312 108.71875 199.707031 104.988281 C 199.9375 103.652344 199.824219 102.214844 200.265625 100.96875 C 201.09375 98.644531 200.496094 97.527344 197.964844 97.441406 C 196.132812 97.378906 194.300781 97.429688 191.964844 97.429688 Z M 171.210938 32.167969 C 169.09375 26.214844 166.9375 20.273438 164.890625 14.300781 C 164.460938 13.046875 164.523438 11.628906 164.164062 10.34375 C 164.011719 9.792969 163.363281 9.386719 162.941406 8.914062 C 162.695312 9.382812 162.40625 9.835938 162.21875 10.332031 C 161.453125 12.347656 160.949219 14.5 159.929688 16.375 C 157.296875 21.214844 154.519531 25.980469 151.65625 30.6875 C 147.476562 37.554688 152.632812 47.726562 157.597656 51.992188 C 157.738281 52.113281 158.671875 51.648438 158.652344 51.542969 C 158.554688 50.863281 158.335938 50.191406 158.078125 49.546875 C 156.777344 46.28125 156.746094 43.132812 158.402344 39.902344 C 159.414062 37.929688 159.898438 35.695312 160.746094 33.632812 C 161.015625 32.972656 161.703125 32.484375 162.199219 31.917969 C 162.703125 32.476562 163.484375 32.957031 163.65625 33.605469 C 164.144531 35.425781 164.492188 37.300781 164.6875 39.175781 C 165.035156 42.535156 165.804688 45.941406 163.808594 49.136719 C 163.496094 49.640625 163.730469 50.484375 163.710938 51.171875 C 164.78125 51.101562 165.890625 51.179688 166.898438 50.894531 C 167.363281 50.765625 167.621094 49.921875 167.980469 49.402344 C 171.507812 44.296875 172.648438 38.730469 171.210938 32.167969 Z M 283.609375 240.332031 C 280.003906 241.605469 277.570312 243.960938 275.695312 247.039062 C 275.273438 247.734375 274.386719 248.144531 273.714844 248.691406 C 273.6875 247.730469 273.308594 246.601562 273.683594 245.835938 C 276.234375 240.636719 280.746094 237.972656 286.144531 236.429688 C 290.28125 235.246094 294.238281 236.363281 298.171875 237.21875 C 301.628906 237.96875 304.964844 239.273438 308.359375 240.324219 C 312.5625 241.628906 315.410156 239.910156 316.207031 235.449219 C 316.550781 233.550781 316.816406 231.574219 316.648438 229.671875 C 316.546875 228.558594 315.578125 227.492188 314.910156 226.464844 C 314.644531 226.0625 314.136719 225.816406 313.738281 225.5 C 314.285156 225.152344 314.804688 224.554688 315.382812 224.496094 C 318.472656 224.164062 319.925781 224.96875 320.695312 227.910156 C 321.863281 232.359375 321.734375 236.777344 319.125 240.800781 C 317.230469 243.71875 312.21875 244.921875 308.109375 243.582031 C 303.703125 242.152344 299.289062 240.746094 294.875 239.347656 C 291.050781 238.140625 287.308594 238.121094 283.609375 240.332031 Z M 131.679688 308.945312 C 128.648438 308.691406 125.628906 308.308594 122.605469 307.964844 C 116.800781 307.304688 111.003906 306.613281 105.203125 305.972656 C 101.765625 305.597656 98.320312 305.3125 94.878906 304.964844 C 92.648438 304.734375 90.425781 304.46875 88.070312 304.09375 C 82.949219 302.964844 77.933594 302.054688 72.964844 300.929688 C 61.289062 298.296875 61.179688 296.679688 61.109375 295.644531 C 61.007812 294.210938 67.023438 296.609375 76.875 298.953125 C 79.914062 299.679688 82.960938 300.386719 86.035156 300.941406 C 89.390625 301.546875 92.769531 302.007812 96.148438 302.457031 C 100.265625 303 104.390625 303.457031 108.511719 303.96875 C 113.8125 304.625 119.105469 305.359375 124.417969 305.949219 C 137.589844 307.402344 139.1875 306.398438 142.535156 307.203125 C 141.8125 307.699219 139.117188 309.5625 131.679688 308.945312 Z M 250.664062 306.914062 C 256.828125 306.296875 262.945312 305.253906 269.09375 304.488281 C 269.269531 304.46875 278.640625 303.640625 280.742188 304.285156 C 280.175781 304.628906 277.289062 306.367188 272.902344 306.941406 C 269.722656 307.355469 266.527344 307.636719 263.339844 307.96875 C 256.800781 308.636719 250.261719 309.320312 243.714844 309.949219 C 235.265625 310.765625 231.777344 309.132812 230.84375 308.691406 C 238.167969 306.558594 241.523438 307.824219 250.664062 306.914062 Z M 57.316406 237.578125 C 59.628906 237.121094 61.808594 236.710938 64.007812 236.511719 C 64.539062 236.460938 65.128906 237.117188 65.691406 237.445312 C 65.21875 237.785156 64.78125 238.203125 64.261719 238.441406 C 61.394531 239.742188 58.585938 241.230469 55.613281 242.214844 C 50.523438 243.898438 45.445312 241.589844 43.695312 236.542969 C 43.027344 234.625 43.609375 232.199219 43.964844 230.058594 C 44.042969 229.570312 45.542969 229.316406 46.390625 228.953125 C 46.488281 229.675781 46.832031 230.472656 46.648438 231.117188 C 45.363281 235.660156 49.308594 239.503906 54.261719 238.449219 C 55.246094 238.238281 56.214844 237.957031 57.316406 237.578125 Z M 57.316406 237.578125 " fill-opacity="1" fill-rule="evenodd"/></svg>