<svg xmlns="http://www.w3.org/2000/svg" xmlns:xlink="http://www.w3.org/1999/xlink" width="500" zoomAndPan="magnify" viewBox="0 0 375 374.999991" height="500" preserveAspectRatio="xMidYMid meet" version="1.0"><defs><clipPath id="2aa02a076f"><path d="M 18.75 15.480469 L 356.25 15.480469 L 356.25 374.730469 L 18.75 374.730469 Z M 18.75 15.480469 " clip-rule="nonzero"/></clipPath></defs><g clip-path="url(#2aa02a076f)"><path fill="#000000" d="M 339.21875 366.585938 L 339.21875 293.675781 L 318.148438 259.953125 L 318.148438 199.554688 L 233.878906 157.417969 L 233.878906 116.144531 L 191.742188 74.007812 L 191.742188 42.875 L 208.566406 42.875 L 208.566406 34.460938 L 191.742188 34.460938 L 191.742188 15.480469 L 183.328125 15.480469 L 183.328125 34.460938 L 166.503906 34.460938 L 166.503906 42.875 L 183.328125 42.875 L 183.328125 73.9375 L 141.121094 116.144531 L 141.121094 157.417969 L 56.851562 199.554688 L 56.851562 259.953125 L 35.78125 293.675781 L 35.78125 366.515625 L 18.886719 366.515625 L 18.886719 375 L 356.113281 375 L 356.113281 366.585938 Z M 56.851562 366.585938 L 44.195312 366.585938 L 44.195312 296.121094 L 56.851562 275.914062 Z M 112.648438 366.585938 L 93.664062 366.585938 L 93.664062 336.027344 C 93.664062 330.777344 97.90625 326.535156 103.15625 326.535156 C 108.40625 326.535156 112.648438 330.777344 112.648438 336.027344 Z M 141.121094 366.585938 L 118.976562 366.585938 L 118.976562 336.027344 C 118.976562 327.328125 111.855469 320.207031 103.15625 320.207031 C 94.457031 320.207031 87.335938 327.328125 87.335938 336.027344 L 87.335938 366.585938 L 65.261719 366.585938 L 65.261719 204.800781 L 141.121094 166.835938 Z M 209.644531 366.585938 L 165.355469 366.585938 L 165.355469 320.207031 C 165.355469 307.984375 175.277344 298.0625 187.5 298.0625 C 199.722656 298.0625 209.644531 307.984375 209.644531 320.207031 Z M 225.464844 366.585938 L 215.972656 366.585938 L 215.972656 320.207031 C 215.972656 304.53125 203.175781 291.734375 187.5 291.734375 C 171.824219 291.734375 159.027344 304.53125 159.027344 320.207031 L 159.027344 366.585938 L 149.535156 366.585938 L 149.535156 119.597656 L 187.5 81.632812 L 225.464844 119.597656 Z M 281.261719 366.585938 L 262.28125 366.585938 L 262.28125 336.027344 C 262.28125 330.777344 266.523438 326.535156 271.769531 326.535156 C 277.019531 326.535156 281.261719 330.777344 281.261719 336.027344 Z M 309.738281 366.585938 L 287.589844 366.585938 L 287.589844 336.027344 C 287.589844 327.328125 280.472656 320.207031 271.769531 320.207031 C 263.070312 320.207031 255.953125 327.328125 255.953125 336.027344 L 255.953125 366.585938 L 233.878906 366.585938 L 233.878906 166.835938 L 309.738281 204.800781 Z M 330.804688 366.585938 L 318.148438 366.585938 L 318.148438 275.914062 L 330.804688 296.121094 Z M 287.589844 214.796875 C 287.589844 206.097656 280.472656 198.976562 271.769531 198.976562 C 263.070312 198.976562 255.953125 206.097656 255.953125 214.796875 L 255.953125 268.582031 L 287.589844 268.582031 Z M 281.261719 262.253906 L 262.28125 262.253906 L 262.28125 214.796875 C 262.28125 209.546875 266.523438 205.304688 271.769531 205.304688 C 277.019531 205.304688 281.261719 209.546875 281.261719 214.796875 Z M 118.976562 214.796875 C 118.976562 206.097656 111.855469 198.976562 103.15625 198.976562 C 94.457031 198.976562 87.335938 206.097656 87.335938 214.796875 L 87.335938 268.582031 L 118.976562 268.582031 Z M 112.648438 262.253906 L 93.664062 262.253906 L 93.664062 214.796875 C 93.664062 209.546875 97.90625 205.304688 103.15625 205.304688 C 108.40625 205.304688 112.648438 209.546875 112.648438 214.796875 Z M 190.878906 231.046875 L 204.398438 231.046875 L 204.398438 237.804688 L 190.878906 237.804688 L 190.878906 266.425781 L 184.121094 266.425781 L 184.121094 237.734375 L 170.601562 237.734375 L 170.601562 230.976562 L 184.121094 230.976562 L 184.121094 215.804688 L 190.878906 215.804688 Z M 159.027344 140.015625 L 159.027344 193.730469 L 215.902344 193.730469 L 215.902344 140.015625 C 215.902344 124.34375 203.101562 111.542969 187.429688 111.542969 C 171.753906 111.542969 159.027344 124.34375 159.027344 140.015625 Z M 209.644531 187.402344 L 165.355469 187.402344 L 165.355469 141.238281 L 183.402344 141.238281 C 183.402344 141.3125 183.328125 141.382812 183.328125 141.453125 C 181.890625 141.957031 180.523438 142.75 179.375 143.828125 C 177.144531 145.769531 175.707031 148.5 175.347656 151.449219 L 174.269531 159.933594 C 173.910156 162.882812 172.832031 165.613281 171.25 167.773438 C 170.53125 168.707031 170.171875 169.855469 170.171875 171.007812 L 170.171875 171.078125 C 170.171875 173.667969 172.328125 175.753906 174.917969 175.753906 L 180.886719 175.753906 C 181.890625 178.484375 184.550781 180.425781 187.5 180.425781 C 190.449219 180.425781 193.109375 178.558594 194.113281 175.753906 L 200.082031 175.753906 C 202.601562 175.753906 204.683594 173.738281 204.828125 171.222656 C 204.828125 171.152344 204.828125 171.078125 204.828125 171.007812 C 204.828125 169.855469 204.46875 168.851562 203.894531 167.914062 C 202.167969 165.398438 201.089844 162.378906 200.660156 159.070312 L 199.722656 151.378906 C 199.148438 146.847656 196.054688 142.964844 191.742188 141.382812 C 191.742188 141.3125 191.671875 141.238281 191.671875 141.09375 L 209.71875 141.09375 L 209.71875 187.402344 Z M 187.5 145.554688 C 191.238281 145.554688 194.402344 148.359375 194.90625 152.097656 L 195.839844 159.789062 C 196.34375 163.816406 197.710938 167.554688 199.867188 170.71875 C 199.9375 170.792969 199.9375 170.863281 199.9375 171.007812 L 174.988281 171.007812 C 174.988281 170.9375 175.0625 170.792969 175.132812 170.71875 C 177.21875 167.84375 178.582031 164.390625 179.015625 160.652344 L 180.09375 152.167969 C 180.523438 148.359375 183.761719 145.554688 187.5 145.554688 Z M 209.429688 136.996094 L 165.570312 136.996094 C 167.007812 126.210938 176.28125 117.871094 187.5 117.871094 C 198.71875 117.871094 207.992188 126.210938 209.429688 136.996094 Z M 209.429688 136.996094 " fill-opacity="1" fill-rule="nonzero"/></g></svg>