<svg xmlns="http://www.w3.org/2000/svg" xmlns:xlink="http://www.w3.org/1999/xlink" width="500" zoomAndPan="magnify" viewBox="0 0 375 374.999991" height="500" preserveAspectRatio="xMidYMid meet" version="1.0"><defs><clipPath id="d527afefa5"><path d="M 11.40625 0 L 363.90625 0 L 363.90625 375 L 11.40625 375 Z M 11.40625 0 " clip-rule="nonzero"/></clipPath></defs><g clip-path="url(#d527afefa5)"><path fill="#000000" d="M 148.019531 296.882812 C 148.082031 296.234375 147.867188 295.835938 147.132812 295.765625 C 146.1875 295.671875 145.242188 295.429688 144.292969 295.375 C 132.457031 294.648438 122.28125 289.628906 112.871094 282.941406 C 106.957031 278.734375 101.433594 273.976562 95.722656 269.480469 C 93.59375 267.800781 91.402344 266.191406 89.285156 264.496094 C 88.535156 263.882812 87.707031 263.421875 86.792969 263.109375 C 85.878906 262.796875 84.9375 262.652344 83.972656 262.679688 C 79.328125 262.726562 74.695312 262.710938 70.0625 262.632812 C 68.785156 262.589844 67.539062 262.367188 66.324219 261.96875 C 65.453125 261.695312 64.578125 261.132812 64.890625 259.945312 C 65.117188 259.820312 65.304688 259.648438 65.382812 259.695312 C 68.042969 261.085938 70.859375 261.046875 73.785156 260.960938 C 76.710938 260.875 79.339844 260.960938 82.125 260.960938 L 82.265625 260.4375 C 81.949219 260.058594 81.59375 259.722656 81.195312 259.429688 C 78.347656 257.789062 75.421875 256.304688 72.152344 255.710938 C 64.515625 254.332031 57.242188 260.007812 59.5625 269.105469 C 60.25 271.488281 61.230469 273.742188 62.496094 275.875 C 64.472656 279.207031 66.84375 282.234375 69.609375 284.949219 C 72.074219 282.855469 73.457031 280.101562 75.78125 278.054688 C 75.164062 279.382812 74.625 280.75 73.894531 282.023438 C 73.167969 283.300781 72.160156 284.667969 71.195312 286.113281 C 78.917969 292.007812 87.132812 294.5625 96.816406 291.71875 C 96.300781 292.335938 95.738281 292.910156 95.128906 293.4375 C 93.007812 295 90.480469 295.46875 87.9375 295.78125 C 82.023438 296.5 76.710938 294.859375 71.808594 291.648438 C 70.546875 290.816406 69.3125 289.941406 67.941406 289.011719 C 67.253906 289.371094 66.542969 289.707031 65.863281 290.089844 C 61.613281 292.484375 57.390625 292.4375 53.078125 290.152344 C 48.394531 287.558594 44.511719 284.070312 41.429688 279.6875 C 35.0625 271.089844 32.042969 261.179688 30.078125 250.769531 C 28.828125 244.164062 29.109375 237.585938 29.296875 231.003906 C 29.539062 223.828125 30.980469 216.769531 32.746094 209.796875 C 38.730469 186.234375 49.957031 165.375 65.601562 146.890625 C 71.453125 139.996094 77.902344 133.648438 85.488281 128.605469 C 86.796875 127.738281 87.34375 126.777344 86.96875 125.214844 C 86.46875 123.128906 86.183594 120.972656 85.636719 118.90625 C 84.855469 116.015625 85.792969 113.695312 87.742188 111.710938 C 88.664062 110.734375 89.742188 109.988281 90.976562 109.460938 C 92.207031 108.9375 93.496094 108.679688 94.835938 108.691406 L 95.03125 109.152344 C 94.386719 109.355469 93.765625 109.613281 93.171875 109.933594 C 91.605469 110.886719 90.136719 111.964844 88.757812 113.171875 C 88.386719 113.507812 88.074219 113.894531 87.8125 114.320312 C 87.550781 114.75 87.359375 115.207031 87.230469 115.695312 C 87.101562 116.179688 87.042969 116.671875 87.058594 117.171875 C 87.070312 117.675781 87.15625 118.164062 87.3125 118.640625 C 87.695312 120.515625 87.957031 122.40625 88.09375 124.316406 C 88.171875 124.917969 88.25 125.527344 88.375 126.511719 C 90.269531 125.675781 91.941406 124.996094 93.554688 124.167969 C 94.03125 123.859375 94.367188 123.441406 94.5625 122.910156 C 96.058594 119.429688 98.210938 116.5625 102.058594 114.898438 C 100.671875 112.6875 99.507812 110.503906 98.035156 108.558594 C 97.734375 108.097656 97.363281 107.703125 96.925781 107.375 C 96.484375 107.042969 96 106.796875 95.472656 106.636719 C 94.945312 106.476562 94.40625 106.414062 93.855469 106.441406 C 93.308594 106.472656 92.777344 106.59375 92.273438 106.808594 C 90.230469 107.492188 88.332031 108.464844 86.585938 109.722656 C 83.597656 112.1875 83.007812 115.617188 83.839844 119.304688 C 83.988281 120.003906 84.316406 120.675781 84.433594 121.371094 C 84.582031 122.285156 84.777344 123.277344 83.652344 124.019531 C 82.085938 122.597656 82.085938 120.410156 81.015625 118.640625 L 80.183594 119.578125 C 80.136719 119.453125 80.035156 119.320312 80.058594 119.210938 C 80.265625 117.554688 80.582031 115.917969 81.007812 114.304688 C 84.097656 104.832031 88.007812 95.789062 94.742188 88.199219 C 95.511719 87.265625 96.410156 86.492188 97.445312 85.871094 C 98.480469 85.25 99.589844 84.824219 100.773438 84.589844 C 103.867188 83.976562 106.734375 82.816406 109.378906 81.101562 C 113.441406 78.578125 117.789062 76.507812 121.898438 74.066406 C 126.53125 71.179688 130.742188 67.769531 134.53125 63.835938 C 135.6875 62.773438 136.648438 61.558594 137.414062 60.1875 C 138.183594 58.820312 138.71875 57.367188 139.019531 55.824219 C 139.46875 53.246094 140.84375 51.707031 143.628906 51.496094 C 148.003906 51.160156 152.359375 50.566406 156.730469 50.285156 C 158.351562 50.179688 159.871094 49.746094 161.300781 48.980469 C 162.726562 48.210938 163.929688 47.183594 164.90625 45.890625 C 165.691406 44.90625 166.472656 43.867188 167.253906 42.890625 C 167.792969 42.234375 168.402344 41.640625 169.117188 40.882812 C 169.472656 41.292969 169.789062 41.730469 170.070312 42.195312 C 172.925781 48.449219 175.679688 54.699219 178.628906 60.90625 C 183.933594 72.003906 188.632812 83.351562 193.015625 94.84375 C 193.4375 95.960938 193.914062 97.054688 194.367188 98.164062 C 194.820312 99.273438 195.503906 99.671875 196.964844 99.515625 C 198.53125 94.59375 200.296875 89.566406 201.792969 84.464844 C 202.425781 82.3125 202.035156 80.054688 201.464844 77.859375 C 200.148438 72.855469 198.921875 67.832031 197.636719 62.820312 C 197.457031 62.140625 197.191406 61.476562 197.003906 60.929688 L 189.386719 60.226562 C 188.6875 60.9375 188.210938 61.777344 187.953125 62.742188 C 187.699219 63.707031 187.699219 64.671875 187.953125 65.636719 C 188.625 68.582031 189.566406 71.464844 190.472656 74.355469 C 191.9375 78.941406 192.863281 83.628906 193.25 88.425781 C 193.070312 87.894531 192.875 87.371094 192.710938 86.863281 L 187.78125 71.355469 C 187.539062 70.574219 187.265625 69.847656 187 69.089844 C 186.082031 66.066406 185.433594 63.03125 187.226562 59.929688 C 184.777344 59.320312 181.960938 61.273438 180.089844 58.4375 C 181.851562 57.148438 183.363281 55.878906 185.035156 54.894531 C 185.566406 54.582031 186.601562 54.855469 187.296875 55.105469 C 187.660156 55.273438 188.042969 55.382812 188.441406 55.429688 C 188.839844 55.472656 189.238281 55.457031 189.628906 55.375 C 190.023438 55.292969 190.394531 55.152344 190.742188 54.953125 C 191.09375 54.753906 191.402344 54.507812 191.667969 54.207031 C 193.234375 52.644531 195.175781 52.808594 197.058594 53.300781 C 198.945312 53.792969 200.6875 54.503906 202.535156 55.074219 C 205.046875 55.855469 207.582031 56.589844 210.101562 57.359375 C 213.527344 58.414062 216.070312 60.484375 216.992188 64.039062 C 217.914062 67.597656 218.476562 71.074219 219.339844 74.519531 C 219.703125 76.15625 220.335938 77.679688 221.230469 79.09375 C 223.78125 82.757812 226.558594 86.277344 229.257812 89.832031 C 229.742188 90.464844 230.300781 91.035156 231.058594 91.902344 C 229.726562 93 228.339844 94.015625 226.894531 94.953125 C 223.585938 96.875 220.207031 98.6875 216.8125 100.421875 C 216.09375 100.816406 215.445312 101.304688 214.867188 101.886719 C 214.289062 102.464844 213.804688 103.113281 213.410156 103.832031 C 213.015625 104.550781 212.734375 105.3125 212.558594 106.109375 C 212.382812 106.910156 212.320312 107.71875 212.375 108.535156 C 213.28125 108.570312 214.171875 108.484375 215.050781 108.285156 C 216.542969 107.714844 217.992188 107.046875 219.394531 106.285156 C 223.085938 104.378906 226.738281 102.378906 230.433594 100.507812 C 231.535156 100.007812 232.660156 99.5625 233.8125 99.179688 C 235.882812 95.523438 239.125 93.140625 242.871094 91.363281 C 244.558594 90.484375 246.34375 90.199219 248.222656 90.511719 C 249.042969 90.746094 249.796875 91.117188 250.480469 91.628906 C 246.023438 90.597656 238.410156 94.367188 236.480469 98.757812 C 237.003906 98.914062 237.503906 99.078125 238.042969 99.203125 C 240.640625 99.875 242.953125 101.078125 244.992188 102.824219 C 246.664062 104.175781 248.441406 105.410156 250.214844 106.628906 C 250.882812 107.082031 251.597656 107.425781 252.367188 107.660156 C 254.589844 108.355469 256.441406 107.660156 257.265625 105.480469 C 257.789062 103.960938 258.050781 102.398438 258.046875 100.789062 C 258.085938 98.984375 257.78125 97.179688 257.789062 95.320312 C 259.351562 99.015625 260.347656 102.761719 258.351562 106.667969 C 257.078125 109.167969 254.839844 110.269531 252.1875 109.394531 C 250.457031 108.78125 248.824219 107.96875 247.289062 106.964844 C 245.726562 105.996094 244.363281 104.753906 242.878906 103.667969 C 242.222656 103.191406 241.476562 102.816406 240.773438 102.402344 L 240.367188 102.949219 C 243.105469 105.457031 245.664062 108.199219 248.621094 110.417969 C 251.578125 112.640625 255.144531 114.445312 257.71875 117.382812 C 257.953125 117.585938 258.214844 117.746094 258.5 117.867188 C 259.117188 115.96875 259.660156 114.15625 260.308594 112.398438 C 260.660156 111.4375 261.089844 110.308594 262.457031 110.621094 C 263.6875 110.90625 263.976562 111.914062 263.929688 113.039062 C 263.765625 116.453125 263.734375 119.886719 263.359375 123.277344 C 263.140625 124.726562 262.578125 126.027344 261.675781 127.183594 C 259.742188 129.863281 258.34375 132.792969 257.476562 135.976562 C 257.238281 136.769531 256.882812 137.507812 256.410156 138.1875 C 255.933594 138.867188 255.367188 139.453125 254.703125 139.949219 C 254.042969 140.449219 253.320312 140.828125 252.535156 141.09375 C 251.75 141.359375 250.941406 141.496094 250.113281 141.503906 C 249.554688 141.566406 248.996094 141.554688 248.441406 141.464844 C 247.886719 141.378906 247.351562 141.214844 246.839844 140.980469 C 246.328125 140.746094 245.855469 140.445312 245.425781 140.082031 C 245 139.71875 244.625 139.304688 244.308594 138.839844 C 244.070312 138.523438 243.808594 138.226562 243.527344 137.949219 C 243.480469 137.902344 243.371094 137.949219 242.925781 137.847656 C 242.644531 138.769531 242.484375 139.710938 242.449219 140.675781 C 242.507812 141.816406 242.699219 142.933594 243.019531 144.027344 C 243.339844 145.125 243.78125 146.167969 244.339844 147.164062 C 244.902344 148.15625 245.570312 149.074219 246.34375 149.914062 C 247.113281 150.757812 247.972656 151.5 248.917969 152.140625 C 254.394531 155.980469 260.285156 158.957031 266.269531 161.808594 C 275.0625 166 283.996094 169.898438 292.6875 174.316406 C 300.324219 178.148438 307.179688 183.0625 313.261719 189.0625 C 321.359375 197.097656 326.394531 206.671875 327.617188 218.089844 C 327.667969 218.84375 327.878906 219.550781 328.25 220.207031 C 328.621094 220.867188 329.113281 221.414062 329.726562 221.851562 C 334.464844 225.449219 338.65625 229.59375 342.308594 234.285156 C 347.570312 241.203125 350.246094 249.136719 351.65625 257.601562 C 351.871094 258.453125 352.011719 259.316406 352.078125 260.195312 C 352.078125 261.53125 352.726562 262.398438 353.5625 263.320312 C 355.027344 264.886719 356.464844 266.519531 357.773438 268.230469 C 362.773438 274.789062 363.882812 282.234375 362.882812 290.230469 C 362.226562 295.636719 360.363281 300.585938 357.289062 305.082031 C 356.332031 306.453125 355.289062 307.757812 354.160156 308.988281 C 352.925781 310.433594 351.484375 311.621094 349.828125 312.546875 C 348.171875 313.476562 346.40625 314.085938 344.527344 314.382812 C 344.046875 314.410156 343.597656 314.546875 343.183594 314.796875 C 342.765625 315.046875 342.433594 315.375 342.183594 315.789062 C 336.941406 324.386719 328.96875 329.078125 319.332031 330.921875 C 315.757812 331.617188 312.023438 331.5 308.378906 331.664062 C 307.644531 331.550781 306.949219 331.320312 306.289062 330.976562 C 309.570312 330.640625 312.476562 330.429688 315.355469 330.015625 C 322.945312 328.90625 329.875 326.285156 335.585938 320.972656 C 337.386719 319.394531 338.886719 317.570312 340.085938 315.5 C 339.699219 315.304688 339.292969 315.167969 338.863281 315.09375 C 334.507812 315.210938 330.347656 313.945312 326.097656 313.273438 C 321.851562 312.601562 317.671875 312.296875 313.488281 313.15625 C 311.679688 313.542969 309.996094 314.226562 308.433594 315.210938 C 307.90625 315.511719 307.433594 315.875 307.007812 316.308594 C 306.582031 316.742188 306.226562 317.222656 305.9375 317.753906 C 305.648438 318.285156 305.4375 318.847656 305.304688 319.4375 C 305.171875 320.027344 305.121094 320.625 305.15625 321.230469 C 305.273438 323.675781 305.523438 326.113281 305.664062 327.882812 C 302.488281 321.964844 303.992188 315.773438 309.300781 311.976562 C 311.960938 310.0625 314.925781 309.019531 318.195312 308.847656 C 323.375 308.527344 328.367188 309.578125 333.34375 310.679688 C 335.890625 311.242188 338.464844 311.671875 341.007812 312.15625 C 341.476562 311.335938 341.761719 310.457031 341.871094 309.519531 C 341.984375 308.582031 341.90625 307.660156 341.640625 306.753906 C 340.6875 302.066406 337.660156 299.039062 333.335938 297.265625 C 329.898438 295.964844 326.351562 295.144531 322.695312 294.804688 C 316.601562 294.085938 310.523438 293.242188 304.453125 292.414062 C 303.125 292.128906 301.820312 291.761719 300.539062 291.308594 C 299.960938 291.152344 299.359375 291.082031 298.40625 290.910156 L 300.957031 299.8125 L 300.695312 299.882812 C 299.820312 297.429688 298.921875 294.984375 298.085938 292.515625 C 297.832031 291.753906 297.421875 291.089844 296.859375 290.523438 C 296.292969 289.953125 295.632812 289.539062 294.878906 289.277344 C 283.882812 284.460938 273.441406 278.660156 263.546875 271.871094 C 258.984375 268.792969 254.371094 265.792969 249.777344 262.757812 C 249.527344 262.636719 249.265625 262.539062 248.996094 262.460938 C 248.628906 263.4375 249.425781 263.914062 249.832031 264.496094 C 257.742188 275.640625 266.191406 286.378906 274.867188 296.9375 C 279.628906 302.738281 284.488281 308.464844 289.253906 314.273438 C 290.816406 316.1875 292.265625 318.179688 293.6875 320.230469 C 294.527344 321.3125 295.164062 322.503906 295.605469 323.800781 C 296.042969 325.097656 296.261719 326.433594 296.253906 327.804688 C 296.222656 328.453125 296.347656 329.066406 296.632812 329.652344 C 296.917969 330.234375 297.324219 330.710938 297.859375 331.085938 C 300.601562 333.28125 303.269531 335.578125 306.039062 337.738281 C 307.871094 339.167969 309.464844 340.824219 310.828125 342.707031 C 313.175781 345.921875 315.796875 348.960938 318.296875 352.085938 L 320.027344 354.226562 L 319.605469 354.746094 C 319.101562 354.546875 318.636719 354.285156 318.203125 353.960938 C 316.570312 352.320312 314.996094 350.625 313.378906 348.960938 C 312.792969 348.351562 312.148438 347.789062 311.578125 347.25 C 310.273438 347.984375 310.4375 348.96875 310.648438 349.90625 C 310.851562 350.839844 311.109375 351.757812 311.429688 352.65625 C 312.101562 354.636719 312.441406 356.671875 312.449219 358.761719 C 312.457031 360.851562 312.132812 362.890625 311.476562 364.875 C 311.125 366.085938 310.84375 367.328125 310.445312 368.867188 C 311.101562 369.113281 311.777344 369.285156 312.46875 369.382812 C 314.222656 369.460938 315.984375 369.382812 317.742188 369.445312 C 324.855469 369.601562 331.964844 369.75 339.078125 369.976562 C 341.0625 370.039062 343.042969 370.34375 345.242188 370.5625 C 338.769531 370.71875 332.503906 370.984375 326.246094 370.992188 C 303.300781 371.046875 280.359375 370.992188 257.40625 371.03125 C 251.335938 371.03125 245.273438 371.328125 239.203125 371.421875 C 233.726562 371.515625 228.1875 371.5 222.679688 371.578125 C 210.164062 371.75 197.589844 371.96875 185.050781 372.148438 C 182.8125 372.148438 180.570312 372.109375 178.332031 372.148438 C 171.382812 372.265625 164.4375 372.398438 157.492188 372.546875 C 147.75 372.734375 138.003906 372.933594 128.257812 373.136719 C 123.46875 373.238281 118.683594 373.417969 113.894531 373.558594 C 109.105469 373.699219 104.164062 373.824219 99.296875 373.972656 C 93.554688 374.144531 87.820312 374.394531 82.085938 374.496094 C 70.90625 374.691406 59.71875 374.871094 48.542969 374.925781 C 36.628906 374.988281 24.714844 374.925781 12.804688 374.871094 C 12.316406 374.898438 11.839844 374.839844 11.375 374.691406 C 13.253906 374.550781 15.121094 374.386719 17 374.292969 C 28.007812 373.746094 39.011719 373.246094 50.019531 372.726562 C 57.4375 372.351562 64.882812 371.84375 72.261719 371.515625 C 79.300781 371.210938 86.339844 371.101562 93.382812 370.820312 C 98.484375 370.617188 103.550781 370.242188 108.675781 370.039062 C 111.46875 369.921875 114.269531 370.039062 117.070312 369.921875 C 120.066406 369.828125 123.0625 369.617188 126.394531 369.445312 C 125.894531 368.367188 125.527344 367.671875 125.253906 366.945312 C 124.0625 363.742188 122.796875 360.558594 121.757812 357.300781 C 121.3125 355.792969 121.132812 354.253906 121.21875 352.683594 C 121.304688 351.113281 121.65625 349.605469 122.265625 348.15625 C 122.523438 347.484375 122.78125 346.804688 123.09375 346.164062 C 123.714844 344.992188 124.121094 343.75 124.308594 342.4375 C 124.5 341.125 124.460938 339.816406 124.195312 338.519531 C 123.773438 336.59375 123.601562 334.609375 123.3125 332.625 L 120.746094 332.164062 C 120.613281 332.015625 120.355469 331.867188 120.308594 331.664062 C 119.441406 328.359375 119.46875 325.058594 120.394531 321.769531 C 120.699219 320.722656 121.960938 319.746094 122.96875 319.144531 C 125.160156 317.867188 127.519531 317.222656 130.054688 317.210938 C 130.707031 317.253906 131.328125 317.144531 131.929688 316.890625 C 132.527344 316.636719 133.039062 316.261719 133.460938 315.765625 C 136.589844 311.957031 139.71875 308.136719 142.847656 304.308594 C 143.125 303.855469 143.367188 303.382812 143.574219 302.894531 C 142.214844 303.046875 140.867188 303.273438 139.53125 303.566406 C 134.539062 304.964844 129.53125 306.308594 124.613281 307.925781 C 121.222656 309.085938 118.261719 310.929688 115.734375 313.460938 C 113.898438 315.152344 112.5625 317.175781 111.726562 319.527344 C 111.992188 317.734375 112.578125 316.058594 113.496094 314.496094 C 114.410156 312.9375 115.585938 311.601562 117.023438 310.5 C 121.144531 307.144531 126.027344 305.386719 131.105469 304.089844 C 134.429688 303.160156 137.792969 302.425781 141.203125 301.886719 C 143.746094 301.542969 145.804688 300.871094 146.90625 298.351562 C 147.238281 297.808594 147.628906 297.3125 148.082031 296.867188 C 147.351562 298.21875 146.632812 299.570312 145.820312 301.105469 C 151.695312 300.683594 157.242188 300.125 162.804688 299.929688 C 168.363281 299.734375 174.074219 299.398438 179.933594 300.132812 C 179.933594 300.964844 179.972656 301.582031 179.933594 302.191406 C 179.355469 309.097656 178.714844 316.007812 178.207031 322.925781 C 177.769531 328.8125 177.527344 334.703125 177.117188 340.589844 C 176.9375 343.128906 176.921875 345.78125 176.132812 348.148438 C 175.34375 350.515625 175.828125 352.296875 176.6875 354.28125 C 177.257812 355.597656 177.824219 356.917969 178.417969 358.191406 C 179.746094 361.097656 181.101562 363.992188 181.226562 367.273438 C 181.3125 367.785156 181.460938 368.273438 181.679688 368.742188 C 187.046875 369.234375 248.316406 368.953125 249.871094 368.5 C 250.414062 367.394531 251.027344 366.328125 251.710938 365.304688 C 252.230469 364.671875 252.664062 363.984375 253.011719 363.242188 C 253.355469 362.503906 253.605469 361.730469 253.753906 360.925781 C 253.902344 360.121094 253.949219 359.308594 253.894531 358.492188 C 253.839844 357.675781 253.679688 356.878906 253.421875 356.105469 C 252 351.132812 251.640625 346.070312 253.195312 341.003906 C 253.21875 340.71875 253.1875 340.433594 253.101562 340.160156 C 252.804688 340.230469 252.625 340.222656 252.515625 340.308594 C 252.132812 340.597656 251.773438 340.917969 251.40625 341.222656 C 248.921875 343.417969 246.273438 345.398438 243.464844 347.160156 C 240.65625 348.921875 237.71875 350.445312 234.660156 351.726562 C 231.597656 353.003906 228.453125 354.027344 225.226562 354.789062 C 222 355.554688 218.730469 356.050781 215.417969 356.277344 C 207.902344 356.949219 200.429688 357.058594 193.054688 355.152344 C 190.183594 354.417969 187.375 353.476562 185.050781 351.539062 C 181.28125 348.414062 181.367188 343.988281 185.332031 341.042969 C 186.503906 340.199219 187.769531 339.527344 189.128906 339.035156 C 192.851562 337.605469 196.636719 336.347656 200.367188 334.921875 C 206.28125 332.664062 209.9375 328.515625 210.898438 322.121094 C 211.070312 321.332031 211.050781 320.550781 210.839844 319.773438 C 210.628906 318.996094 210.25 318.3125 209.703125 317.71875 C 208.136719 316 206.710938 314.1875 205.210938 312.421875 C 201.441406 308.136719 197.96875 303.675781 193.617188 300.007812 C 192.695312 299.230469 191.636719 298.753906 190.441406 298.570312 C 184.625 297.5 178.765625 296.851562 172.855469 296.625 C 165.511719 296.359375 158.171875 296.097656 150.832031 295.84375 C 150.308594 295.78125 149.796875 295.84375 149.300781 296.023438 C 148.804688 296.207031 148.375 296.496094 148.019531 296.882812 Z M 293.34375 283.660156 L 293.84375 283.121094 C 293.476562 282.335938 293.125 281.554688 292.742188 280.828125 C 285.746094 267.144531 277.609375 254.171875 268.332031 241.914062 C 257.921875 228.261719 247.34375 214.730469 236.824219 201.164062 C 232.339844 195.421875 228.347656 189.359375 224.847656 182.972656 C 220.496094 174.988281 217.75 166.5625 218.691406 157.332031 C 218.871094 155.515625 219.378906 153.734375 219.621094 151.921875 C 220.441406 145.855469 222.421875 140.285156 226.660156 135.734375 C 229.390625 132.820312 232.285156 130.070312 235.046875 127.183594 C 238.460938 123.796875 240.878906 119.808594 242.300781 115.21875 C 242.519531 114.089844 242.660156 112.953125 242.722656 111.804688 C 240.789062 113.367188 239.4375 114.59375 237.957031 115.632812 C 233.074219 119.070312 227.523438 121.105469 222.03125 123.308594 C 217.445312 125.121094 212.792969 126.433594 207.800781 125.105469 C 207.699219 125.105469 207.542969 125.238281 207.214844 125.410156 C 207.527344 126.191406 207.832031 126.972656 208.167969 127.753906 C 210.171875 132.394531 211.503906 137.21875 212.15625 142.230469 C 212.941406 148.382812 212.226562 154.476562 211.476562 160.574219 C 210.875 165.484375 210.210938 170.375 209.75 175.292969 C 209.285156 180.207031 209.042969 184.992188 208.761719 189.84375 C 208.410156 195.894531 208.050781 201.953125 207.832031 208.007812 C 207.621094 213.667969 207.597656 219.335938 207.472656 225 C 207.472656 225.515625 207.371094 226.023438 207.261719 226.960938 C 206.671875 226.085938 206.304688 225.585938 205.976562 225.0625 C 201.765625 218.367188 197.171875 211.941406 192.195312 205.789062 C 183.542969 194.894531 173.863281 184.914062 164.359375 174.785156 C 157.320312 167.273438 150.019531 159.980469 143.074219 152.375 C 138.128906 147.007812 133.835938 141.164062 130.1875 134.84375 C 128.371094 131.78125 127.21875 128.484375 126.738281 124.957031 C 126.167969 120.347656 127.578125 116.453125 131.582031 113.734375 C 134.796875 111.554688 138.417969 110.746094 142.230469 110.550781 L 145.78125 110.378906 C 146.945312 108.035156 147.953125 105.972656 148.996094 103.917969 C 149.273438 103.417969 149.421875 102.882812 149.4375 102.308594 C 149.453125 101.738281 149.332031 101.195312 149.082031 100.679688 C 147.960938 98.128906 146.65625 95.671875 145.171875 93.3125 C 142.101562 88.886719 141.1875 88.746094 136.195312 90.964844 C 129.859375 93.8125 123.515625 96.632812 117.25 99.625 C 113.582031 101.382812 110.015625 103.371094 106.5 105.410156 C 104.410156 106.59375 102.796875 108.242188 101.660156 110.355469 C 105.117188 114.554688 108.535156 118.890625 107.425781 125.207031 C 105.34375 122.394531 104.84375 118.953125 102.691406 116.429688 C 101.414062 117.085938 100.296875 117.945312 99.332031 119.007812 C 98.371094 120.074219 97.625 121.269531 97.097656 122.605469 C 100.125 123.542969 100.125 123.542969 100.078125 125.222656 C 99.847656 125.234375 99.621094 125.234375 99.390625 125.222656 C 96.457031 124.871094 96.128906 125.035156 95.550781 128.003906 C 95.09375 130.351562 94.890625 132.695312 94.546875 135.09375 C 93.660156 141.980469 94.097656 148.78125 95.863281 155.492188 C 101.300781 177.996094 114.050781 195.511719 132.894531 208.710938 C 143.144531 215.886719 154.636719 220.476562 166.535156 224.101562 C 175.695312 226.890625 184.988281 229.246094 194.132812 232.066406 C 208.171875 236.289062 221.648438 241.867188 234.5625 248.800781 C 235.226562 249.160156 235.9375 249.441406 236.667969 249.785156 C 236.730469 249.441406 236.832031 249.253906 236.777344 249.152344 C 236.464844 248.597656 236.128906 248.050781 235.773438 247.519531 C 228.316406 236.394531 222.277344 224.550781 217.648438 211.988281 C 212.746094 198.277344 210.007812 184.335938 212.46875 169.78125 C 212.933594 167.09375 213.675781 164.441406 214.285156 161.769531 C 214.480469 162.5 214.519531 163.234375 214.410156 163.980469 C 214.136719 167.15625 213.707031 170.328125 213.628906 173.5 C 213.566406 176.285156 213.855469 179.074219 214.050781 181.855469 C 214.714844 191.148438 217.015625 200.089844 220.058594 208.859375 C 225.308594 223.945312 232.808594 237.921875 241.132812 251.496094 C 241.90625 252.734375 242.933594 253.703125 244.207031 254.410156 C 247.710938 256.476562 251.148438 258.671875 254.621094 260.804688 C 265.03125 267.199219 275.421875 273.625 285.910156 279.945312 C 288.273438 281.40625 290.855469 282.457031 293.34375 283.683594 Z M 294.265625 327.425781 C 294.097656 324.945312 293.25 322.71875 291.722656 320.753906 C 290.160156 318.550781 288.507812 316.375 286.78125 314.28125 C 272.894531 297.460938 258.890625 280.726562 246.203125 262.984375 C 243.324219 258.960938 239.828125 256.375 235.585938 254.128906 C 220.417969 246.101562 204.476562 240.0625 188.085938 235.097656 C 177.785156 231.972656 167.363281 229.199219 157.15625 225.789062 C 140.671875 220.320312 126.175781 211.550781 114.363281 198.582031 C 110.140625 194.039062 106.410156 189.117188 103.175781 183.824219 C 99.941406 178.53125 97.265625 172.96875 95.152344 167.140625 C 90.972656 155.414062 89.675781 143.433594 92.019531 131.140625 C 92.304688 129.695312 92.617188 128.253906 93.03125 126.285156 C 91.792969 126.878906 91.027344 127.207031 90.292969 127.613281 C 85.976562 130.097656 82.015625 133.054688 78.417969 136.492188 C 62.191406 151.367188 50.457031 169.382812 42.371094 189.804688 C 37.804688 201.519531 34.613281 213.59375 32.792969 226.03125 C 32.660156 226.914062 32.644531 227.8125 32.582031 228.714844 L 33.066406 228.808594 C 33.363281 228.109375 33.65625 227.398438 33.960938 226.703125 C 37.761719 218.105469 43.542969 211.503906 52.476562 207.945312 C 53.882812 207.335938 55.351562 207.027344 56.882812 207.011719 C 58.417969 207 59.890625 207.285156 61.308594 207.867188 C 65.691406 209.523438 70.222656 210.324219 74.90625 210.277344 C 83.632812 210.40625 92.003906 212.203125 100.015625 215.667969 C 110.875 220.359375 120.839844 226.539062 130.441406 233.308594 C 149.121094 246.480469 167.371094 260.242188 184.699219 275.164062 C 191.910156 281.359375 198.875 287.855469 204.59375 295.53125 C 204.933594 295.976562 205.351562 296.335938 205.84375 296.609375 C 206.335938 296.878906 206.863281 297.042969 207.425781 297.09375 C 221.742188 299.613281 235.863281 302.96875 249.785156 307.152344 C 263.234375 311.132812 276.28125 316.046875 288.171875 323.652344 C 290.042969 324.808594 291.9375 325.964844 294.265625 327.417969 Z M 202.074219 295.9375 C 201.976562 295.589844 201.84375 295.257812 201.675781 294.9375 C 200.972656 294.070312 200.265625 293.195312 199.515625 292.375 C 193.523438 285.707031 187.082031 279.511719 180.191406 273.78125 C 169.890625 265.441406 159.429688 257.304688 148.949219 249.207031 C 139.789062 242.117188 130.457031 235.261719 120.660156 229.058594 C 113.910156 224.78125 107.089844 220.632812 99.679688 217.558594 C 92.492188 214.589844 85.066406 212.339844 77.257812 212.027344 C 71 211.777344 64.867188 211.308594 58.945312 209.015625 C 57.554688 208.609375 56.160156 208.609375 54.769531 209.015625 C 52.597656 209.597656 50.550781 210.464844 48.621094 211.617188 C 46.695312 212.769531 44.957031 214.160156 43.417969 215.792969 C 34.945312 224.390625 31.730469 234.777344 33.097656 246.660156 C 33.8125 252.910156 35.742188 258.789062 37.933594 264.636719 C 40.476562 271.289062 44.261719 277.136719 49.285156 282.1875 C 51.867188 284.832031 54.761719 287.183594 58.4375 288.074219 C 60.910156 288.675781 63.429688 288.855469 66.121094 287.378906 C 64.734375 285.855469 63.476562 284.558594 62.316406 283.175781 C 57.960938 277.976562 55.199219 272.160156 56.058594 265.199219 C 56.722656 259.726562 60.183594 253.621094 67.644531 252.167969 C 69.546875 251.832031 71.457031 251.789062 73.375 252.035156 C 75.289062 252.285156 77.125 252.8125 78.878906 253.621094 C 82.621094 255.285156 86.082031 257.414062 89.253906 260.007812 C 90.390625 260.949219 91.691406 261.492188 93.164062 261.632812 C 98.078125 262.171875 102.996094 262.742188 107.855469 263.625 C 124.367188 266.695312 140.46875 271.230469 156.152344 277.226562 C 167.683594 281.5625 178.941406 286.472656 189.007812 293.773438 C 189.742188 294.269531 190.550781 294.578125 191.425781 294.695312 C 194.820312 295.15625 198.3125 295.507812 202.074219 295.9375 Z M 299.226562 257.289062 C 299.179688 256.382812 299.226562 255.992188 299.140625 255.617188 C 297.671875 247.359375 295.675781 239.230469 293.15625 231.230469 C 288.03125 215.441406 280.773438 200.667969 272.191406 186.476562 C 267.441406 178.613281 261.277344 172.179688 254.160156 166.515625 C 248.792969 162.238281 243.496094 157.855469 238.105469 153.609375 C 235.859375 151.820312 233.511719 150.167969 231.066406 148.664062 C 228.445312 147.101562 227.105469 147.40625 224.910156 149.5625 C 221.578125 152.828125 221.378906 156.871094 221.96875 161.121094 C 222.664062 166.117188 224.816406 170.554688 227.136719 174.933594 C 232.253906 184.546875 238.496094 193.402344 245.195312 201.984375 C 260.667969 221.8125 277.371094 240.445312 297.285156 255.992188 C 297.761719 256.390625 298.3125 256.695312 299.226562 257.289062 Z M 275.890625 186.679688 C 275.867188 186.902344 275.867188 187.128906 275.890625 187.351562 C 276.960938 189.210938 278.089844 191.046875 279.097656 192.949219 C 289.871094 213.089844 297.519531 234.277344 300.40625 257.039062 C 300.449219 257.554688 300.597656 258.039062 300.859375 258.488281 C 301.121094 258.9375 301.46875 259.304688 301.902344 259.59375 C 309.175781 264.972656 316.863281 269.679688 324.964844 273.710938 C 328.195312 275.273438 331.449219 276.835938 334.789062 278.117188 C 337.035156 278.957031 339.335938 279.585938 341.695312 280 C 345.320312 280.671875 348.113281 279.054688 349.050781 275.5 C 349.753906 272.824219 349.832031 270.027344 350.308594 267.253906 C 350.898438 263.882812 349.800781 261.328125 346.875 259.554688 C 346.808594 259.511719 346.742188 259.464844 346.679688 259.414062 C 339.632812 254.449219 332.59375 249.484375 325.558594 244.523438 C 324.925781 244.078125 324.210938 243.742188 323.367188 243.25 C 321.484375 246.738281 319.988281 250.285156 316.890625 252.628906 C 319.191406 249.480469 320.964844 246.0625 322.210938 242.367188 C 321.578125 241.898438 321.152344 241.539062 320.691406 241.234375 C 316.179688 238.21875 311.625 235.261719 307.152344 232.183594 C 304.257812 230.191406 301.464844 228.046875 298.664062 225.929688 C 298.023438 225.371094 297.421875 224.769531 296.863281 224.125 C 298.257812 223.148438 298.226562 223.195312 299.617188 224.171875 C 306.800781 229.222656 313.996094 234.253906 321.207031 239.265625 C 321.777344 239.617188 322.371094 239.929688 322.984375 240.203125 C 323.234375 239.96875 323.414062 239.882812 323.453125 239.75 C 325.226562 234.585938 326.21875 229.28125 326.433594 223.828125 C 326.464844 223.261719 326.34375 222.730469 326.074219 222.234375 C 325.804688 221.734375 325.421875 221.34375 324.933594 221.0625 C 321.476562 218.621094 318.09375 216.074219 314.582031 213.707031 C 302.199219 205.367188 289.550781 197.402344 277.917969 187.992188 C 277.324219 187.554688 276.710938 187.203125 275.890625 186.679688 Z M 225.316406 177.542969 L 225.027344 177.722656 C 225.105469 178.089844 225.222656 178.445312 225.378906 178.785156 C 228.0625 183.476562 230.503906 188.375 233.5 192.855469 C 241.742188 205.234375 251.335938 216.613281 260.464844 228.332031 C 274.042969 245.757812 286.625 263.804688 295.800781 284.027344 C 296.230469 284.898438 296.90625 285.503906 297.820312 285.839844 C 301.617188 287.0625 305.476562 288.046875 309.394531 288.792969 C 315.136719 289.707031 320.957031 290.121094 326.738281 290.816406 C 330.039062 291.148438 333.152344 292.085938 336.089844 293.625 C 340.921875 296.265625 344.230469 300.09375 344.691406 305.769531 C 344.726562 307.792969 344.621094 309.804688 344.371094 311.8125 C 346.4375 312.234375 348.183594 311.210938 349.847656 310.195312 C 352.667969 308.402344 354.902344 306.058594 356.554688 303.160156 C 358.203125 300.40625 359.429688 297.472656 360.226562 294.363281 C 361.027344 291.253906 361.367188 288.09375 361.246094 284.886719 C 361.089844 277.703125 358.367188 271.753906 353.894531 266.402344 C 353.421875 265.972656 352.917969 265.59375 352.375 265.261719 C 352.3125 266.488281 352.257812 267.347656 352.226562 268.214844 C 352.128906 271.273438 351.492188 274.21875 350.316406 277.046875 C 348.753906 280.8125 346.3125 282.25 342.246094 282.054688 C 338.296875 281.746094 334.550781 280.703125 331.011719 278.929688 C 321.328125 274.492188 312 269.433594 303.566406 262.867188 C 302.902344 262.34375 302.128906 261.960938 301.089844 261.304688 C 301.238281 265.574219 301.371094 269.433594 301.503906 273.292969 C 300.941406 270.078125 300.550781 266.84375 300.320312 263.585938 C 300.21875 261.335938 299.21875 259.96875 297.574219 258.617188 C 291.769531 253.855469 285.933594 249.113281 280.367188 244.085938 C 272.78125 237.101562 265.640625 229.691406 258.945312 221.851562 C 248.777344 210.128906 238.644531 198.402344 230.464844 185.179688 C 229.242188 183.210938 227.96875 181.269531 226.691406 179.347656 C 226.277344 178.699219 225.777344 178.128906 225.316406 177.527344 Z M 245.15625 122.050781 L 244.675781 122.496094 C 245.125 123.277344 245.5 124.144531 246.015625 124.894531 C 247.328125 126.800781 248.707031 128.660156 250.042969 130.554688 C 250.636719 131.398438 251.15625 132.3125 251.804688 133.117188 C 253.226562 134.914062 254.707031 134.953125 256.152344 133.179688 C 256.824219 132.285156 257.421875 131.34375 257.9375 130.351562 C 258.515625 129.035156 259.195312 127.773438 259.980469 126.566406 C 260.765625 125.546875 261.320312 124.410156 261.640625 123.160156 C 261.960938 121.910156 262.019531 120.652344 261.816406 119.375 C 261.6875 118.457031 261.742188 117.546875 261.972656 116.644531 C 262.207031 115.746094 262.605469 114.921875 263.164062 114.179688 C 263.445312 113.6875 263.648438 113.167969 263.773438 112.617188 L 262.992188 112.242188 C 260.511719 114.703125 260.824219 118.59375 258.953125 121.621094 C 255.730469 118.632812 253.078125 115.210938 249.089844 113.523438 L 248.660156 113.953125 L 254.089844 120.402344 C 252.875 121.183594 252.359375 120.402344 251.796875 119.925781 C 249.3125 117.832031 247.398438 115.308594 246.046875 112.359375 C 245.601562 111.246094 244.996094 110.226562 244.230469 109.300781 C 242.394531 107.308594 240.460938 105.394531 238.433594 103.589844 C 237.21875 102.605469 235.945312 101.699219 234.617188 100.875 C 229.515625 103.582031 224.800781 106.105469 220.058594 108.574219 C 218.789062 109.253906 217.46875 109.816406 216.101562 110.261719 C 211.890625 111.617188 210.398438 110.457031 210.710938 105.957031 L 208.386719 107.738281 C 207.089844 107.320312 205.824219 106.824219 204.59375 106.246094 C 199.164062 103.378906 193.742188 100.484375 188.382812 97.492188 C 184.761719 95.460938 181.296875 93.164062 177.683594 91.121094 C 174.066406 89.082031 170.265625 88.550781 166.417969 90.207031 C 163.636719 91.414062 160.945312 92.792969 158.34375 94.34375 C 156.90625 95.234375 155.625 96.3125 154.503906 97.578125 C 153.382812 98.84375 152.464844 100.242188 151.75 101.777344 C 150.628906 103.972656 149.550781 106.199219 148.503906 108.433594 C 148.367188 108.945312 148.296875 109.46875 148.300781 109.996094 C 151.078125 109.925781 152.664062 108.167969 154.253906 106.613281 C 155.839844 105.058594 157.226562 103.238281 158.695312 101.539062 C 158.382812 103.230469 157.765625 104.800781 156.851562 106.253906 C 155.8125 107.660156 154.695312 108.996094 153.492188 110.261719 C 153.886719 110.410156 154.289062 110.492188 154.707031 110.511719 C 155.125 110.53125 155.535156 110.484375 155.9375 110.375 C 156.339844 110.269531 156.71875 110.101562 157.066406 109.875 C 157.417969 109.648438 157.726562 109.375 157.992188 109.050781 C 160.792969 106.207031 163.601562 103.363281 166.457031 100.578125 C 167.476562 99.566406 168.578125 98.65625 169.765625 97.84375 C 170.070312 97.605469 170.402344 97.425781 170.765625 97.296875 C 171.128906 97.167969 171.503906 97.105469 171.890625 97.101562 C 172.277344 97.097656 172.652344 97.15625 173.019531 97.277344 C 173.382812 97.398438 173.722656 97.574219 174.027344 97.804688 C 175.09375 98.511719 176.113281 99.277344 177.085938 100.101562 C 183.886719 106.160156 190.667969 112.242188 198.117188 117.507812 C 200.523438 119.21875 203.058594 120.71875 205.71875 122.003906 C 206.574219 122.449219 207.464844 122.800781 208.394531 123.054688 C 209.324219 123.308594 210.269531 123.457031 211.230469 123.503906 C 212.195312 123.554688 213.152344 123.496094 214.101562 123.335938 C 215.050781 123.179688 215.972656 122.917969 216.867188 122.558594 C 221.003906 120.886719 225.183594 119.289062 229.335938 117.632812 C 233.300781 116.039062 236.949219 113.910156 240.289062 111.25 C 241.097656 110.671875 241.9375 110.152344 242.816406 109.683594 C 244.417969 111.335938 244.683594 112.226562 244.035156 114.609375 C 243.375 117.210938 242.402344 119.691406 241.121094 122.050781 C 239.835938 124.410156 238.28125 126.574219 236.457031 128.542969 C 234.148438 130.984375 231.761719 133.335938 229.5625 135.875 C 227.851562 137.875 226.300781 139.996094 224.910156 142.230469 C 223.707031 144.125 223.039062 146.191406 222.90625 148.429688 C 224.996094 147.328125 227.246094 146.558594 228.960938 145.144531 C 232.324219 142.378906 235.53125 142.878906 238.917969 144.816406 C 239.414062 145.097656 239.953125 145.285156 240.867188 145.691406 C 238.730469 138.433594 242.332031 133.460938 246.46875 128.597656 C 245.945312 127.875 245.46875 127.121094 245.046875 126.332031 C 244.414062 125.144531 243.941406 123.890625 243.628906 122.582031 C 243.292969 120.621094 244.183594 119.71875 246.054688 120.238281 C 249.355469 121.105469 251.84375 123.207031 253.878906 125.933594 C 250.605469 125.332031 248.441406 122.394531 245.15625 122.019531 Z M 285.527344 326.707031 C 281.304688 323.949219 276.921875 322.175781 272.621094 320.347656 C 252.5625 311.851562 231.582031 306.417969 210.359375 301.855469 C 209.96875 301.832031 209.585938 301.867188 209.207031 301.964844 C 209.167969 302.222656 209.167969 302.484375 209.207031 302.746094 C 211.066406 307.613281 212.246094 312.636719 212.746094 317.820312 C 212.8125 318.46875 213.054688 319.039062 213.480469 319.535156 C 218.445312 325.152344 224.007812 329.976562 231.167969 332.671875 C 235.496094 334.164062 239.945312 335 244.519531 335.179688 C 248.957031 335.484375 253.445312 335.820312 257.820312 334.359375 C 262.191406 332.898438 266.503906 333.34375 270.757812 334.664062 C 273.261719 335.445312 275.632812 336.660156 278.136719 337.457031 C 280.5625 338.207031 283.027344 338.824219 285.519531 339.308594 C 286.117188 339.453125 286.710938 339.441406 287.304688 339.277344 C 287.894531 339.109375 288.410156 338.8125 288.84375 338.378906 C 286.710938 334.851562 284.363281 331.320312 285.527344 326.675781 Z M 261.628906 368.335938 L 261.777344 368.898438 L 277.324219 368.898438 C 282.4375 368.898438 287.546875 368.960938 292.664062 368.898438 C 297.777344 368.835938 302.878906 369.148438 308.542969 368.703125 C 307.222656 367.367188 306.34375 366.460938 305.414062 365.578125 C 302.644531 363.054688 300.667969 360.019531 299.492188 356.464844 C 298.734375 354.449219 297.734375 352.566406 296.488281 350.8125 C 294.65625 347.914062 292.6875 345.105469 290.769531 342.261719 C 290.417969 341.746094 290.050781 341.246094 289.722656 340.785156 C 289.433594 340.789062 289.148438 340.820312 288.867188 340.878906 C 284.371094 342.488281 279.996094 341.964844 275.523438 340.527344 C 271.941406 339.449219 268.304688 338.59375 264.617188 337.964844 C 262.878906 337.722656 261.136719 337.667969 259.382812 337.800781 C 257.125 337.871094 255.714844 339.308594 254.871094 341.199219 C 254.285156 342.4375 253.980469 343.738281 253.964844 345.105469 C 253.964844 348.214844 254.191406 351.308594 254.644531 354.382812 C 255.378906 358.910156 255.621094 363.214844 252.195312 367.015625 C 253.097656 366.902344 253.957031 366.640625 254.769531 366.234375 C 256.359375 365.3125 257.898438 364.3125 259.382812 363.230469 C 262.277344 361.105469 263.570312 358.113281 263.804688 354.59375 C 263.9375 352.679688 264.015625 350.765625 264.273438 348.875 C 264.511719 347.085938 265.039062 345.390625 265.855469 343.78125 C 266.671875 342.171875 267.730469 340.746094 269.03125 339.496094 C 269.847656 339.851562 270.605469 340.308594 271.296875 340.871094 C 273.011719 342.707031 273.964844 344.957031 273.386719 347.4375 C 273.035156 348.957031 273.191406 350.425781 273.855469 351.835938 C 274.453125 353.21875 275.171875 354.554688 275.820312 355.925781 C 276 356.308594 276.117188 356.707031 276.265625 357.113281 C 273.347656 355.660156 273.316406 351.765625 270.351562 350.4375 C 269.441406 350.949219 268.683594 351.632812 268.082031 352.484375 C 267.476562 353.339844 267.082031 354.277344 266.902344 355.308594 C 266.457031 357.566406 266.222656 359.871094 265.957031 362.167969 C 265.890625 363.136719 265.621094 364.046875 265.148438 364.894531 C 264.675781 365.746094 264.046875 366.453125 263.257812 367.023438 C 262.695312 367.40625 262.167969 367.867188 261.628906 368.304688 Z M 213.175781 321.714844 C 212.960938 321.976562 212.765625 322.25 212.585938 322.535156 C 212.460938 322.824219 212.359375 323.125 212.28125 323.433594 C 211.0625 329.984375 207.144531 334.28125 201.058594 336.652344 C 197.574219 338.011719 194.015625 339.144531 190.449219 340.355469 C 188.257812 340.992188 186.351562 342.113281 184.730469 343.714844 C 184.558594 343.871094 184.410156 344.046875 184.277344 344.234375 C 184.144531 344.425781 184.035156 344.628906 183.945312 344.839844 C 183.855469 345.054688 183.792969 345.277344 183.753906 345.503906 C 183.710938 345.730469 183.695312 345.960938 183.707031 346.191406 C 183.714844 346.421875 183.75 346.648438 183.808594 346.875 C 183.867188 347.097656 183.949219 347.3125 184.054688 347.519531 C 184.160156 347.722656 184.285156 347.917969 184.433594 348.09375 C 184.578125 348.273438 184.742188 348.433594 184.925781 348.578125 C 185.546875 349.078125 186.21875 349.492188 186.945312 349.820312 C 190.25 351.296875 193.703125 352.207031 197.308594 352.546875 C 205.539062 353.617188 213.738281 352.773438 221.828125 351.40625 C 231.996094 349.6875 240.6875 344.714844 249.035156 339.011719 C 249.527344 338.535156 249.964844 338.015625 250.347656 337.449219 C 235.234375 338.058594 222.742188 333.390625 213.175781 321.714844 Z M 257.023438 160.785156 C 261.097656 166 264.78125 170.796875 268.578125 175.519531 C 269.660156 176.800781 270.855469 177.972656 272.160156 179.035156 C 283.113281 188.480469 294.585938 197.246094 306.578125 205.335938 C 312.730469 209.484375 318.769531 213.808594 324.855469 218.042969 C 325.167969 218.261719 325.503906 218.433594 325.894531 218.667969 C 326.03125 218.425781 326.125 218.164062 326.175781 217.886719 C 326.152344 217.25 326.082031 216.617188 325.972656 215.988281 C 323.703125 203.820312 317.289062 194.199219 307.769531 186.5 C 300.4375 180.574219 292.125 176.339844 283.519531 172.601562 C 275.265625 168.984375 267.089844 165.210938 258.867188 161.503906 C 258.4375 161.292969 257.9375 161.128906 257.039062 160.785156 Z M 184.550781 293.703125 L 184.714844 293.070312 C 182.007812 291.5625 179.355469 289.941406 176.59375 288.550781 C 161.230469 280.78125 145.085938 275.0625 128.554688 270.363281 C 119.421875 267.777344 110.167969 265.742188 100.789062 264.269531 C 99.179688 264.007812 97.472656 263.382812 95.496094 264.046875 C 96.167969 264.652344 96.613281 265.089844 97.058594 265.480469 C 99.40625 267.386719 101.753906 269.386719 104.171875 271.160156 C 109.230469 274.914062 114.230469 278.765625 119.496094 282.210938 C 125.773438 286.484375 132.621094 289.425781 140.046875 291.027344 C 143.175781 291.648438 146.304688 292.046875 149.433594 292.546875 C 150.699219 290.042969 151.78125 287.855469 152.9375 285.660156 C 153.8125 284.019531 154.316406 283.738281 156.003906 284.183594 C 162.023438 285.808594 167.867188 287.925781 173.535156 290.527344 L 173.769531 292.789062 Z M 144.574219 112.375 C 141.054688 112.175781 137.664062 112.753906 134.40625 114.101562 C 129.203125 116.296875 127.417969 119.847656 128.515625 125.386719 C 129.378906 129.480469 130.941406 133.289062 133.207031 136.804688 C 137.597656 143.894531 143.144531 150.09375 148.566406 156.347656 C 149.265625 157 150.019531 157.59375 150.816406 158.128906 C 153.21875 142.675781 155.949219 127.753906 154.574219 112.523438 C 153.433594 112.226562 152.28125 112.160156 151.117188 112.320312 C 149.949219 112.484375 148.859375 112.863281 147.84375 113.460938 C 146.71875 114.039062 145.601562 115.023438 144.074219 114.421875 Z M 162.183594 348 C 160.621094 347.101562 159.3125 346.304688 157.960938 345.65625 C 157.679688 345.550781 157.421875 345.40625 157.191406 345.214844 C 156.957031 345.027344 156.761719 344.804688 156.605469 344.546875 C 156.449219 344.292969 156.339844 344.019531 156.273438 343.726562 C 156.210938 343.433594 156.195312 343.136719 156.230469 342.839844 C 156.417969 339.660156 156.511719 336.476562 156.644531 333.289062 C 156.746094 331.128906 156.851562 328.960938 156.96875 326.785156 L 156.355469 326.605469 C 152.679688 331.734375 150.269531 337.675781 146.523438 342.847656 C 143.714844 342.519531 142.324219 339.808594 139.703125 339.238281 C 139.5 339.578125 139.316406 339.925781 139.152344 340.285156 C 136.964844 346.085938 134.78125 351.890625 132.605469 357.707031 C 132.46875 358.082031 132.375 358.46875 132.316406 358.863281 C 131.800781 362.152344 131.285156 365.4375 130.792969 368.726562 C 130.792969 368.84375 130.925781 368.984375 131.152344 369.390625 L 161.761719 368.789062 C 161.097656 367.765625 160.628906 366.65625 160.359375 365.46875 C 160.089844 364.277344 160.035156 363.074219 160.199219 361.863281 C 160.503906 358.738281 160.933594 355.558594 161.363281 352.414062 C 161.542969 351 161.878906 349.617188 162.183594 348 Z M 328.242188 223.90625 C 328.109375 229.988281 326.097656 235.519531 324.285156 241.101562 L 349.691406 258.609375 C 347.996094 243.78125 340.164062 232.683594 328.242188 223.90625 Z M 291.902344 339.667969 C 293.429688 342.535156 294.996094 345.574219 296.660156 348.570312 C 298.125 351.203125 299.742188 353.75 301.207031 356.386719 C 301.535156 357.082031 302.007812 357.65625 302.628906 358.109375 C 303.25 358.566406 303.941406 358.84375 304.703125 358.949219 C 307.089844 359.308594 308.167969 358.503906 308.378906 356.128906 C 308.566406 354.328125 308.230469 352.628906 307.378906 351.03125 C 304.960938 346.546875 302.582031 342.035156 299.992188 337.652344 C 299.054688 336.085938 297.566406 334.789062 296.332031 333.375 C 294.804688 335.53125 293.5 337.402344 291.902344 339.667969 Z M 196.019531 299.578125 L 210.882812 315.992188 C 210.355469 312.347656 209.40625 308.816406 208.042969 305.394531 C 206.390625 301.199219 206.375 301.175781 201.894531 300.34375 C 200.132812 300.007812 198.3125 299.875 196.019531 299.578125 Z M 230.753906 146.035156 C 232.910156 147.492188 235.09375 148.789062 237.074219 150.335938 C 243.332031 155.242188 249.550781 160.238281 255.792969 165.1875 C 256.144531 165.417969 256.511719 165.617188 256.898438 165.78125 C 256.933594 165.390625 256.816406 165.054688 256.542969 164.769531 C 251.570312 159.613281 246.6875 154.351562 241.546875 149.359375 C 239.890625 147.75 237.636719 146.691406 235.507812 145.644531 C 234.742188 145.261719 233.929688 145.105469 233.074219 145.175781 C 232.222656 145.246094 231.445312 145.535156 230.753906 146.035156 Z M 293.898438 331.882812 C 291.761719 330.25 289.691406 328.609375 286.507812 327.664062 C 286.632812 331.75 288.578125 334.46875 290.511719 337.285156 C 292.773438 335.546875 293.203125 334.867188 293.898438 331.890625 Z M 255.800781 135.210938 C 253.171875 136.929688 251.328125 136.078125 249.324219 134.289062 L 249.324219 139.042969 C 252.289062 139.511719 254.183594 138.464844 255.800781 135.21875 Z M 243.824219 60.84375 C 244.308594 59.03125 244.808594 57.179688 245.3125 55.316406 C 247.703125 56.820312 249.800781 58.109375 251.859375 59.453125 C 252.117188 59.625 252.171875 60.101562 252.320312 60.445312 C 252.496094 61.457031 252.621094 62.476562 252.6875 63.5 C 252.726562 65.730469 252.6875 67.972656 252.640625 70.207031 C 252.609375 72.230469 253.011719 74.164062 253.855469 76.007812 C 254.199219 76.886719 254.328125 77.800781 254.246094 78.742188 C 254.089844 81.25 254.511719 83.65625 255.511719 85.964844 C 255.796875 86.695312 256.191406 87.359375 256.691406 87.964844 C 257.195312 88.566406 257.777344 89.078125 258.441406 89.492188 C 259.105469 89.910156 259.820312 90.210938 260.582031 90.398438 C 261.34375 90.585938 262.113281 90.652344 262.898438 90.589844 C 267.261719 90.347656 269.976562 87.660156 272.042969 84.113281 C 272.378906 83.53125 272.644531 82.90625 273.019531 82.140625 C 274.421875 83.707031 274.113281 85.316406 273.660156 86.832031 C 273.207031 88.347656 271.941406 89.472656 269.914062 90.113281 C 270.726562 90.261719 271.511719 90.179688 272.28125 89.875 C 273.046875 89.570312 273.671875 89.089844 274.160156 88.425781 C 275.992188 86.144531 275.148438 83.585938 274.757812 81.1875 C 278.949219 76.453125 277.511719 71.027344 271.472656 69.558594 C 272.136719 70.246094 272.644531 70.707031 273.074219 71.238281 C 273.945312 72.171875 274.710938 73.183594 275.375 74.269531 C 276.40625 76.226562 275.859375 77.78125 273.808594 78.859375 C 273.972656 74.410156 271.109375 71.878906 267.832031 69.644531 C 268.71875 68.472656 269.398438 67.488281 270.179688 66.582031 C 276.242188 59.40625 274.324219 49.816406 269.578125 44.328125 C 264.023438 37.972656 256.613281 35.222656 248.238281 35.285156 C 243.933594 35.324219 241.539062 37.894531 241.195312 42.171875 C 240.902344 45.511719 241.488281 48.6875 242.949219 51.707031 C 243.199219 52.074219 243.34375 52.476562 243.390625 52.917969 C 243.4375 53.355469 243.378906 53.78125 243.214844 54.191406 C 242.152344 56.6875 241.851562 59.269531 242.316406 61.9375 C 242.550781 63.757812 241.804688 64.78125 240.359375 65.636719 C 237.066406 67.582031 233.460938 68.035156 229.742188 67.902344 C 228.179688 67.839844 227.875 67.230469 228.273438 65.660156 C 228.507812 64.734375 229.054688 63.726562 228.882812 62.90625 C 228.71875 62.203125 228.738281 61.507812 228.933594 60.8125 C 229.128906 60.117188 229.480469 59.511719 229.984375 59 C 230.269531 58.539062 230.492188 58.054688 230.652344 57.539062 L 228.46875 55.003906 C 229.789062 54.222656 230.902344 53.441406 232.082031 52.785156 C 232.871094 52.445312 233.515625 51.921875 234.015625 51.21875 C 234.511719 50.515625 234.792969 49.734375 234.851562 48.878906 C 234.949219 48.039062 235.1875 47.242188 235.574219 46.492188 C 235.960938 45.742188 236.46875 45.082031 237.097656 44.515625 C 238.183594 43.414062 239.070312 42.109375 240.046875 40.898438 L 239.632812 40.570312 C 238.613281 41.835938 237.660156 43.164062 236.558594 44.359375 C 235.199219 45.675781 234.34375 47.265625 233.984375 49.121094 C 233.878906 49.679688 233.648438 50.179688 233.285156 50.617188 C 232.925781 51.058594 232.480469 51.378906 231.949219 51.589844 C 230.503906 52.269531 229.101562 53.035156 227.75 53.886719 C 226.542969 54.667969 226.535156 55.683594 227.585938 56.671875 C 228.0625 57.085938 228.566406 57.472656 229.09375 57.828125 C 228.515625 59.101562 227.53125 60.273438 227.617188 61.320312 C 227.730469 62.914062 227.515625 64.460938 226.972656 65.964844 C 226.261719 68.308594 227.136719 69.597656 229.59375 70.050781 C 230.699219 70.253906 231.808594 70.363281 232.917969 70.511719 C 235.382812 70.839844 236.785156 72.074219 236.933594 74.417969 C 236.996094 76.484375 236.898438 78.542969 236.644531 80.59375 C 236.542969 81.773438 236.199219 82.9375 236 84.113281 C 235.804688 85.285156 235.695312 86.300781 235.539062 87.386719 C 237.105469 83.414062 238.542969 79.445312 238.550781 75.140625 C 238.550781 71.730469 237.769531 70.597656 234.867188 69.511719 L 243.472656 66.550781 C 244.769531 69.214844 245.539062 72.371094 248.082031 75.070312 C 246.070312 70.839844 244.339844 66.980469 244.410156 62.515625 C 249.761719 63.703125 250.355469 63.546875 252.039062 60.671875 C 249.496094 63.242188 246.8125 62.054688 243.824219 60.84375 Z M 191.152344 26.453125 C 193.609375 25.507812 195.066406 23.625 196.066406 21.210938 C 197.441406 17.878906 200.226562 16.878906 203.496094 18.417969 C 204.578125 18.925781 205.554688 19.644531 206.585938 20.246094 C 207.789062 21.007812 209.097656 21.457031 210.515625 21.59375 C 211.933594 21.734375 213.304688 21.542969 214.628906 21.03125 C 217.359375 20.011719 218.613281 17.902344 218.171875 14.480469 L 216.976562 16.644531 L 216.242188 16.363281 C 216.9375 14.886719 216.109375 14.199219 215.214844 13.425781 C 212.808594 11.335938 210.398438 9.234375 208.121094 7 C 207.015625 5.898438 205.8125 4.917969 204.515625 4.050781 C 203.21875 3.1875 201.847656 2.457031 200.40625 1.859375 C 198.960938 1.265625 197.476562 0.816406 195.945312 0.511719 C 194.414062 0.207031 192.871094 0.0546875 191.308594 0.0507812 C 189.894531 0.0507812 188.421875 0.777344 187.046875 1.339844 C 185.972656 1.777344 185.066406 2.679688 183.972656 3.046875 C 182.578125 3.492188 181.351562 4.214844 180.292969 5.222656 C 179.230469 6.230469 178.441406 7.414062 177.925781 8.78125 C 176.25 12.84375 175.652344 17.058594 176.132812 21.429688 C 176.398438 23.96875 176.914062 26.476562 177.0625 29.015625 C 177.351562 33.136719 176.625 36.910156 173.152344 39.757812 C 171.117188 41.414062 171.179688 44.1875 173.152344 45.953125 C 175.359375 47.910156 177.683594 49.738281 179.972656 51.597656 C 180.539062 51.96875 181.132812 52.289062 181.75 52.566406 C 179.722656 47.390625 175.15625 45.046875 172.152344 41.023438 C 177.210938 38.496094 177.753906 33.769531 178.253906 28.515625 C 179.816406 31.003906 180.960938 32.949219 183.558594 33.261719 C 183.15625 32.542969 182.445312 32.152344 181.914062 31.582031 C 181.1875 30.828125 180.613281 29.96875 180.195312 29.007812 C 179.78125 28.050781 179.542969 27.046875 179.488281 26 C 179.402344 24.3125 179.730469 22.726562 181.40625 21.953125 C 183.078125 21.179688 184.496094 22.140625 185.769531 23.132812 C 186.242188 23.566406 186.628906 24.066406 186.929688 24.632812 C 187.359375 25.304688 187.710938 26.015625 188.328125 27.085938 C 189.285156 26.949219 190.226562 26.738281 191.152344 26.453125 Z M 194.945312 51.097656 C 196.902344 51.464844 198.90625 51.878906 200.710938 50.550781 C 202.519531 49.222656 205.625 43.835938 205.789062 41.242188 C 205.054688 42.039062 204.40625 42.898438 203.84375 43.820312 C 203.097656 45.046875 202.535156 46.398438 201.714844 47.558594 C 200.148438 49.777344 198.140625 50.347656 195.613281 49.386719 C 194.65625 48.964844 193.730469 48.484375 192.835938 47.949219 C 191.839844 47.414062 190.839844 46.96875 189.605469 47.621094 C 190.550781 49.410156 189.902344 50.855469 188.664062 52.144531 C 188.140625 52.683594 187.632812 53.191406 188.414062 53.964844 C 190.636719 53.722656 190.871094 51.816406 191.542969 49.980469 C 192.65625 50.417969 193.789062 50.789062 194.945312 51.089844 Z M 211.6875 23.140625 L 211.195312 23.0625 L 210.164062 30.472656 C 211.539062 28.164062 211.539062 25.671875 211.6875 23.132812 Z M 211.6875 23.140625 " fill-opacity="1" fill-rule="nonzero"/></g></svg>