<svg xmlns="http://www.w3.org/2000/svg" xmlns:xlink="http://www.w3.org/1999/xlink" width="500" zoomAndPan="magnify" viewBox="0 0 375 374.999991" height="500" preserveAspectRatio="xMidYMid meet" version="1.0"><defs><clipPath id="448b8a0054"><path d="M 0.75 59.238281 L 177 59.238281 L 177 282 L 0.75 282 Z M 0.75 59.238281 " clip-rule="nonzero"/></clipPath><clipPath id="0735e63b64"><path d="M 189 59.238281 L 374 59.238281 L 374 253.488281 L 189 253.488281 Z M 189 59.238281 " clip-rule="nonzero"/></clipPath></defs><g clip-path="url(#448b8a0054)"><path fill="#000000" d="M 75.007812 126.101562 C 68.972656 136.976562 57.847656 150.253906 50.515625 161.050781 C 31.621094 191.21875 15.875 223.890625 0.730469 255.902344 C 0.960938 256.902344 2.558594 257.546875 3.5625 258.046875 C 7.398438 259.773438 11.808594 260.273438 15.425781 262.523438 C 20.269531 265.800781 23.066406 269.609375 29.523438 269.230469 C 32.402344 269.328125 36.101562 268.683594 38.753906 269.339844 C 39.429688 269.574219 40.167969 270.09375 40.871094 270.734375 C 42.199219 271.824219 43.832031 273.300781 45.417969 274.332031 C 52.59375 279.59375 59.53125 275.558594 65.578125 275.792969 C 68.167969 276.996094 71.203125 279.757812 74.421875 280.289062 C 79.75 281.351562 89.5 282.085938 94.863281 281.195312 C 97.042969 280.894531 99.828125 278.824219 101.246094 277.847656 C 101.664062 277.5625 102.078125 277.300781 102.578125 277.453125 C 110.21875 279.640625 115.324219 281.695312 123.738281 274.765625 C 124.585938 274.125 125.25 273.589844 125.65625 273.339844 C 126.011719 273.117188 126.253906 273.160156 126.886719 273.507812 C 128.1875 274.214844 130.394531 275.667969 132.183594 275.785156 C 137.582031 276.328125 143.121094 275.199219 147.324219 271.691406 C 148.503906 270.648438 149.722656 268.855469 151.015625 268.03125 C 151.523438 267.769531 152.496094 268.035156 153.160156 268.210938 C 154.816406 268.71875 156.242188 268.820312 157.902344 268.59375 C 163.660156 268.085938 166.390625 266.675781 171.273438 263.628906 C 172.636719 262.695312 174.5625 262.355469 175.863281 261.511719 C 177.496094 260.214844 175.433594 256.324219 175.042969 254.777344 L 175.015625 254.691406 C 165.667969 228.351562 148.945312 194.707031 135.835938 168.914062 C 127.902344 154.097656 112.425781 126.703125 110.910156 121.09375 C 110.605469 117.457031 112.210938 112.546875 113.332031 108.480469 C 114.515625 103.894531 117.160156 98.757812 119.132812 93.921875 C 119.476562 93.070312 119.882812 92.113281 119.917969 91.421875 C 120.03125 89.25 118.832031 86.070312 117.992188 83.867188 C 116.980469 81.136719 115.632812 78.527344 116.640625 75.582031 C 117.402344 71.710938 121.476562 62.617188 118.179688 59.960938 C 117.289062 59.320312 115.710938 59.273438 114.695312 59.984375 C 112.917969 61.347656 112.546875 63.433594 112.082031 65.785156 C 111.558594 68.925781 111.511719 72.429688 111.113281 74.183594 C 111.015625 74.578125 110.941406 74.851562 110.703125 75.109375 C 106.796875 77.394531 101.527344 78.308594 98.109375 81.097656 C 95.800781 82.925781 93.597656 85.5 91.449219 87.558594 C 90.625 88.421875 89.671875 88.171875 88.890625 87.441406 C 85.15625 84.304688 81.257812 81.0625 76.496094 79.734375 C 75.21875 79.425781 73.597656 79.203125 72.238281 79.015625 C 71.0625 78.773438 70.144531 78.90625 69.261719 78.3125 C 67.417969 76.722656 66.957031 66.328125 64.097656 62.890625 C 63.046875 61.503906 61.636719 60.839844 59.75 61.476562 C 58.933594 61.742188 57.964844 62.28125 57.859375 63.1875 C 57.726562 66.34375 61.246094 74.484375 62.773438 78.117188 C 63.007812 78.683594 63.085938 79.203125 62.945312 79.851562 C 56.550781 94.898438 69.914062 106.367188 75.597656 119.742188 C 76.019531 120.996094 75.699219 122.328125 75.636719 123.609375 C 75.628906 124.679688 75.386719 125.34375 75.015625 126.097656 Z M 38.597656 267.566406 C 24.988281 271.179688 17.132812 259.671875 5.136719 256.78125 C 5.003906 256.75 4.878906 256.695312 4.769531 256.621094 L 4.328125 256.328125 C 4.035156 256.136719 4.152344 255.671875 4.507812 255.652344 C 13.195312 255.167969 21.109375 264.585938 28.640625 265.757812 C 31.589844 266.246094 34.632812 265.9375 37.601562 266.285156 C 38.316406 266.371094 39.953125 266.585938 39.914062 266.925781 C 39.929688 267.179688 38.988281 267.46875 38.601562 267.566406 Z M 39.535156 263.433594 C 39.234375 264.6875 38.242188 265.199219 37.070312 265.09375 C 29.738281 264.976562 22.894531 263.324219 17.746094 257.976562 C 17.058594 257.246094 16.898438 256.375 17.34375 255.433594 C 34.195312 219.503906 47.796875 180.996094 69.519531 147.550781 C 72.078125 143.558594 76.246094 137.109375 78.46875 134.046875 C 79.253906 132.914062 79.925781 132.160156 81.507812 131.972656 C 82.328125 131.917969 83.597656 132.074219 84.027344 132.613281 L 84.0625 132.664062 C 84.410156 133.285156 84.019531 134.09375 83.847656 134.742188 C 82.757812 138.054688 81.527344 141.363281 80.21875 144.679688 C 75.089844 157.648438 68.8125 170.332031 63.625 183.300781 C 53.347656 209.238281 47.808594 237.011719 39.535156 263.4375 Z M 76.734375 127.796875 C 76.246094 127.3125 77.21875 124.867188 78.601562 124.84375 C 83.015625 124.78125 93.988281 125.632812 99.582031 125.195312 C 102.925781 124.933594 105.777344 123.59375 108.171875 123.347656 C 108.964844 123.265625 110.480469 124.875 110.433594 125.839844 C 110.019531 127.253906 105.972656 128.578125 101.152344 129.257812 C 97.042969 129.835938 86.011719 129.746094 86.011719 129.746094 C 84.511719 129.617188 78.460938 129.519531 76.726562 127.792969 Z M 65.011719 273.832031 C 58.417969 278.085938 43.09375 273.898438 41.363281 268.148438 C 41.265625 267.824219 41.605469 267.539062 41.90625 267.691406 C 46.15625 269.832031 56.273438 273.183594 65.011719 272.851562 C 65.394531 272.859375 65.015625 273.722656 65.011719 273.832031 Z M 41.628906 264.703125 L 41.605469 264.625 C 51.023438 219.308594 67.167969 176.835938 84.878906 134.265625 C 85.441406 133.207031 86.371094 132.765625 87.492188 132.867188 C 88.628906 132.847656 89.183594 133.421875 88.863281 134.730469 C 88.375 137.246094 87.558594 139.675781 86.96875 142.160156 C 76.253906 183.941406 71.277344 227.824219 66.394531 270.265625 C 59.453125 273.457031 46.59375 270.8125 41.632812 264.703125 Z M 68.59375 275.175781 L 68.59375 275.105469 C 68.511719 274.105469 68.972656 273.351562 69.941406 273.859375 C 77.210938 276.871094 86.757812 277.9375 94.652344 277.316406 C 96.425781 277.195312 98.109375 275.933594 99.902344 275.691406 C 100.546875 275.609375 101.019531 275.753906 101.070312 276.046875 C 97.335938 282.75 70.597656 280.210938 68.59375 275.179688 Z M 68.195312 271.207031 L 68.183594 271.171875 C 69.8125 227.941406 79.703125 183.613281 87.730469 141.121094 C 88.265625 139.214844 89.316406 135.425781 89.757812 133.855469 C 89.941406 132.609375 91.449219 132.972656 92.472656 132.933594 C 93.234375 132.972656 93.457031 133.402344 93.316406 134.300781 C 93.132812 135.625 93.261719 137.066406 93.148438 138.441406 C 90.410156 183.164062 100.476562 227.339844 101.714844 271.9375 C 102.132812 279.597656 68.589844 275.542969 68.199219 271.207031 Z M 93.15625 155.300781 L 93.15625 155.210938 C 93.082031 149.234375 94.238281 143.195312 94.214844 137.332031 C 94.332031 135.816406 93.707031 133.632812 95.4375 132.894531 C 96.628906 132.496094 98.273438 132.226562 99.480469 132.601562 C 107.460938 177.074219 118.589844 221.890625 124.011719 266.996094 C 124.105469 268.003906 124.078125 268.699219 123.410156 269.257812 C 121.523438 271.304688 105.128906 276.660156 103.421875 272.089844 C 102.234375 233.1875 93.820312 194.070312 93.152344 155.308594 Z M 124.320312 271.300781 C 122.695312 278.050781 105.058594 278.710938 102.886719 276.226562 C 102.730469 276.046875 102.722656 275.757812 102.957031 275.613281 L 102.996094 275.585938 C 110.113281 274.890625 117.414062 274.804688 123.683594 270.644531 C 124.339844 270.320312 124.449219 270.761719 124.316406 271.300781 Z M 125.882812 268.492188 L 125.855469 268.421875 C 120.691406 223.109375 108.453125 178.863281 100.746094 134.007812 C 100.617188 133.101562 100.859375 132.179688 101.921875 132.03125 C 102.996094 131.738281 103.929688 132.183594 104.285156 133.210938 C 104.871094 134.632812 105.550781 136.03125 106.019531 137.460938 C 119.539062 178.875 131.863281 220.875 148.507812 261.164062 C 150.167969 267.652344 128.496094 274.148438 125.882812 268.492188 Z M 149.78125 266.585938 C 144.683594 273.695312 133.886719 276.75 126.277344 271.871094 L 126.277344 271.839844 C 126.332031 271.675781 126.933594 271.664062 127.199219 271.65625 C 136.289062 271.957031 138.273438 272.734375 146.136719 267.035156 C 146.976562 266.453125 147.710938 265.929688 148.265625 265.566406 C 148.839844 265.199219 149.300781 264.851562 149.941406 265.085938 C 150.546875 265.355469 150.117188 266.160156 149.78125 266.59375 Z M 173.4375 260.152344 C 173.828125 260.875 170.964844 261.875 170.734375 262.003906 C 164.886719 265.21875 158.09375 269.09375 151.792969 265.417969 L 151.792969 265.382812 C 151.777344 265.210938 152.339844 265.023438 152.59375 265.066406 C 155.367188 265.527344 158.097656 265.546875 161.226562 265.039062 C 164.152344 264.632812 167.292969 262.855469 169.863281 261.5 C 171.484375 260.644531 172.984375 259.316406 173.4375 260.160156 Z M 111.542969 129.828125 C 112.195312 130.273438 112.632812 131.183594 113.539062 132.523438 C 128.082031 156.398438 139.746094 183.265625 151.210938 208.886719 C 157.019531 221.789062 164.808594 237.800781 169.71875 250.613281 C 171.03125 254.089844 171.976562 256.929688 172.199219 258.652344 C 172.199219 258.785156 172.171875 258.914062 172.097656 259.039062 C 171.890625 259.351562 171.261719 259.71875 170.800781 259.886719 C 164.335938 262.632812 155.894531 266.492188 149.992188 261.5625 L 149.933594 261.496094 C 134 219.230469 118.875 176.4375 105.242188 133.335938 C 105.023438 132.679688 104.945312 131.949219 105.664062 131.554688 C 106.382812 131.179688 107.492188 130.59375 108.195312 131.222656 C 109.167969 132.109375 110.210938 134.597656 111.304688 135.820312 C 111.324219 135.828125 111.332031 135.820312 111.328125 135.792969 C 111.320312 135.566406 110.054688 133.175781 109.515625 131.992188 C 109.398438 131.722656 109.3125 131.46875 109.308594 131.207031 C 109.308594 130.253906 110.753906 129.527344 111.542969 129.835938 Z M 112.085938 73.945312 C 112.472656 71.667969 113.820312 61.792969 115.441406 60.964844 L 115.488281 60.945312 C 120.210938 60.132812 116.207031 74.003906 115.28125 76.761719 C 115.171875 77.058594 115.058594 77.28125 114.757812 77.460938 C 114.003906 77.871094 112.714844 77.863281 112.011719 77.382812 C 111.90625 77.292969 111.84375 77.183594 111.820312 77.050781 C 111.761719 76.539062 111.898438 75.421875 112.089844 73.945312 Z M 69.550781 79.78125 C 76.949219 79.53125 83.226562 84.871094 88.90625 89.347656 C 89.285156 89.652344 89.769531 90.007812 90.222656 89.96875 L 90.289062 89.96875 C 90.738281 89.914062 91.1875 89.480469 91.519531 89.128906 C 96.664062 83.800781 102.511719 79.109375 109.597656 76.636719 C 110.09375 76.476562 110.441406 76.339844 110.132812 76.601562 C 107.882812 78.367188 93.753906 90.261719 91.449219 91.902344 C 91.109375 91.9375 90.410156 91.429688 89.992188 91.171875 C 83.3125 86.832031 77.5 82.171875 69.570312 80.179688 C 68.828125 79.976562 68.714844 79.824219 69.542969 79.78125 Z M 60.453125 62.589844 L 60.492188 62.570312 C 63.46875 61.15625 68.003906 76.460938 67.167969 79.214844 C 64.042969 82.652344 57.8125 63.175781 60.453125 62.589844 Z M 63.242188 92.773438 C 63.484375 90.457031 63.414062 81.105469 65.734375 80.867188 L 65.796875 80.867188 C 75.027344 83.242188 83.992188 87.664062 90.542969 94.746094 C 91.226562 95.453125 91.675781 95.210938 92.09375 94.511719 C 94.917969 90.363281 110.160156 75.25 114.46875 79.371094 C 116.222656 81.304688 115.734375 85.574219 116.433594 88.597656 C 116.722656 89.75 116.214844 90.269531 115.058594 90.414062 C 110.601562 91.214844 105.789062 91.257812 101.507812 92.664062 C 99.121094 93.4375 97.191406 95.089844 95.097656 96.546875 C 94.460938 97.007812 93.882812 97.425781 93.4375 97.734375 C 92.703125 98.242188 92.46875 98.386719 92.042969 98.261719 C 87.585938 96.707031 82.417969 93.414062 77.535156 92.953125 C 73.285156 92.691406 69.105469 93.824219 64.917969 93.851562 C 64.082031 93.871094 63.140625 93.734375 63.234375 92.773438 Z M 65.320312 97.5 C 65.15625 97.292969 65.078125 97.105469 65.152344 96.902344 L 65.167969 96.863281 C 70.917969 92.089844 80.75 95.039062 87.480469 97.539062 C 89.0625 98.089844 90.464844 99.945312 91.980469 100.335938 C 94.445312 99.382812 103.585938 92.429688 109.992188 92.378906 C 111.527344 92.316406 118.046875 91.988281 117.234375 93.753906 C 116.015625 97.453125 113.617188 105.027344 112.144531 109.523438 C 110.328125 114.824219 109.476562 118.496094 108.601562 120.054688 C 108.207031 120.488281 107.53125 121.175781 106.910156 121.441406 C 105.34375 122.0625 101.933594 122.484375 97.984375 122.722656 C 94.699219 122.921875 91.039062 122.980469 87.78125 122.878906 C 85.417969 122.808594 83.273438 122.652344 81.640625 122.414062 C 80.40625 122.1875 79.617188 122.140625 78.835938 121.597656 C 76.453125 118.824219 69.136719 101.441406 65.3125 97.496094 Z M 76.382812 131.128906 C 78.085938 129.933594 78.972656 130.566406 78.933594 132.242188 C 78.894531 133.179688 77.699219 134.300781 77.21875 135.121094 C 50.878906 171.757812 34.761719 214.078125 17.039062 255.382812 C 16.640625 256.230469 16.535156 256.933594 15.644531 256.746094 C 13.679688 256.300781 7.003906 254.804688 5.253906 254.382812 C 4.535156 254.21875 5.03125 253.410156 5.238281 252.910156 C 7.386719 248.269531 9.875 243.710938 12.078125 239.101562 L 12.117188 239.019531 C 27.65625 206.566406 47.855469 165.042969 70.492188 137.003906 C 71.90625 135.316406 74.460938 132.402344 76.382812 131.128906 Z M 76.382812 131.128906 " fill-opacity="1" fill-rule="nonzero"/></g><path fill="#000000" d="M 130.453125 231.535156 C 134.023438 243.960938 139.15625 256.125 143.96875 268.097656 C 140.648438 255.601562 135.351562 243.472656 130.457031 231.535156 Z M 130.453125 231.535156 " fill-opacity="1" fill-rule="nonzero"/><g clip-path="url(#0735e63b64)"><path fill="#000000" d="M 334.820312 80.261719 C 330.054688 77.007812 320.613281 75.167969 316.882812 72.789062 C 312.953125 70.285156 312.246094 64.816406 306.417969 62.324219 C 301.496094 60.21875 286.007812 59.246094 280.253906 59.332031 C 273.207031 59.441406 262.117188 60.257812 255.589844 63.070312 C 250.152344 65.40625 248.753906 70.378906 245.125 72.785156 C 239.246094 76.675781 224.691406 79.414062 220.082031 85.867188 C 216.695312 90.605469 210.835938 112.644531 208.867188 119.507812 C 198.832031 154.527344 191.726562 190.710938 189.433594 227.140625 C 190.523438 230.105469 216.28125 233.640625 219.332031 228.636719 C 223.101562 222.457031 226.3125 174.207031 228.304688 162.855469 C 228.574219 161.308594 231.40625 147.410156 232.414062 147.535156 L 225.507812 236.589844 C 225.390625 238.070312 226.292969 239.433594 227.695312 239.914062 L 268.292969 253.675781 C 271.597656 253.105469 278.742188 239.058594 280.25 235.738281 C 283.613281 240.652344 286.621094 253.792969 293.703125 253.675781 C 297.445312 253.613281 320.542969 247.738281 325.101562 246.203125 C 327.023438 245.554688 335.394531 242.847656 335.941406 241.34375 L 328.835938 146.785156 L 343.414062 229.382812 C 346.429688 234.417969 372.1875 230.390625 373.3125 227.140625 C 369.714844 189.261719 362.144531 149.878906 350.886719 113.527344 C 347.574219 102.835938 344.003906 86.542969 334.816406 80.261719 Z M 315.011719 76.152344 C 315.699219 90.582031 298.097656 145.964844 294.457031 143.050781 L 289.597656 93.339844 C 292.21875 87.214844 294.875 89.957031 297.445312 88.480469 C 302.324219 85.675781 306.65625 73.191406 306.417969 67.550781 C 307.320312 66.800781 314.984375 75.539062 315.011719 76.148438 Z M 286.234375 94.464844 C 288.917969 95.378906 291.589844 144.148438 293.105469 150.46875 L 281.003906 172.203125 C 275.832031 163.25 267.304688 154.929688 267.511719 144.585938 C 267.597656 140.222656 273.96875 98.183594 275.398438 96.332031 C 276.074219 95.460938 285.71875 94.285156 286.238281 94.464844 Z M 271.285156 86.242188 C 271.492188 85.746094 278.777344 78.03125 280.304688 78.855469 C 281.8125 79.671875 289.378906 85.425781 289.597656 86.617188 C 291.023438 94.394531 268.320312 93.265625 271.285156 86.242188 Z M 304.15625 65.609375 C 303.34375 79.703125 297.75 97.660156 283.277344 78.082031 C 285.714844 76.996094 299.339844 64.539062 300.292969 64.355469 C 300.949219 64.230469 303.785156 65.058594 304.15625 65.609375 Z M 273.125 61.648438 C 276.101562 61.40625 298.160156 60.863281 298.453125 63.390625 C 296.375 65.640625 283.121094 76.609375 281 76.527344 C 280.050781 76.488281 262.359375 65.28125 262.488281 64.347656 C 263.941406 63.007812 271.101562 61.820312 273.125 61.652344 Z M 259.300781 63.871094 C 260.347656 63.789062 275.246094 76.480469 277.636719 77.644531 L 266.355469 87.558594 C 262.441406 85.34375 250.984375 64.539062 259.304688 63.871094 Z M 246.242188 76.902344 C 246.355469 76.332031 253.515625 68.222656 254.089844 68.304688 C 256.140625 73.699219 257.160156 82.1875 261.195312 86.617188 C 264.375 90.113281 269.050781 88.265625 272.40625 94.089844 L 265.304688 142.300781 C 261.597656 133.960938 257.273438 126.457031 254.601562 117.757812 C 252.867188 112.109375 245.527344 80.546875 246.242188 76.894531 Z M 203.261719 227.515625 C 193.6875 226.496094 187.515625 223.226562 192.542969 213.144531 L 219.542969 217.800781 C 221.050781 229.394531 212.816406 228.53125 203.261719 227.515625 Z M 231.296875 142.675781 C 230.96875 144.300781 226.847656 150.4375 226.066406 154.632812 C 222.441406 174.007812 223.894531 194.214844 220.671875 213.683594 C 219.265625 215.191406 194.695312 212.269531 193.925781 209.949219 C 199.972656 169.242188 207.878906 127.871094 221.453125 89.148438 C 222.359375 89.109375 226.496094 105.746094 226.8125 107.542969 C 227.824219 113.296875 232.09375 138.746094 231.300781 142.675781 Z M 329.125 183.777344 C 320.832031 185.886719 310.261719 193.890625 307.160156 182.667969 C 302.886719 196.871094 320.816406 187.058594 328.753906 188.03125 L 333.253906 240.636719 L 291.835938 251.371094 C 290.585938 251.046875 283.480469 234.460938 282.863281 232.371094 C 282.21875 230.171875 283.402344 219.472656 280.246094 219.289062 C 277.9375 219.15625 280.46875 229.394531 279.269531 233.128906 C 278.820312 234.535156 269.414062 251.082031 268.652344 251.367188 C 264.847656 252.800781 233.886719 238.132812 227.933594 236.953125 L 233.15625 189.269531 C 233.949219 187.285156 246.804688 193.234375 249.695312 192.433594 C 253.304688 191.433594 258.785156 182.460938 254.082031 183.410156 C 252.476562 183.734375 252.019531 188.195312 250.34375 188.640625 C 248.601562 189.105469 235.761719 181.589844 232.773438 181.921875 C 239.132812 147.9375 231.433594 119.269531 226.054688 85.863281 L 243.246094 77.640625 C 248.730469 113.121094 260.949219 148.375 280.992188 178.179688 C 300.484375 147.609375 312.347656 112.304688 318.367188 76.523438 L 335.1875 85.117188 C 333.925781 125.15625 321 150.042969 329.121094 183.773438 Z M 356.496094 228.261719 C 346.125 228.578125 345.875 229.410156 344.535156 218.542969 C 350.503906 218.96875 360.410156 215.503906 365.46875 215.554688 C 366.484375 215.5625 368.117188 215.253906 368.828125 215.925781 C 375.035156 228.0625 366.648438 227.949219 356.496094 228.261719 Z M 366.960938 211.816406 C 363.605469 212.339844 344.683594 215.882812 343.417969 213.683594 C 338.636719 189.957031 335.195312 166.0625 329.964844 141.179688 L 338.5625 88.484375 C 347.734375 117.1875 355.40625 131.75 361.121094 161.40625 C 361.9375 165.644531 368.925781 210.757812 366.96875 211.820312 Z M 366.960938 211.816406 " fill-opacity="1" fill-rule="nonzero"/></g><path fill="#000000" d="M 279.199219 201.921875 C 274.558594 202.429688 274.933594 212 279.949219 211.636719 C 284.875 211.28125 284.304688 201.359375 279.199219 201.921875 Z M 279.199219 201.921875 " fill-opacity="1" fill-rule="nonzero"/><path fill="#000000" d="M 279.949219 195.941406 C 284.859375 195.589844 283.910156 186.378906 279.199219 186.96875 C 274.5625 187.554688 275.144531 196.285156 279.949219 195.941406 Z M 279.949219 195.941406 " fill-opacity="1" fill-rule="nonzero"/></svg>