<svg xmlns="http://www.w3.org/2000/svg" xmlns:xlink="http://www.w3.org/1999/xlink" width="500" zoomAndPan="magnify" viewBox="0 0 375 374.999991" height="500" preserveAspectRatio="xMidYMid meet" version="1.0"><defs><clipPath id="8b3a159340"><path d="M 183 102.1875 L 193 102.1875 L 193 112 L 183 112 Z M 183 102.1875 " clip-rule="nonzero"/></clipPath><clipPath id="5ed518be73"><path d="M 0 251 L 375 251 L 375 273.1875 L 0 273.1875 Z M 0 251 " clip-rule="nonzero"/></clipPath></defs><path fill="#000000" d="M 241.761719 171.222656 C 239.265625 171.222656 237.234375 173.257812 237.234375 175.757812 C 237.234375 178.261719 239.265625 180.296875 241.761719 180.296875 C 244.257812 180.296875 246.289062 178.261719 246.289062 175.757812 C 246.289062 173.257812 244.257812 171.222656 241.761719 171.222656 Z M 241.761719 171.222656 " fill-opacity="1" fill-rule="nonzero"/><path fill="#000000" d="M 240.699219 186.5 C 240.699219 189.003906 242.726562 191.039062 245.222656 191.039062 C 247.71875 191.039062 249.75 189.003906 249.75 186.5 C 249.75 184 247.71875 181.964844 245.222656 181.964844 C 242.726562 181.964844 240.699219 184 240.699219 186.5 Z M 240.699219 186.5 " fill-opacity="1" fill-rule="nonzero"/><path fill="#000000" d="M 252.773438 182.679688 C 255.269531 182.679688 257.300781 180.644531 257.300781 178.140625 C 257.300781 175.640625 255.269531 173.605469 252.773438 173.605469 C 250.277344 173.605469 248.246094 175.640625 248.246094 178.140625 C 248.246094 180.644531 250.277344 182.679688 252.773438 182.679688 Z M 252.773438 182.679688 " fill-opacity="1" fill-rule="nonzero"/><path fill="#000000" d="M 259.488281 192.140625 C 259.488281 192.4375 259.460938 192.734375 259.402344 193.023438 C 259.34375 193.316406 259.257812 193.601562 259.144531 193.875 C 259.03125 194.152344 258.890625 194.414062 258.726562 194.660156 C 258.558594 194.910156 258.371094 195.136719 258.164062 195.347656 C 257.953125 195.558594 257.722656 195.746094 257.476562 195.914062 C 257.230469 196.078125 256.96875 196.21875 256.695312 196.332031 C 256.417969 196.445312 256.136719 196.53125 255.84375 196.589844 C 255.554688 196.648438 255.257812 196.675781 254.960938 196.675781 C 254.664062 196.675781 254.371094 196.648438 254.078125 196.589844 C 253.785156 196.53125 253.503906 196.445312 253.230469 196.332031 C 252.953125 196.21875 252.695312 196.078125 252.445312 195.914062 C 252.199219 195.746094 251.96875 195.558594 251.761719 195.347656 C 251.550781 195.136719 251.363281 194.910156 251.199219 194.660156 C 251.03125 194.414062 250.894531 194.152344 250.777344 193.875 C 250.664062 193.601562 250.578125 193.316406 250.523438 193.023438 C 250.464844 192.734375 250.433594 192.4375 250.433594 192.140625 C 250.433594 191.84375 250.464844 191.546875 250.523438 191.253906 C 250.578125 190.960938 250.664062 190.679688 250.777344 190.402344 C 250.894531 190.128906 251.03125 189.867188 251.199219 189.621094 C 251.363281 189.371094 251.550781 189.140625 251.761719 188.933594 C 251.96875 188.722656 252.199219 188.53125 252.445312 188.367188 C 252.695312 188.203125 252.953125 188.0625 253.230469 187.949219 C 253.503906 187.835938 253.785156 187.75 254.078125 187.691406 C 254.371094 187.632812 254.664062 187.601562 254.960938 187.601562 C 255.257812 187.601562 255.554688 187.632812 255.84375 187.691406 C 256.136719 187.75 256.417969 187.835938 256.695312 187.949219 C 256.96875 188.0625 257.230469 188.203125 257.476562 188.367188 C 257.722656 188.535156 257.953125 188.722656 258.164062 188.933594 C 258.371094 189.140625 258.558594 189.371094 258.726562 189.621094 C 258.890625 189.867188 259.03125 190.128906 259.144531 190.402344 C 259.257812 190.679688 259.34375 190.960938 259.402344 191.253906 C 259.460938 191.546875 259.488281 191.84375 259.488281 192.140625 Z M 259.488281 192.140625 " fill-opacity="1" fill-rule="nonzero"/><path fill="#000000" d="M 243.425781 155.441406 L 236.632812 158.285156 L 234.886719 164.539062 L 235.703125 164.203125 C 237.886719 163.316406 239.621094 162.140625 240.863281 160.710938 C 241.871094 159.550781 242.648438 158.070312 243.167969 156.316406 Z M 243.425781 155.441406 " fill-opacity="1" fill-rule="nonzero"/><path fill="#000000" d="M 264.023438 172.769531 C 261.457031 172.769531 259.449219 174.664062 259.449219 177.082031 C 259.449219 179.503906 261.503906 181.597656 264.128906 181.847656 C 264.265625 181.859375 264.398438 181.867188 264.53125 181.867188 C 265.484375 181.867188 266.355469 181.535156 267.066406 180.894531 C 268.007812 180.042969 268.535156 178.765625 268.550781 177.292969 C 268.5625 176.101562 268.105469 174.976562 267.261719 174.121094 C 266.398438 173.25 265.25 172.769531 264.023438 172.769531 Z M 264.023438 172.769531 " fill-opacity="1" fill-rule="nonzero"/><path fill="#000000" d="M 98.328125 255.183594 C 99.992188 255.183594 101.574219 254.554688 102.78125 253.410156 C 104.109375 252.164062 104.835938 250.476562 104.835938 248.660156 C 104.835938 248.0625 104.757812 247.488281 104.605469 246.949219 C 104.234375 245.578125 103.410156 244.34375 102.28125 243.472656 L 102.183594 243.40625 C 100.28125 241.992188 97.667969 241.742188 95.460938 242.792969 C 93.210938 243.902344 91.816406 246.148438 91.816406 248.660156 C 91.816406 250.117188 92.285156 251.496094 93.171875 252.648438 C 94.421875 254.261719 96.300781 255.183594 98.328125 255.183594 Z M 98.328125 255.183594 " fill-opacity="1" fill-rule="nonzero"/><path fill="#000000" d="M 111.566406 256.789062 C 135.847656 258.253906 160.28125 258.984375 184.71875 258.984375 C 210.964844 258.984375 237.210938 258.140625 263.257812 256.453125 C 263.910156 256.414062 264.058594 256.078125 264.085938 255.882812 C 264.1875 255.226562 263.199219 254.769531 262.753906 254.601562 L 262.660156 254.554688 C 261.984375 254.285156 261.351562 253.972656 260.78125 253.628906 C 259.65625 252.953125 258.597656 252.074219 257.632812 251.007812 L 257.492188 250.855469 L 257.289062 250.867188 C 237.179688 252.011719 215.566406 252.589844 193.050781 252.589844 C 191.917969 252.589844 190.785156 252.585938 189.644531 252.582031 L 188.070312 252.574219 L 187.949219 252.582031 C 187.855469 252.589844 187.710938 252.597656 187.550781 252.582031 L 187.433594 252.570312 C 165.058594 252.476562 142.015625 251.824219 118.953125 250.628906 L 118.746094 250.617188 L 118.609375 250.773438 C 117.628906 251.867188 116.546875 252.773438 115.398438 253.460938 C 114.832031 253.804688 114.199219 254.113281 113.492188 254.40625 L 113.605469 254.824219 L 113.410156 254.433594 C 112.804688 254.667969 112.160156 254.867188 111.492188 255.03125 C 110.148438 255.355469 109.59375 255.570312 109.640625 256.085938 C 109.683594 256.59375 110.269531 256.710938 111.566406 256.789062 Z M 111.566406 256.789062 " fill-opacity="1" fill-rule="nonzero"/><path fill="#000000" d="M 315.890625 201.09375 C 315.890625 198.59375 313.859375 196.558594 311.363281 196.558594 C 308.867188 196.558594 306.835938 198.59375 306.835938 201.09375 C 306.835938 203.597656 308.867188 205.632812 311.363281 205.632812 C 313.859375 205.632812 315.890625 203.597656 315.890625 201.09375 Z M 315.890625 201.09375 " fill-opacity="1" fill-rule="nonzero"/><path fill="#000000" d="M 94.253906 226.117188 C 93.277344 228.066406 92.765625 229.972656 92.734375 231.792969 C 92.699219 233.941406 93.292969 236.257812 94.5 238.675781 L 94.878906 239.4375 L 98.257812 232.960938 L 94.652344 225.324219 Z M 94.253906 226.117188 " fill-opacity="1" fill-rule="nonzero"/><path fill="#000000" d="M 104.546875 211.8125 C 107.042969 211.8125 109.070312 209.777344 109.070312 207.273438 C 109.070312 204.773438 107.042969 202.738281 104.546875 202.738281 C 102.050781 202.738281 100.019531 204.773438 100.019531 207.273438 C 100.019531 209.777344 102.050781 211.8125 104.546875 211.8125 Z M 104.546875 211.8125 " fill-opacity="1" fill-rule="nonzero"/><path fill="#000000" d="M 96.0625 223.164062 L 100.222656 231.976562 L 106.234375 232.8125 L 106.261719 232.226562 C 106.269531 232.15625 106.273438 232.085938 106.273438 232.019531 C 106.363281 226.402344 101.917969 221.34375 100 219.429688 L 99.707031 219.132812 L 99.398438 219.417969 C 98.914062 219.871094 98.164062 220.609375 97.34375 221.5625 L 97.332031 221.578125 C 97.222656 221.71875 97.109375 221.851562 96.976562 221.996094 C 96.726562 222.300781 96.472656 222.621094 96.21875 222.957031 Z M 96.0625 223.164062 " fill-opacity="1" fill-rule="nonzero"/><path fill="#000000" d="M 102.273438 240.878906 L 102.601562 241.046875 L 102.820312 240.75 C 104.128906 238.972656 105.082031 237.195312 105.648438 235.472656 L 105.8125 234.980469 L 100.101562 234.183594 L 97.0625 240.003906 L 97.996094 239.945312 C 99.476562 239.84375 100.949219 240.199219 102.273438 240.878906 Z M 102.273438 240.878906 " fill-opacity="1" fill-rule="nonzero"/><path fill="#000000" d="M 106.902344 253.332031 C 108.378906 253.332031 109.757812 253.179688 111.007812 252.871094 L 111.511719 252.75 L 109.203125 247.554688 L 107 247.953125 L 107.011719 248.328125 C 107.015625 248.386719 107.019531 248.445312 107.027344 248.503906 C 107.03125 248.554688 107.035156 248.605469 107.035156 248.660156 C 107.035156 250.039062 106.691406 251.4375 106.035156 252.691406 L 105.714844 253.308594 L 106.410156 253.328125 C 106.574219 253.328125 106.738281 253.332031 106.902344 253.332031 Z M 106.902344 253.332031 " fill-opacity="1" fill-rule="nonzero"/><path fill="#000000" d="M 106.550781 245.796875 L 109.191406 245.320312 L 113.792969 238.152344 L 112.910156 238.230469 C 110.742188 238.429688 108.855469 239.003906 107.296875 239.941406 C 106.382812 240.492188 105.496094 241.214844 104.667969 242.089844 L 104.386719 242.386719 L 104.667969 242.683594 C 105.425781 243.496094 106.015625 244.429688 106.421875 245.464844 Z M 106.550781 245.796875 " fill-opacity="1" fill-rule="nonzero"/><path fill="#000000" d="M 243.101562 230.269531 C 243.101562 232.773438 245.128906 234.808594 247.625 234.808594 C 250.121094 234.808594 252.152344 232.773438 252.152344 230.269531 C 252.152344 227.769531 250.121094 225.734375 247.625 225.734375 C 245.128906 225.734375 243.101562 227.769531 243.101562 230.269531 Z M 243.101562 230.269531 " fill-opacity="1" fill-rule="nonzero"/><path fill="#000000" d="M 278.085938 196.316406 C 278.085938 193.816406 276.058594 191.78125 273.5625 191.78125 C 271.066406 191.78125 269.035156 193.816406 269.035156 196.316406 C 269.035156 198.820312 271.066406 200.855469 273.5625 200.855469 C 276.058594 200.855469 278.085938 198.820312 278.085938 196.316406 Z M 278.085938 196.316406 " fill-opacity="1" fill-rule="nonzero"/><path fill="#000000" d="M 331.144531 230.796875 C 331.175781 230.796875 331.207031 230.796875 331.238281 230.796875 C 333.734375 230.742188 335.71875 228.660156 335.664062 226.160156 C 335.613281 223.714844 333.582031 221.722656 331.140625 221.722656 L 331.042969 221.726562 C 330.789062 221.730469 330.546875 221.769531 330.253906 221.832031 C 329.996094 221.921875 329.738281 222 329.390625 222.085938 C 327.664062 222.8125 326.570312 224.492188 326.613281 226.359375 C 326.667969 228.824219 328.691406 230.796875 331.144531 230.796875 Z M 331.144531 230.796875 " fill-opacity="1" fill-rule="nonzero"/><path fill="#000000" d="M 276.929688 185.042969 C 276.929688 185.339844 276.902344 185.632812 276.84375 185.925781 C 276.785156 186.21875 276.699219 186.503906 276.585938 186.777344 C 276.472656 187.050781 276.332031 187.3125 276.167969 187.5625 C 276.003906 187.808594 275.816406 188.039062 275.605469 188.25 C 275.394531 188.460938 275.167969 188.648438 274.917969 188.8125 C 274.671875 188.980469 274.410156 189.117188 274.136719 189.234375 C 273.863281 189.347656 273.578125 189.433594 273.289062 189.492188 C 272.996094 189.550781 272.703125 189.578125 272.402344 189.578125 C 272.105469 189.578125 271.8125 189.550781 271.519531 189.492188 C 271.230469 189.433594 270.945312 189.347656 270.671875 189.234375 C 270.398438 189.117188 270.136719 188.980469 269.890625 188.8125 C 269.640625 188.648438 269.414062 188.460938 269.203125 188.25 C 268.992188 188.039062 268.804688 187.808594 268.640625 187.5625 C 268.476562 187.3125 268.335938 187.050781 268.222656 186.777344 C 268.109375 186.503906 268.023438 186.21875 267.964844 185.925781 C 267.90625 185.632812 267.878906 185.339844 267.878906 185.042969 C 267.878906 184.742188 267.90625 184.449219 267.964844 184.15625 C 268.023438 183.863281 268.109375 183.582031 268.222656 183.304688 C 268.335938 183.03125 268.476562 182.769531 268.640625 182.519531 C 268.804688 182.273438 268.992188 182.042969 269.203125 181.832031 C 269.414062 181.621094 269.640625 181.433594 269.890625 181.269531 C 270.136719 181.105469 270.398438 180.964844 270.671875 180.851562 C 270.945312 180.734375 271.230469 180.648438 271.519531 180.589844 C 271.8125 180.535156 272.105469 180.503906 272.402344 180.503906 C 272.703125 180.503906 272.996094 180.535156 273.289062 180.589844 C 273.578125 180.648438 273.863281 180.734375 274.136719 180.851562 C 274.410156 180.964844 274.671875 181.105469 274.917969 181.269531 C 275.167969 181.433594 275.394531 181.621094 275.605469 181.832031 C 275.816406 182.042969 276.003906 182.273438 276.167969 182.519531 C 276.332031 182.769531 276.472656 183.03125 276.585938 183.304688 C 276.699219 183.582031 276.785156 183.863281 276.84375 184.15625 C 276.902344 184.449219 276.929688 184.742188 276.929688 185.042969 Z M 276.929688 185.042969 " fill-opacity="1" fill-rule="nonzero"/><path fill="#000000" d="M 278.835938 221.730469 C 278.015625 220.777344 277.265625 220.039062 276.777344 219.585938 L 276.472656 219.300781 L 276.179688 219.59375 C 274.261719 221.511719 269.8125 226.566406 269.902344 232.179688 C 269.90625 232.25 269.910156 232.324219 269.914062 232.394531 L 269.945312 232.980469 L 275.953125 232.144531 L 280.113281 223.332031 L 279.957031 223.125 C 279.707031 222.785156 279.453125 222.46875 279.1875 222.148438 C 279.070312 222.019531 278.957031 221.886719 278.847656 221.746094 Z M 278.835938 221.730469 " fill-opacity="1" fill-rule="nonzero"/><path fill="#000000" d="M 267.105469 207.441406 C 267.105469 209.945312 269.136719 211.980469 271.632812 211.980469 C 274.128906 211.980469 276.160156 209.945312 276.160156 207.441406 C 276.160156 204.941406 274.128906 202.90625 271.632812 202.90625 C 269.136719 202.90625 267.105469 204.941406 267.105469 207.441406 Z M 267.105469 207.441406 " fill-opacity="1" fill-rule="nonzero"/><path fill="#000000" d="M 232.402344 233.765625 C 232.402344 236.265625 234.433594 238.300781 236.929688 238.300781 C 239.425781 238.300781 241.457031 236.265625 241.457031 233.765625 C 241.457031 231.261719 239.425781 229.226562 236.929688 229.226562 C 234.433594 229.226562 232.402344 231.261719 232.402344 233.765625 Z M 232.402344 233.765625 " fill-opacity="1" fill-rule="nonzero"/><path fill="#000000" d="M 261.246094 223.628906 C 261.246094 221.128906 259.214844 219.09375 256.71875 219.09375 C 254.222656 219.09375 252.191406 221.128906 252.191406 223.628906 C 252.191406 226.132812 254.222656 228.167969 256.71875 228.167969 C 259.214844 228.167969 261.246094 226.132812 261.246094 223.628906 Z M 261.246094 223.628906 " fill-opacity="1" fill-rule="nonzero"/><path fill="#000000" d="M 107.144531 196.148438 C 107.144531 193.648438 105.113281 191.613281 102.617188 191.613281 C 100.121094 191.613281 98.089844 193.648438 98.089844 196.148438 C 98.089844 198.652344 100.121094 200.6875 102.617188 200.6875 C 105.113281 200.6875 107.144531 198.652344 107.144531 196.148438 Z M 107.144531 196.148438 " fill-opacity="1" fill-rule="nonzero"/><path fill="#000000" d="M 270.472656 217.183594 C 270.472656 217.480469 270.441406 217.777344 270.386719 218.070312 C 270.328125 218.363281 270.242188 218.644531 270.128906 218.921875 C 270.015625 219.195312 269.875 219.457031 269.710938 219.703125 C 269.542969 219.953125 269.355469 220.179688 269.144531 220.390625 C 268.9375 220.601562 268.707031 220.789062 268.460938 220.957031 C 268.214844 221.121094 267.953125 221.261719 267.675781 221.375 C 267.402344 221.488281 267.121094 221.574219 266.828125 221.632812 C 266.535156 221.691406 266.242188 221.722656 265.945312 221.722656 C 265.648438 221.722656 265.355469 221.691406 265.0625 221.632812 C 264.769531 221.574219 264.488281 221.488281 264.210938 221.375 C 263.9375 221.261719 263.675781 221.121094 263.429688 220.957031 C 263.183594 220.789062 262.953125 220.601562 262.746094 220.390625 C 262.535156 220.179688 262.347656 219.953125 262.179688 219.703125 C 262.015625 219.457031 261.875 219.195312 261.761719 218.921875 C 261.648438 218.644531 261.5625 218.363281 261.503906 218.070312 C 261.449219 217.777344 261.417969 217.480469 261.417969 217.183594 C 261.417969 216.886719 261.449219 216.589844 261.503906 216.300781 C 261.5625 216.007812 261.648438 215.722656 261.761719 215.449219 C 261.875 215.171875 262.015625 214.910156 262.179688 214.664062 C 262.347656 214.414062 262.535156 214.1875 262.746094 213.976562 C 262.953125 213.765625 263.183594 213.578125 263.429688 213.410156 C 263.675781 213.246094 263.9375 213.105469 264.210938 212.992188 C 264.488281 212.878906 264.769531 212.792969 265.0625 212.734375 C 265.355469 212.675781 265.648438 212.648438 265.945312 212.648438 C 266.242188 212.648438 266.535156 212.675781 266.828125 212.734375 C 267.121094 212.792969 267.402344 212.878906 267.675781 212.992188 C 267.953125 213.105469 268.214844 213.246094 268.460938 213.410156 C 268.707031 213.578125 268.9375 213.765625 269.144531 213.976562 C 269.355469 214.1875 269.542969 214.414062 269.710938 214.664062 C 269.875 214.910156 270.015625 215.171875 270.128906 215.449219 C 270.242188 215.722656 270.328125 216.007812 270.386719 216.300781 C 270.441406 216.589844 270.472656 216.886719 270.472656 217.183594 Z M 270.472656 217.183594 " fill-opacity="1" fill-rule="nonzero"/><path fill="#000000" d="M 325.511719 211.707031 L 325.402344 211.789062 C 324.203125 212.640625 323.484375 214.023438 323.484375 215.484375 C 323.484375 217.984375 325.515625 220.019531 328.011719 220.019531 C 328.246094 220.019531 328.488281 219.996094 328.863281 219.925781 C 329.152344 219.820312 329.441406 219.738281 329.796875 219.648438 C 331.460938 218.929688 332.539062 217.292969 332.539062 215.484375 C 332.539062 212.984375 330.507812 210.949219 328.011719 210.949219 C 327.121094 210.949219 326.257812 211.210938 325.511719 211.707031 Z M 325.511719 211.707031 " fill-opacity="1" fill-rule="nonzero"/><path fill="#000000" d="M 323.777344 210.253906 L 323.886719 210.171875 C 325.085938 209.320312 325.804688 207.9375 325.804688 206.476562 C 325.804688 203.976562 323.773438 201.941406 321.277344 201.941406 C 318.78125 201.941406 316.75 203.976562 316.75 206.476562 C 316.75 208.976562 318.78125 211.011719 321.277344 211.011719 C 322.167969 211.011719 323.03125 210.75 323.777344 210.253906 Z M 323.777344 210.253906 " fill-opacity="1" fill-rule="nonzero"/><path fill="#000000" d="M 281.300781 239.605469 L 281.679688 238.84375 C 282.886719 236.421875 283.480469 234.105469 283.445312 231.957031 C 283.414062 230.140625 282.902344 228.234375 281.925781 226.285156 L 281.527344 225.492188 L 277.921875 233.128906 Z M 281.300781 239.605469 " fill-opacity="1" fill-rule="nonzero"/><path fill="#000000" d="M 325.015625 238.164062 C 325.039062 238.3125 325.070312 238.464844 325.113281 238.613281 C 325.554688 240.203125 327.597656 241.703125 329.371094 241.703125 C 329.378906 241.703125 329.382812 241.703125 329.390625 241.703125 L 330.089844 241.617188 C 331.558594 241.285156 333.027344 240.023438 333.574219 238.617188 C 334.234375 236.933594 333.546875 234.703125 332.042969 233.648438 C 330.523438 232.578125 328.25 232.652344 326.761719 233.820312 C 325.527344 234.792969 324.792969 236.617188 325.015625 238.164062 Z M 325.015625 238.164062 " fill-opacity="1" fill-rule="nonzero"/><path fill="#000000" d="M 279.59375 217.519531 C 279.59375 218.503906 279.898438 219.449219 280.496094 220.285156 C 280.648438 220.457031 280.796875 220.636719 280.976562 220.851562 C 281.863281 221.738281 283.039062 222.222656 284.285156 222.222656 C 286.871094 222.222656 288.976562 220.113281 288.976562 217.519531 C 288.976562 214.929688 286.871094 212.820312 284.285156 212.820312 C 281.695312 212.820312 279.59375 214.925781 279.59375 217.519531 Z M 279.59375 217.519531 " fill-opacity="1" fill-rule="nonzero"/><path fill="#000000" d="M 290.734375 203.523438 C 288.238281 203.523438 286.207031 205.558594 286.207031 208.0625 C 286.207031 210.5625 288.238281 212.597656 290.734375 212.597656 C 293.230469 212.597656 295.261719 210.5625 295.261719 208.0625 C 295.261719 205.558594 293.230469 203.523438 290.734375 203.523438 Z M 290.734375 203.523438 " fill-opacity="1" fill-rule="nonzero"/><path fill="#000000" d="M 286.773438 237.664062 L 286.3125 237.921875 L 290.507812 242.886719 L 298.550781 241.457031 L 298.625 241.199219 C 299.167969 239.332031 299.421875 237.640625 299.539062 236.550781 L 299.585938 236.136719 L 299.171875 236.078125 C 296.902344 235.742188 291.152344 235.230469 286.773438 237.664062 Z M 286.773438 237.664062 " fill-opacity="1" fill-rule="nonzero"/><path fill="#000000" d="M 46.394531 232.703125 L 46.304688 232.714844 C 46.238281 232.726562 46.167969 232.734375 46.097656 232.742188 L 45.96875 232.761719 C 44.046875 233.160156 42.550781 234.726562 42.246094 236.660156 C 42.050781 237.90625 42.351562 239.160156 43.097656 240.183594 C 43.839844 241.207031 44.933594 241.878906 46.183594 242.074219 C 46.429688 242.113281 46.675781 242.132812 46.917969 242.132812 C 49.203125 242.132812 51.222656 240.464844 51.585938 238.132812 C 51.992188 235.554688 50.226562 233.125 47.652344 232.714844 C 47.226562 232.648438 46.800781 232.648438 46.394531 232.703125 Z M 46.394531 232.703125 " fill-opacity="1" fill-rule="nonzero"/><path fill="#000000" d="M 46.707031 221.890625 C 46.441406 221.832031 46.179688 221.753906 45.859375 221.644531 C 45.648438 221.605469 45.402344 221.5625 45.140625 221.558594 L 45.039062 221.554688 C 42.597656 221.554688 40.566406 223.546875 40.511719 225.992188 C 40.488281 227.207031 40.933594 228.355469 41.769531 229.230469 C 42.605469 230.105469 43.730469 230.601562 44.9375 230.628906 C 44.964844 230.628906 44.988281 230.628906 45.015625 230.628906 C 45.230469 230.628906 45.445312 230.605469 45.675781 230.574219 L 45.796875 230.550781 C 45.855469 230.539062 45.917969 230.523438 46.015625 230.511719 C 46.835938 230.332031 47.578125 229.933594 48.167969 229.371094 C 49.042969 228.53125 49.539062 227.402344 49.566406 226.191406 C 49.605469 224.320312 48.515625 222.644531 46.707031 221.890625 Z M 46.707031 221.890625 " fill-opacity="1" fill-rule="nonzero"/><path fill="#000000" d="M 54.898438 201.773438 C 52.402344 201.773438 50.375 203.808594 50.375 206.308594 C 50.375 207.769531 51.089844 209.152344 52.328125 210.03125 L 52.398438 210.085938 C 53.144531 210.582031 54.011719 210.847656 54.898438 210.847656 C 57.394531 210.847656 59.425781 208.808594 59.425781 206.308594 C 59.425781 203.808594 57.394531 201.773438 54.898438 201.773438 Z M 54.898438 201.773438 " fill-opacity="1" fill-rule="nonzero"/><path fill="#000000" d="M 99.246094 184.875 C 99.246094 187.375 101.277344 189.410156 103.773438 189.410156 C 106.269531 189.410156 108.300781 187.375 108.300781 184.875 C 108.300781 182.371094 106.269531 180.335938 103.773438 180.335938 C 101.277344 180.335938 99.246094 182.371094 99.246094 184.875 Z M 99.246094 184.875 " fill-opacity="1" fill-rule="nonzero"/><path fill="#000000" d="M 46.371094 219.480469 L 46.457031 219.503906 C 46.734375 219.5625 47.015625 219.648438 47.398438 219.777344 C 47.617188 219.8125 47.882812 219.851562 48.167969 219.851562 C 50.664062 219.851562 52.695312 217.820312 52.695312 215.316406 C 52.695312 213.855469 51.976562 212.472656 50.742188 211.59375 L 50.429688 211.902344 L 50.703125 211.5625 L 50.667969 211.539062 C 49.925781 211.042969 49.058594 210.78125 48.167969 210.78125 C 45.671875 210.78125 43.640625 212.816406 43.640625 215.316406 C 43.640625 217.125 44.714844 218.757812 46.371094 219.480469 Z M 46.371094 219.480469 " fill-opacity="1" fill-rule="nonzero"/><path fill="#000000" d="M 85.445312 203.355469 C 82.949219 203.355469 80.917969 205.390625 80.917969 207.894531 C 80.917969 210.394531 82.949219 212.429688 85.445312 212.429688 C 87.941406 212.429688 89.972656 210.394531 89.972656 207.894531 C 89.972656 205.390625 87.941406 203.355469 85.445312 203.355469 Z M 85.445312 203.355469 " fill-opacity="1" fill-rule="nonzero"/><path fill="#000000" d="M 69.34375 200.925781 C 69.34375 198.425781 67.3125 196.390625 64.816406 196.390625 C 62.320312 196.390625 60.289062 198.425781 60.289062 200.925781 C 60.289062 203.429688 62.320312 205.464844 64.816406 205.464844 C 67.3125 205.464844 69.34375 203.429688 69.34375 200.925781 Z M 69.34375 200.925781 " fill-opacity="1" fill-rule="nonzero"/><path fill="#000000" d="M 76.59375 235.96875 L 76.640625 236.386719 C 76.757812 237.460938 77.007812 239.128906 77.535156 240.964844 L 77.613281 241.242188 L 85.210938 242.101562 L 91.171875 238.6875 L 90.640625 238.292969 C 86.195312 234.984375 79.625 235.523438 77.007812 235.910156 Z M 76.59375 235.96875 " fill-opacity="1" fill-rule="nonzero"/><path fill="#000000" d="M 269.28125 253.5 C 269.441406 253.5 269.605469 253.496094 269.769531 253.496094 L 270.464844 253.480469 L 270.144531 252.859375 C 269.488281 251.601562 269.144531 250.207031 269.144531 248.828125 C 269.144531 248.773438 269.148438 248.722656 269.152344 248.671875 C 269.160156 248.613281 269.164062 248.554688 269.164062 248.496094 L 269.179688 248.121094 L 266.976562 247.722656 L 264.667969 252.917969 L 265.171875 253.039062 C 266.417969 253.34375 267.800781 253.5 269.28125 253.5 Z M 269.28125 253.5 " fill-opacity="1" fill-rule="nonzero"/><path fill="#000000" d="M 271.792969 242.550781 L 271.507812 242.253906 C 270.679688 241.378906 269.796875 240.660156 268.882812 240.109375 C 267.328125 239.171875 265.4375 238.597656 263.269531 238.398438 L 262.386719 238.320312 L 266.988281 245.488281 L 269.625 245.960938 L 269.753906 245.628906 C 270.160156 244.597656 270.75 243.664062 271.511719 242.851562 Z M 271.792969 242.550781 " fill-opacity="1" fill-rule="nonzero"/><path fill="#000000" d="M 91.894531 212.652344 C 89.308594 212.652344 87.203125 214.761719 87.203125 217.351562 C 87.203125 219.945312 89.308594 222.054688 91.894531 222.054688 C 93.140625 222.054688 94.3125 221.566406 95.230469 220.652344 C 95.378906 220.46875 95.53125 220.289062 95.707031 220.085938 C 96.28125 219.28125 96.585938 218.335938 96.585938 217.351562 C 96.585938 214.761719 94.480469 212.652344 91.894531 212.652344 Z M 91.894531 212.652344 " fill-opacity="1" fill-rule="nonzero"/><path fill="#000000" d="M 26.191406 220.171875 C 24.992188 219.984375 23.796875 220.277344 22.824219 220.988281 C 21.847656 221.699219 21.203125 222.753906 21.015625 223.949219 C 20.628906 226.421875 22.316406 228.746094 24.785156 229.136719 C 25.019531 229.175781 25.253906 229.191406 25.488281 229.191406 C 27.675781 229.191406 29.609375 227.59375 29.960938 225.363281 C 30.148438 224.164062 29.859375 222.964844 29.148438 221.984375 C 28.4375 221.007812 27.386719 220.363281 26.191406 220.171875 Z M 26.191406 220.171875 " fill-opacity="1" fill-rule="nonzero"/><path fill="#000000" d="M 230.652344 236.984375 C 230.652344 234.480469 228.621094 232.445312 226.125 232.445312 C 223.628906 232.445312 221.597656 234.480469 221.597656 236.984375 C 221.597656 239.484375 223.628906 241.519531 226.125 241.519531 C 228.621094 241.519531 230.652344 239.484375 230.652344 236.984375 Z M 230.652344 236.984375 " fill-opacity="1" fill-rule="nonzero"/><path fill="#000000" d="M 7.660156 237.09375 C 7.765625 237.109375 7.867188 237.121094 7.972656 237.121094 C 10.46875 237.121094 12.5 235.085938 12.5 232.585938 C 12.5 230.082031 10.46875 228.046875 7.972656 228.046875 C 5.476562 228.046875 3.445312 230.085938 3.445312 232.585938 C 3.445312 234.683594 4.875 236.496094 6.960938 236.992188 Z M 7.660156 237.09375 " fill-opacity="1" fill-rule="nonzero"/><path fill="#000000" d="M 30.332031 230.707031 C 27.746094 230.296875 25.320312 232.125 24.925781 234.648438 C 24.730469 235.898438 25.03125 237.152344 25.773438 238.171875 C 26.476562 239.144531 27.523438 239.800781 28.738281 240.03125 L 29.109375 240.082031 C 29.28125 240.097656 29.449219 240.109375 29.613281 240.109375 C 30.613281 240.109375 31.578125 239.800781 32.378906 239.214844 C 33.398438 238.472656 34.070312 237.371094 34.265625 236.121094 C 34.460938 234.871094 34.160156 233.621094 33.417969 232.597656 C 32.675781 231.574219 31.578125 230.902344 30.332031 230.707031 Z M 30.332031 230.707031 " fill-opacity="1" fill-rule="nonzero"/><path fill="#000000" d="M 2.054688 245.214844 L 2.484375 245.28125 C 28.667969 249.242188 55.363281 252.386719 81.828125 254.628906 C 82.15625 254.660156 82.453125 254.675781 82.71875 254.675781 C 83.464844 254.675781 83.953125 254.539062 84.117188 254.117188 C 84.402344 253.382812 83.4375 252.632812 81.316406 250.988281 L 81.1875 250.886719 C 80.078125 250.027344 79.070312 248.941406 78.191406 247.660156 L 78.054688 247.457031 L 76.84375 247.53125 C 76.789062 247.535156 76.734375 247.53125 76.683594 247.527344 C 61.070312 246.125 45.09375 244.371094 29.167969 242.308594 C 28.953125 242.296875 28.734375 242.277344 28.519531 242.242188 L 28.273438 242.191406 C 21.402344 241.296875 14.414062 240.324219 7.480469 239.300781 C 7.140625 239.273438 6.808594 239.226562 6.457031 239.148438 L 3.082031 238.648438 Z M 2.054688 245.214844 " fill-opacity="1" fill-rule="nonzero"/><path fill="#000000" d="M 89.628906 251.972656 L 84.796875 244.269531 L 78.429688 243.550781 L 78.769531 244.257812 C 79.753906 246.328125 81.019531 247.972656 82.53125 249.144531 C 84.125 250.378906 86.179688 251.261719 88.636719 251.765625 Z M 89.628906 251.972656 " fill-opacity="1" fill-rule="nonzero"/><path fill="#000000" d="M 134.722656 233.597656 C 134.722656 236.097656 136.753906 238.132812 139.25 238.132812 C 141.746094 238.132812 143.777344 236.097656 143.777344 233.597656 C 143.777344 231.09375 141.746094 229.058594 139.25 229.058594 C 136.753906 229.0625 134.722656 231.09375 134.722656 233.597656 Z M 134.722656 233.597656 " fill-opacity="1" fill-rule="nonzero"/><path fill="#000000" d="M 124.027344 230.105469 C 124.027344 232.605469 126.058594 234.640625 128.550781 234.640625 C 131.046875 234.640625 133.078125 232.605469 133.078125 230.105469 C 133.078125 227.601562 131.050781 225.566406 128.550781 225.566406 C 126.054688 225.566406 124.027344 227.601562 124.027344 230.105469 Z M 124.027344 230.105469 " fill-opacity="1" fill-rule="nonzero"/><path fill="#000000" d="M 110.234375 221.550781 C 112.730469 221.550781 114.761719 219.519531 114.761719 217.015625 C 114.761719 214.515625 112.730469 212.480469 110.234375 212.480469 C 107.738281 212.480469 105.707031 214.515625 105.707031 217.015625 C 105.707031 219.519531 107.738281 221.550781 110.234375 221.550781 Z M 110.234375 221.550781 " fill-opacity="1" fill-rule="nonzero"/><path fill="#000000" d="M 165.703125 238.511719 C 165.703125 236.011719 163.671875 233.976562 161.175781 233.976562 C 158.679688 233.976562 156.648438 236.011719 156.648438 238.511719 C 156.648438 241.015625 158.679688 243.050781 161.175781 243.050781 C 163.671875 243.050781 165.703125 241.015625 165.703125 238.511719 Z M 165.703125 238.511719 " fill-opacity="1" fill-rule="nonzero"/><path fill="#000000" d="M 154.582031 236.816406 C 154.582031 234.3125 152.550781 232.277344 150.054688 232.277344 C 147.558594 232.277344 145.527344 234.3125 145.527344 236.816406 C 145.527344 239.316406 147.558594 241.351562 150.054688 241.351562 C 152.550781 241.351562 154.582031 239.316406 154.582031 236.816406 Z M 154.582031 236.816406 " fill-opacity="1" fill-rule="nonzero"/><path fill="#000000" d="M 176.59375 241.597656 L 176.667969 241.367188 L 176.511719 241.183594 C 175.105469 239.539062 173.605469 237.769531 172.042969 235.882812 L 171.882812 235.695312 L 171.640625 235.734375 C 169.398438 236.09375 167.773438 237.972656 167.773438 240.207031 C 167.773438 242.707031 169.804688 244.742188 172.300781 244.742188 C 174.261719 244.742188 175.988281 243.480469 176.59375 241.597656 Z M 176.59375 241.597656 " fill-opacity="1" fill-rule="nonzero"/><path fill="#000000" d="M 113.566406 251.957031 L 114.078125 251.679688 C 114.144531 251.644531 114.207031 251.609375 114.269531 251.574219 C 115.382812 250.902344 116.417969 249.996094 117.347656 248.871094 L 117.410156 248.796875 C 119.945312 245.695312 121.132812 241.699219 121.613281 239.59375 L 121.707031 239.1875 L 121.304688 239.078125 C 120.246094 238.792969 118.574219 238.414062 116.625 238.242188 L 116.363281 238.222656 L 111.101562 246.414062 Z M 113.566406 251.957031 " fill-opacity="1" fill-rule="nonzero"/><path fill="#000000" d="M 123.988281 223.460938 C 123.988281 220.960938 121.957031 218.925781 119.460938 218.925781 C 116.964844 218.925781 114.933594 220.960938 114.933594 223.460938 C 114.933594 225.964844 116.964844 228 119.460938 228 C 121.957031 228 123.988281 225.964844 123.988281 223.460938 Z M 123.988281 223.460938 " fill-opacity="1" fill-rule="nonzero"/><path fill="#000000" d="M 129.890625 175.589844 C 129.890625 178.09375 131.921875 180.128906 134.417969 180.128906 C 136.910156 180.128906 138.941406 178.089844 138.941406 175.589844 C 138.941406 173.089844 136.914062 171.054688 134.417969 171.054688 C 131.921875 171.054688 129.890625 173.089844 129.890625 175.589844 Z M 129.890625 175.589844 " fill-opacity="1" fill-rule="nonzero"/><path fill="#000000" d="M 111.644531 181.699219 C 111.777344 181.699219 111.914062 181.691406 112.050781 181.679688 C 114.675781 181.429688 116.730469 179.335938 116.730469 176.914062 C 116.730469 174.496094 114.71875 172.601562 112.152344 172.601562 C 110.929688 172.601562 109.777344 173.082031 108.917969 173.953125 C 108.074219 174.808594 107.613281 175.933594 107.628906 177.125 C 107.644531 178.597656 108.167969 179.875 109.113281 180.722656 C 109.820312 181.367188 110.691406 181.699219 111.644531 181.699219 Z M 111.644531 181.699219 " fill-opacity="1" fill-rule="nonzero"/><path fill="#000000" d="M 131.347656 153.925781 L 131.605469 154.800781 C 132.121094 156.558594 132.894531 158.035156 133.902344 159.195312 C 135.148438 160.628906 136.882812 161.804688 139.0625 162.695312 L 139.878906 163.027344 L 138.128906 156.765625 Z M 131.347656 153.925781 " fill-opacity="1" fill-rule="nonzero"/><path fill="#000000" d="M 125.742188 191.972656 C 125.742188 192.269531 125.714844 192.566406 125.65625 192.855469 C 125.597656 193.148438 125.511719 193.433594 125.398438 193.707031 C 125.285156 193.984375 125.144531 194.246094 124.980469 194.492188 C 124.816406 194.742188 124.628906 194.96875 124.417969 195.179688 C 124.207031 195.390625 123.980469 195.578125 123.730469 195.746094 C 123.484375 195.910156 123.222656 196.050781 122.949219 196.164062 C 122.675781 196.277344 122.390625 196.363281 122.101562 196.421875 C 121.808594 196.480469 121.515625 196.507812 121.21875 196.507812 C 120.917969 196.507812 120.625 196.480469 120.332031 196.421875 C 120.042969 196.363281 119.757812 196.277344 119.484375 196.164062 C 119.210938 196.050781 118.949219 195.910156 118.703125 195.746094 C 118.453125 195.578125 118.226562 195.390625 118.015625 195.179688 C 117.804688 194.96875 117.617188 194.742188 117.453125 194.492188 C 117.289062 194.246094 117.148438 193.984375 117.035156 193.707031 C 116.921875 193.433594 116.835938 193.148438 116.777344 192.855469 C 116.71875 192.566406 116.691406 192.269531 116.691406 191.972656 C 116.691406 191.675781 116.71875 191.378906 116.777344 191.085938 C 116.835938 190.792969 116.921875 190.511719 117.035156 190.234375 C 117.148438 189.960938 117.289062 189.699219 117.453125 189.453125 C 117.617188 189.203125 117.804688 188.976562 118.015625 188.765625 C 118.226562 188.554688 118.453125 188.367188 118.703125 188.199219 C 118.949219 188.035156 119.210938 187.894531 119.484375 187.78125 C 119.757812 187.667969 120.042969 187.582031 120.332031 187.523438 C 120.625 187.464844 120.917969 187.433594 121.21875 187.433594 C 121.515625 187.433594 121.808594 187.464844 122.101562 187.523438 C 122.390625 187.582031 122.675781 187.667969 122.949219 187.78125 C 123.222656 187.894531 123.484375 188.035156 123.730469 188.199219 C 123.980469 188.367188 124.207031 188.554688 124.417969 188.765625 C 124.628906 188.976562 124.816406 189.203125 124.980469 189.453125 C 125.144531 189.699219 125.285156 189.960938 125.398438 190.234375 C 125.511719 190.511719 125.597656 190.792969 125.65625 191.085938 C 125.714844 191.378906 125.742188 191.675781 125.742188 191.972656 Z M 125.742188 191.972656 " fill-opacity="1" fill-rule="nonzero"/><path fill="#000000" d="M 130.953125 190.871094 C 133.449219 190.871094 135.480469 188.835938 135.480469 186.335938 C 135.480469 183.832031 133.449219 181.796875 130.953125 181.796875 C 128.457031 181.796875 126.425781 183.832031 126.425781 186.335938 C 126.425781 188.835938 128.457031 190.871094 130.953125 190.871094 Z M 130.953125 190.871094 " fill-opacity="1" fill-rule="nonzero"/><path fill="#000000" d="M 123.40625 173.4375 C 120.910156 173.4375 118.878906 175.472656 118.878906 177.972656 C 118.878906 180.476562 120.910156 182.511719 123.40625 182.511719 C 125.902344 182.511719 127.933594 180.476562 127.933594 177.972656 C 127.933594 175.472656 125.902344 173.4375 123.40625 173.4375 Z M 123.40625 173.4375 " fill-opacity="1" fill-rule="nonzero"/><path fill="#000000" d="M 25.320312 208.894531 C 24.121094 208.707031 22.925781 209 21.953125 209.710938 C 20.976562 210.421875 20.335938 211.476562 20.144531 212.671875 C 19.957031 213.871094 20.246094 215.066406 20.957031 216.046875 C 21.667969 217.027344 22.71875 217.671875 23.914062 217.859375 C 24.152344 217.898438 24.390625 217.917969 24.628906 217.917969 C 25.578125 217.917969 26.5 217.617188 27.28125 217.046875 C 28.257812 216.332031 28.902344 215.28125 29.089844 214.085938 C 29.277344 212.886719 28.988281 211.6875 28.277344 210.707031 C 27.566406 209.730469 26.515625 209.085938 25.320312 208.894531 Z M 25.320312 208.894531 " fill-opacity="1" fill-rule="nonzero"/><path fill="#000000" d="M 122.582031 161.390625 C 125.078125 161.390625 127.109375 159.355469 127.109375 156.855469 C 127.109375 154.351562 125.078125 152.316406 122.582031 152.316406 C 120.085938 152.316406 118.054688 154.351562 118.054688 156.855469 C 118.054688 159.355469 120.085938 161.390625 122.582031 161.390625 Z M 122.582031 161.390625 " fill-opacity="1" fill-rule="nonzero"/><path fill="#000000" d="M 125.75 165.09375 C 125.75 167.59375 127.78125 169.628906 130.277344 169.628906 C 132.773438 169.628906 134.804688 167.59375 134.804688 165.09375 C 134.804688 162.589844 132.773438 160.554688 130.277344 160.554688 C 127.78125 160.554688 125.75 162.589844 125.75 165.09375 Z M 125.75 165.09375 " fill-opacity="1" fill-rule="nonzero"/><path fill="#000000" d="M 142.359375 163.734375 L 142.613281 163.792969 C 143.785156 164.054688 144.792969 164.199219 145.429688 164.273438 L 145.878906 164.324219 L 145.910156 163.875 C 146.0625 161.714844 146.101562 157.574219 144.632812 154.089844 L 144.425781 153.601562 L 140.316406 156.417969 Z M 142.359375 163.734375 " fill-opacity="1" fill-rule="nonzero"/><path fill="#000000" d="M 130.949219 151.375 L 138.917969 154.707031 L 142.898438 151.980469 L 143.238281 151.675781 L 142.964844 151.316406 L 142.902344 151.238281 C 139.652344 147.492188 133.753906 146.78125 131.371094 146.648438 L 130.949219 146.625 L 130.914062 147.046875 C 130.84375 147.988281 130.785156 149.460938 130.925781 151.113281 Z M 130.949219 151.375 " fill-opacity="1" fill-rule="nonzero"/><path fill="#000000" d="M 112.5 156.375 C 114.996094 156.375 117.027344 154.34375 117.027344 151.839844 C 117.027344 149.339844 114.996094 147.304688 112.5 147.304688 C 110.003906 147.304688 107.972656 149.339844 107.972656 151.839844 C 107.972656 154.339844 110.003906 156.375 112.5 156.375 Z M 112.5 156.375 " fill-opacity="1" fill-rule="nonzero"/><path fill="#000000" d="M 101.574219 159.097656 C 104.070312 159.097656 106.097656 157.0625 106.097656 154.5625 C 106.097656 152.058594 104.070312 150.023438 101.574219 150.023438 C 99.078125 150.023438 97.046875 152.058594 97.046875 154.5625 C 97.046875 157.0625 99.078125 159.097656 101.574219 159.097656 Z M 101.574219 159.097656 " fill-opacity="1" fill-rule="nonzero"/><path fill="#000000" d="M 92.339844 165.542969 C 94.835938 165.542969 96.867188 163.507812 96.867188 161.003906 C 96.867188 158.503906 94.835938 156.46875 92.339844 156.46875 C 89.84375 156.46875 87.8125 158.503906 87.8125 161.003906 C 87.8125 163.507812 89.84375 165.542969 92.339844 165.542969 Z M 92.339844 165.542969 " fill-opacity="1" fill-rule="nonzero"/><g clip-path="url(#8b3a159340)"><path fill="#000000" d="M 192.101562 106.210938 L 191.84375 105.925781 C 190.996094 104.992188 190.152344 104.117188 189.332031 103.324219 C 189.019531 103.019531 188.183594 102.308594 187.242188 102.308594 C 186.777344 102.308594 186.359375 102.488281 186.027344 102.828125 L 185.851562 103.011719 C 185.222656 103.664062 184.429688 104.484375 183.566406 105.414062 L 183.316406 105.683594 L 187.636719 111.367188 Z M 192.101562 106.210938 " fill-opacity="1" fill-rule="nonzero"/></g><path fill="#000000" d="M 174.867188 122.359375 L 174.964844 122.757812 C 176.238281 128.039062 180.753906 132.230469 185.941406 132.949219 L 186.433594 133.015625 L 186.433594 124.941406 L 180.691406 120.5625 Z M 174.867188 122.359375 " fill-opacity="1" fill-rule="nonzero"/><path fill="#000000" d="M 192.542969 119.25 L 187.582031 114.617188 L 182.613281 119.257812 L 187.535156 123.011719 Z M 192.542969 119.25 " fill-opacity="1" fill-rule="nonzero"/><path fill="#000000" d="M 194.984375 118.519531 L 199.433594 122.441406 L 199.539062 121.640625 C 199.632812 120.9375 199.675781 120.351562 199.675781 119.789062 C 199.675781 116.050781 196.042969 110.984375 193.875 108.300781 L 193.550781 107.898438 L 189.105469 113.03125 Z M 194.984375 118.519531 " fill-opacity="1" fill-rule="nonzero"/><path fill="#000000" d="M 243.820312 152.886719 L 243.84375 152.625 C 243.984375 150.972656 243.925781 149.503906 243.851562 148.566406 L 243.816406 148.144531 L 243.394531 148.167969 C 241.011719 148.296875 235.113281 149.011719 231.863281 152.75 C 231.839844 152.777344 231.820312 152.804688 231.78125 152.855469 L 231.464844 153.222656 L 235.84375 156.226562 Z M 243.820312 152.886719 " fill-opacity="1" fill-rule="nonzero"/><path fill="#000000" d="M 198.632812 125.0625 L 198.75 124.777344 L 194.199219 120.761719 L 188.628906 124.945312 L 188.628906 133.011719 L 189.128906 132.9375 C 193.261719 132.3125 196.902344 129.296875 198.632812 125.0625 Z M 198.632812 125.0625 " fill-opacity="1" fill-rule="nonzero"/><path fill="#000000" d="M 186.101562 112.984375 L 181.816406 107.34375 L 181.464844 107.742188 C 177.046875 112.8125 174.742188 116.777344 174.605469 119.527344 L 174.578125 120.144531 L 180.34375 118.363281 Z M 186.101562 112.984375 " fill-opacity="1" fill-rule="nonzero"/><path fill="#000000" d="M 84.183594 173.300781 C 86.679688 173.300781 88.710938 171.265625 88.710938 168.765625 C 88.710938 166.261719 86.679688 164.226562 84.183594 164.226562 C 81.6875 164.226562 79.65625 166.261719 79.65625 168.765625 C 79.65625 171.265625 81.6875 173.300781 84.183594 173.300781 Z M 84.183594 173.300781 " fill-opacity="1" fill-rule="nonzero"/><path fill="#000000" d="M 228.882812 165.839844 L 229.332031 165.789062 C 229.972656 165.714844 230.980469 165.566406 232.15625 165.300781 L 232.40625 165.246094 L 234.449219 157.9375 L 230.335938 155.117188 L 230.128906 155.605469 C 228.652344 159.097656 228.695312 163.234375 228.851562 165.386719 Z M 228.882812 165.839844 " fill-opacity="1" fill-rule="nonzero"/><path fill="#000000" d="M 28.101562 195.71875 L 28.160156 195.730469 C 28.289062 195.757812 28.417969 195.78125 28.542969 195.8125 L 28.6875 195.84375 C 28.894531 195.875 29.097656 195.886719 29.304688 195.886719 C 30.273438 195.886719 31.21875 195.566406 32.015625 194.957031 C 32.996094 194.203125 33.636719 193.101562 33.820312 191.859375 C 33.90625 191.277344 33.882812 190.6875 33.726562 190.03125 C 33.601562 189.734375 33.496094 189.433594 33.386719 189.066406 C 32.726562 187.710938 31.46875 186.769531 30.019531 186.558594 C 28.816406 186.386719 27.632812 186.699219 26.664062 187.441406 C 25.683594 188.195312 25.042969 189.296875 24.859375 190.542969 C 24.839844 190.691406 24.824219 190.84375 24.816406 191.007812 L 24.816406 191.25 C 24.816406 193.332031 26.167969 195.167969 28.101562 195.71875 Z M 28.101562 195.71875 " fill-opacity="1" fill-rule="nonzero"/><path fill="#000000" d="M 219.53125 238.679688 C 219.53125 236.179688 217.5 234.144531 215.003906 234.144531 C 212.507812 234.144531 210.476562 236.179688 210.476562 238.679688 C 210.476562 241.183594 212.507812 243.21875 215.003906 243.21875 C 217.5 243.21875 219.53125 241.183594 219.53125 238.679688 Z M 219.53125 238.679688 " fill-opacity="1" fill-rule="nonzero"/><path fill="#000000" d="M 17.417969 195.570312 C 17.632812 195.601562 17.847656 195.617188 18.0625 195.617188 C 19.03125 195.617188 19.976562 195.292969 20.773438 194.683594 C 21.753906 193.929688 22.394531 192.832031 22.574219 191.585938 C 22.597656 191.433594 22.613281 191.28125 22.621094 191.117188 L 22.621094 190.878906 C 22.621094 188.582031 20.96875 186.605469 18.777344 186.285156 C 17.574219 186.105469 16.390625 186.425781 15.421875 187.167969 C 14.441406 187.921875 13.800781 189.023438 13.617188 190.269531 C 13.4375 191.503906 13.730469 192.734375 14.445312 193.734375 C 15.164062 194.742188 16.21875 195.390625 17.417969 195.570312 Z M 17.417969 195.570312 " fill-opacity="1" fill-rule="nonzero"/><path fill="#000000" d="M 23.175781 205 C 23.886719 205.980469 24.9375 206.621094 26.132812 206.8125 C 26.367188 206.847656 26.601562 206.867188 26.835938 206.867188 C 29.023438 206.867188 30.957031 205.265625 31.308594 203.035156 C 31.664062 200.773438 30.273438 198.59375 28.039062 197.960938 C 27.882812 197.929688 27.726562 197.898438 27.527344 197.847656 C 26.328125 197.660156 25.140625 197.953125 24.171875 198.660156 C 23.195312 199.375 22.550781 200.425781 22.363281 201.625 C 22.175781 202.820312 22.464844 204.019531 23.175781 205 Z M 23.175781 205 " fill-opacity="1" fill-rule="nonzero"/><path fill="#000000" d="M 6.613281 214.722656 C 9.109375 214.722656 11.140625 212.6875 11.140625 210.183594 C 11.140625 208.460938 10.128906 206.859375 8.488281 206.078125 C 8.207031 206 7.917969 205.898438 7.550781 205.746094 C 4.667969 205.140625 2.089844 207.375 2.089844 210.183594 C 2.089844 212.6875 4.117188 214.722656 6.613281 214.722656 Z M 6.613281 214.722656 " fill-opacity="1" fill-rule="nonzero"/><path fill="#000000" d="M 6.046875 225.996094 C 8.542969 225.996094 10.574219 223.960938 10.574219 221.460938 C 10.574219 218.960938 8.542969 216.925781 6.046875 216.925781 C 3.550781 216.925781 1.519531 218.960938 1.519531 221.460938 C 1.519531 223.960938 3.550781 225.996094 6.046875 225.996094 Z M 6.046875 225.996094 " fill-opacity="1" fill-rule="nonzero"/><g clip-path="url(#5ed518be73)"><path fill="#000000" d="M 374.441406 251.542969 L 369.46875 252.394531 C 247.371094 271.019531 123.550781 271.097656 1.453125 252.628906 L 1.027344 252.5625 L 0 259.128906 L 0.429688 259.195312 C 61.566406 268.441406 123.117188 273.066406 184.683594 273.066406 C 246.75 273.066406 308.832031 268.367188 370.464844 258.964844 L 375 258.121094 Z M 374.441406 251.542969 " fill-opacity="1" fill-rule="nonzero"/></g><path fill="#000000" d="M 184.722656 264.21875 C 246.332031 264.21875 307.945312 259.550781 369.109375 250.222656 L 374.539062 249.289062 L 374.226562 246.574219 L 368.722656 247.230469 C 307.945312 256.5 246.03125 261.199219 184.691406 261.199219 C 123.890625 261.199219 62.484375 256.574219 2.175781 247.457031 L 1.742188 247.390625 L 1.34375 250.378906 L 1.765625 250.441406 C 62.476562 259.625 123.59375 264.21875 184.722656 264.21875 Z M 184.722656 264.21875 " fill-opacity="1" fill-rule="nonzero"/><path fill="#000000" d="M 35.820312 189.320312 L 35.847656 189.394531 C 36.511719 190.753906 37.769531 191.691406 39.214844 191.902344 C 39.429688 191.933594 39.648438 191.949219 39.859375 191.949219 C 40.804688 191.949219 41.730469 191.644531 42.515625 191.058594 C 43.527344 190.304688 44.1875 189.1875 44.375 187.917969 C 44.417969 187.613281 44.433594 187.296875 44.414062 186.910156 C 44.355469 186.648438 44.316406 186.378906 44.277344 186.039062 C 44.132812 185.453125 43.878906 184.910156 43.535156 184.433594 C 42.816406 183.4375 41.765625 182.796875 40.574219 182.617188 C 39.371094 182.449219 38.1875 182.761719 37.222656 183.503906 C 36.242188 184.257812 35.597656 185.355469 35.417969 186.601562 C 35.332031 187.183594 35.355469 187.773438 35.507812 188.429688 C 35.636719 188.734375 35.738281 189.027344 35.820312 189.320312 Z M 35.820312 189.320312 " fill-opacity="1" fill-rule="nonzero"/><path fill="#000000" d="M 71.847656 180.480469 L 71.546875 179.957031 C 71.515625 179.894531 71.484375 179.835938 71.449219 179.78125 C 68.34375 174.804688 61.332031 172.800781 58.464844 172.167969 L 58.070312 172.078125 L 57.957031 172.46875 C 57.636719 173.550781 57.214844 175.261719 57.015625 177.265625 L 56.988281 177.535156 L 65.796875 182.984375 Z M 71.847656 180.480469 " fill-opacity="1" fill-rule="nonzero"/><path fill="#000000" d="M 67.789062 193.777344 L 68.019531 193.878906 C 69.601562 194.578125 71.003906 195.066406 71.90625 195.355469 L 72.347656 195.496094 L 72.457031 195.042969 C 73.09375 192.4375 73.984375 187.410156 72.804688 182.996094 L 72.675781 182.519531 L 66.875 184.921875 Z M 67.789062 193.777344 " fill-opacity="1" fill-rule="nonzero"/><path fill="#000000" d="M 76.070312 197.101562 C 73.574219 197.101562 71.542969 199.132812 71.542969 201.636719 C 71.542969 204.136719 73.574219 206.171875 76.070312 206.171875 C 78.566406 206.171875 80.59375 204.136719 80.59375 201.636719 C 80.59375 199.132812 78.566406 197.101562 76.070312 197.101562 Z M 76.070312 197.101562 " fill-opacity="1" fill-rule="nonzero"/><path fill="#000000" d="M 46.601562 186.652344 C 47.0625 188.457031 48.511719 189.789062 50.292969 190.050781 C 50.507812 190.082031 50.722656 190.097656 50.9375 190.097656 C 51.945312 190.097656 52.949219 189.753906 53.761719 189.121094 C 54.71875 188.371094 55.3125 187.3125 55.429688 186.128906 C 55.496094 185.476562 55.453125 184.835938 55.296875 184.214844 C 54.832031 182.351562 53.4375 181.039062 51.660156 180.792969 C 49.171875 180.441406 46.867188 182.273438 46.503906 184.765625 C 46.460938 185.0625 46.445312 185.367188 46.464844 185.746094 C 46.527344 186.023438 46.566406 186.300781 46.601562 186.652344 Z M 46.601562 186.652344 " fill-opacity="1" fill-rule="nonzero"/><path fill="#000000" d="M 58.761719 186.761719 C 60 188.746094 62.007812 190.570312 64.722656 192.183594 L 65.460938 192.621094 L 64.660156 184.871094 L 56.890625 180.066406 L 56.960938 180.921875 C 57.144531 183.175781 57.75 185.140625 58.761719 186.761719 Z M 58.761719 186.761719 " fill-opacity="1" fill-rule="nonzero"/><path fill="#000000" d="M 78.253906 182.835938 C 78.335938 182.839844 78.417969 182.84375 78.5 182.84375 C 79.5 182.84375 80.46875 182.449219 81.246094 181.714844 C 82.179688 180.835938 82.714844 179.589844 82.714844 178.300781 C 82.714844 175.796875 80.683594 173.761719 78.1875 173.761719 C 76.96875 173.761719 75.824219 174.238281 74.964844 175.105469 C 74.117188 175.960938 73.652344 177.089844 73.660156 178.292969 C 73.671875 180.566406 75.820312 182.6875 78.253906 182.835938 Z M 78.253906 182.835938 " fill-opacity="1" fill-rule="nonzero"/><path fill="#000000" d="M 8.382812 203.679688 L 8.445312 203.707031 C 8.710938 203.78125 8.96875 203.863281 9.289062 203.992188 L 9.375 204.015625 C 9.453125 204.039062 9.53125 204.0625 9.609375 204.074219 C 9.824219 204.105469 10.039062 204.117188 10.253906 204.117188 C 11.222656 204.117188 12.167969 203.796875 12.964844 203.1875 C 13.945312 202.433594 14.585938 201.335938 14.769531 200.089844 C 14.949219 198.855469 14.65625 197.621094 13.941406 196.621094 C 13.222656 195.617188 12.167969 194.964844 10.96875 194.789062 C 9.773438 194.609375 8.582031 194.933594 7.617188 195.671875 C 6.632812 196.425781 5.992188 197.527344 5.8125 198.773438 C 5.628906 200.015625 5.925781 201.253906 6.652344 202.257812 C 7.089844 202.867188 7.675781 203.347656 8.382812 203.679688 Z M 8.382812 203.679688 " fill-opacity="1" fill-rule="nonzero"/><path fill="#000000" d="M 346.21875 225.527344 C 346.40625 226.726562 347.050781 227.777344 348.027344 228.492188 C 348.808594 229.0625 349.730469 229.359375 350.683594 229.359375 C 350.917969 229.359375 351.15625 229.34375 351.394531 229.304688 C 353.859375 228.914062 355.550781 226.589844 355.164062 224.117188 C 354.785156 221.703125 352.464844 219.949219 349.988281 220.339844 C 348.792969 220.53125 347.742188 221.171875 347.03125 222.152344 C 346.320312 223.132812 346.03125 224.332031 346.21875 225.527344 Z M 346.21875 225.527344 " fill-opacity="1" fill-rule="nonzero"/><path fill="#000000" d="M 348.898438 217.210938 C 349.683594 217.78125 350.605469 218.082031 351.554688 218.082031 C 351.789062 218.082031 352.027344 218.0625 352.265625 218.027344 C 354.730469 217.636719 356.421875 215.308594 356.03125 212.839844 C 355.644531 210.371094 353.324219 208.683594 350.855469 209.0625 C 349.664062 209.25 348.613281 209.894531 347.902344 210.875 C 347.191406 211.855469 346.902344 213.054688 347.089844 214.25 C 347.277344 215.445312 347.917969 216.496094 348.898438 217.210938 Z M 348.898438 217.210938 " fill-opacity="1" fill-rule="nonzero"/><path fill="#000000" d="M 366.875 236.484375 C 367.21875 236.570312 367.585938 236.613281 367.960938 236.613281 C 368.742188 236.613281 369.574219 236.429688 370.390625 236.074219 C 371.324219 235.667969 372.042969 235.117188 372.46875 234.480469 C 373.121094 233.5 373.1875 232.042969 372.640625 230.851562 C 372.007812 229.472656 370.570312 228.4375 369.0625 228.277344 C 367.554688 228.113281 365.929688 228.820312 365.019531 230.039062 C 364.300781 230.996094 364.007812 232.296875 364.234375 233.519531 C 364.367188 234.246094 364.890625 235.984375 366.875 236.484375 Z M 366.875 236.484375 " fill-opacity="1" fill-rule="nonzero"/><path fill="#000000" d="M 241.347656 165.210938 C 241.347656 167.710938 243.378906 169.746094 245.875 169.746094 C 248.371094 169.746094 250.398438 167.710938 250.398438 165.210938 C 250.398438 162.707031 248.367188 160.671875 245.875 160.671875 C 243.378906 160.671875 241.347656 162.707031 241.347656 165.210938 Z M 241.347656 165.210938 " fill-opacity="1" fill-rule="nonzero"/><path fill="#000000" d="M 370.132812 217.09375 C 367.636719 217.09375 365.605469 219.128906 365.605469 221.628906 C 365.605469 224.128906 367.636719 226.164062 370.132812 226.164062 C 372.628906 226.164062 374.660156 224.128906 374.660156 221.628906 C 374.660156 219.128906 372.628906 217.09375 370.132812 217.09375 Z M 370.132812 217.09375 " fill-opacity="1" fill-rule="nonzero"/><path fill="#000000" d="M 361.410156 200.253906 C 361.753906 202.59375 363.710938 204.285156 365.929688 204.285156 C 366.136719 204.285156 366.351562 204.273438 366.566406 204.242188 C 366.632812 204.230469 366.699219 204.21875 366.824219 204.1875 L 366.910156 204.164062 C 367.175781 204.046875 367.46875 203.945312 367.890625 203.824219 C 369.667969 202.933594 370.664062 200.96875 370.367188 198.941406 C 370.183594 197.695312 369.542969 196.59375 368.5625 195.84375 C 367.59375 195.097656 366.40625 194.78125 365.210938 194.957031 C 364.019531 195.132812 362.96875 195.773438 362.25 196.769531 C 361.527344 197.773438 361.226562 199.011719 361.410156 200.253906 Z M 361.410156 200.253906 " fill-opacity="1" fill-rule="nonzero"/><path fill="#000000" d="M 368.597656 205.925781 L 368.519531 205.949219 C 368.234375 206.074219 367.964844 206.167969 367.621094 206.269531 C 366.050781 207.027344 365.039062 208.628906 365.039062 210.351562 C 365.039062 212.855469 367.070312 214.890625 369.5625 214.890625 C 372.058594 214.890625 374.089844 212.855469 374.089844 210.351562 C 374.089844 207.851562 372.058594 205.816406 369.5625 205.816406 C 369.25 205.816406 368.933594 205.851562 368.597656 205.925781 Z M 368.597656 205.925781 " fill-opacity="1" fill-rule="nonzero"/><path fill="#000000" d="M 203.878906 244.910156 C 206.375 244.910156 208.40625 242.875 208.40625 240.375 C 208.40625 238.132812 206.78125 236.253906 204.542969 235.910156 L 204.300781 235.871094 L 204.140625 236.0625 C 202.652344 237.875 201.148438 239.648438 199.667969 241.332031 L 199.503906 241.515625 L 199.578125 241.75 C 200.179688 243.640625 201.910156 244.910156 203.878906 244.910156 Z M 203.878906 244.910156 " fill-opacity="1" fill-rule="nonzero"/><path fill="#000000" d="M 259.816406 238.386719 L 259.554688 238.410156 C 257.601562 238.582031 255.933594 238.957031 254.875 239.242188 L 254.472656 239.351562 L 254.566406 239.757812 C 255.175781 242.398438 257.109375 248.851562 261.910156 251.742188 C 261.972656 251.777344 262.035156 251.8125 262.101562 251.847656 L 262.613281 252.125 L 265.078125 246.582031 Z M 259.816406 238.386719 " fill-opacity="1" fill-rule="nonzero"/><path fill="#000000" d="M 292.480469 254.195312 C 292.546875 254.195312 292.617188 254.191406 292.691406 254.183594 C 317.964844 251.933594 343.445312 248.859375 368.367188 245.054688 L 373.933594 244.390625 L 373.035156 238.328125 L 368.679688 238.78125 C 358.0625 240.398438 344.839844 242.136719 330.414062 243.804688 C 330.121094 243.863281 329.820312 243.894531 329.484375 243.90625 C 319.378906 245.066406 308.996094 246.160156 298.621094 247.160156 L 298.410156 247.179688 L 298.296875 247.359375 C 297.351562 248.847656 296.238281 250.089844 294.992188 251.054688 C 294.199219 251.667969 293.308594 252.214844 292.339844 252.671875 C 291.527344 253.0625 291.550781 253.515625 291.597656 253.695312 C 291.652344 253.890625 291.835938 254.195312 292.480469 254.195312 Z M 292.480469 254.195312 " fill-opacity="1" fill-rule="nonzero"/><path fill="#000000" d="M 355.40625 194.851562 C 356.203125 195.460938 357.148438 195.785156 358.117188 195.78125 C 358.332031 195.78125 358.546875 195.769531 358.761719 195.738281 C 359.957031 195.558594 361.015625 194.910156 361.734375 193.902344 C 362.449219 192.902344 362.742188 191.671875 362.558594 190.4375 C 362.378906 189.191406 361.738281 188.089844 360.757812 187.335938 C 359.789062 186.59375 358.59375 186.277344 357.402344 186.453125 C 356.210938 186.628906 355.160156 187.273438 354.441406 188.265625 C 353.71875 189.269531 353.421875 190.507812 353.601562 191.753906 C 353.785156 193 354.425781 194.097656 355.40625 194.851562 Z M 355.40625 194.851562 " fill-opacity="1" fill-rule="nonzero"/><path fill="#000000" d="M 270.367188 235.148438 L 270.53125 235.640625 C 271.101562 237.371094 272.054688 239.144531 273.359375 240.917969 L 273.578125 241.214844 L 273.90625 241.046875 C 275.132812 240.417969 276.460938 240.097656 277.851562 240.097656 C 277.957031 240.097656 278.0625 240.105469 278.167969 240.113281 L 279.113281 240.167969 L 276.078125 234.351562 Z M 270.367188 235.148438 " fill-opacity="1" fill-rule="nonzero"/><path fill="#000000" d="M 293.644531 249.3125 C 295.105469 248.183594 296.339844 246.601562 297.316406 244.617188 L 297.691406 243.847656 L 290.757812 245.082031 L 286.5 252.140625 L 287.464844 251.949219 C 289.960938 251.445312 292.039062 250.558594 293.644531 249.3125 Z M 293.644531 249.3125 " fill-opacity="1" fill-rule="nonzero"/><path fill="#000000" d="M 277.851562 255.351562 C 279.878906 255.351562 281.757812 254.425781 283.007812 252.8125 C 283.882812 251.679688 284.363281 250.265625 284.363281 248.828125 C 284.363281 246.320312 282.96875 244.070312 280.664062 242.9375 C 278.519531 241.90625 275.902344 242.15625 273.996094 243.574219 L 273.894531 243.644531 C 272.769531 244.511719 271.945312 245.738281 271.582031 247.089844 C 271.417969 247.65625 271.339844 248.222656 271.339844 248.828125 C 271.339844 250.644531 272.070312 252.332031 273.390625 253.574219 C 274.601562 254.71875 276.1875 255.351562 277.851562 255.351562 Z M 277.851562 255.351562 " fill-opacity="1" fill-rule="nonzero"/><path fill="#000000" d="M 343.277344 232.648438 C 342.558594 233.605469 342.265625 234.90625 342.492188 236.128906 C 342.722656 237.386719 343.980469 239 345.605469 239.40625 C 345.949219 239.496094 346.3125 239.535156 346.691406 239.535156 C 347.46875 239.535156 348.304688 239.355469 349.121094 239 C 349.628906 238.777344 349.949219 238.304688 350.433594 237.542969 C 350.527344 237.390625 350.625 237.238281 350.726562 237.085938 C 351.378906 236.109375 351.449219 234.652344 350.902344 233.460938 C 350.449219 232.472656 349.582031 231.652344 348.5 231.195312 L 348.238281 231.097656 C 347.90625 230.984375 347.605469 230.914062 347.320312 230.882812 C 345.789062 230.710938 344.1875 231.429688 343.277344 232.648438 Z M 343.277344 232.648438 " fill-opacity="1" fill-rule="nonzero"/><path fill="#000000" d="M 283.839844 165.707031 C 286.335938 165.707031 288.367188 163.671875 288.367188 161.171875 C 288.367188 158.671875 286.335938 156.636719 283.839844 156.636719 C 281.34375 156.636719 279.3125 158.671875 279.3125 161.171875 C 279.3125 163.671875 281.34375 165.707031 283.839844 165.707031 Z M 283.839844 165.707031 " fill-opacity="1" fill-rule="nonzero"/><path fill="#000000" d="M 296.523438 168.933594 C 296.523438 169.230469 296.496094 169.527344 296.4375 169.816406 C 296.378906 170.109375 296.292969 170.394531 296.179688 170.667969 C 296.066406 170.945312 295.925781 171.207031 295.761719 171.453125 C 295.59375 171.699219 295.40625 171.929688 295.199219 172.140625 C 294.988281 172.351562 294.757812 172.539062 294.511719 172.703125 C 294.265625 172.871094 294.003906 173.011719 293.730469 173.125 C 293.453125 173.238281 293.171875 173.324219 292.878906 173.382812 C 292.589844 173.441406 292.292969 173.46875 291.996094 173.46875 C 291.699219 173.46875 291.40625 173.441406 291.113281 173.382812 C 290.820312 173.324219 290.539062 173.238281 290.265625 173.125 C 289.988281 173.011719 289.730469 172.871094 289.480469 172.703125 C 289.234375 172.539062 289.003906 172.351562 288.796875 172.140625 C 288.585938 171.929688 288.398438 171.699219 288.234375 171.453125 C 288.066406 171.207031 287.929688 170.945312 287.8125 170.667969 C 287.699219 170.394531 287.613281 170.109375 287.554688 169.816406 C 287.5 169.527344 287.46875 169.230469 287.46875 168.933594 C 287.46875 168.632812 287.5 168.339844 287.554688 168.046875 C 287.613281 167.753906 287.699219 167.472656 287.8125 167.195312 C 287.929688 166.921875 288.066406 166.660156 288.234375 166.410156 C 288.398438 166.164062 288.585938 165.933594 288.796875 165.722656 C 289.003906 165.515625 289.234375 165.324219 289.480469 165.160156 C 289.730469 164.996094 289.988281 164.855469 290.265625 164.742188 C 290.539062 164.625 290.820312 164.539062 291.113281 164.484375 C 291.40625 164.425781 291.699219 164.394531 291.996094 164.394531 C 292.292969 164.394531 292.589844 164.425781 292.878906 164.484375 C 293.171875 164.539062 293.453125 164.625 293.730469 164.742188 C 294.003906 164.855469 294.265625 164.996094 294.511719 165.160156 C 294.757812 165.324219 294.988281 165.515625 295.199219 165.722656 C 295.40625 165.933594 295.59375 166.164062 295.761719 166.410156 C 295.925781 166.660156 296.066406 166.921875 296.179688 167.195312 C 296.292969 167.472656 296.378906 167.753906 296.4375 168.046875 C 296.496094 168.339844 296.523438 168.632812 296.523438 168.933594 Z M 296.523438 168.933594 " fill-opacity="1" fill-rule="nonzero"/><path fill="#000000" d="M 274.605469 159.265625 C 277.101562 159.265625 279.132812 157.230469 279.132812 154.730469 C 279.132812 152.226562 277.101562 150.191406 274.605469 150.191406 C 272.109375 150.191406 270.078125 152.226562 270.078125 154.730469 C 270.078125 157.230469 272.109375 159.265625 274.605469 159.265625 Z M 274.605469 159.265625 " fill-opacity="1" fill-rule="nonzero"/><path fill="#000000" d="M 293.464844 178.464844 C 293.464844 179.757812 294 181 294.933594 181.882812 C 295.710938 182.617188 296.675781 183.011719 297.671875 183.011719 C 297.757812 183.011719 297.839844 183.011719 297.925781 183.003906 C 300.359375 182.859375 302.503906 180.734375 302.519531 178.460938 C 302.527344 177.257812 302.0625 176.125 301.214844 175.273438 C 300.355469 174.40625 299.210938 173.929688 297.992188 173.929688 C 295.496094 173.929688 293.464844 175.964844 293.464844 178.464844 Z M 293.464844 178.464844 " fill-opacity="1" fill-rule="nonzero"/><path fill="#000000" d="M 253.597656 161.558594 C 256.09375 161.558594 258.125 159.523438 258.125 157.023438 C 258.125 154.519531 256.09375 152.484375 253.597656 152.484375 C 251.101562 152.484375 249.070312 154.519531 249.070312 157.023438 C 249.070312 159.523438 251.101562 161.558594 253.597656 161.558594 Z M 253.597656 161.558594 " fill-opacity="1" fill-rule="nonzero"/><path fill="#000000" d="M 263.679688 156.542969 C 266.175781 156.542969 268.207031 154.507812 268.207031 152.007812 C 268.207031 149.507812 266.175781 147.472656 263.679688 147.472656 C 261.183594 147.472656 259.152344 149.507812 259.152344 152.007812 C 259.152344 154.507812 261.183594 156.542969 263.679688 156.542969 Z M 263.679688 156.542969 " fill-opacity="1" fill-rule="nonzero"/><path fill="#000000" d="M 304.636719 201.804688 C 304.636719 199.304688 302.605469 197.269531 300.109375 197.269531 C 297.613281 197.269531 295.582031 199.304688 295.582031 201.804688 C 295.582031 204.304688 297.613281 206.339844 300.109375 206.339844 C 302.605469 206.339844 304.636719 204.304688 304.636719 201.804688 Z M 304.636719 201.804688 " fill-opacity="1" fill-rule="nonzero"/><path fill="#000000" d="M 310.71875 192.789062 L 311.457031 192.347656 C 314.171875 190.738281 316.179688 188.914062 317.417969 186.925781 C 318.429688 185.304688 319.035156 183.34375 319.21875 181.085938 L 319.289062 180.234375 L 311.519531 185.039062 Z M 310.71875 192.789062 " fill-opacity="1" fill-rule="nonzero"/><path fill="#000000" d="M 333.609375 191.1875 C 334.402344 191.796875 335.347656 192.117188 336.320312 192.117188 C 336.53125 192.117188 336.746094 192.101562 336.960938 192.070312 C 338.152344 191.894531 339.203125 191.25 339.921875 190.257812 C 340.066406 190.058594 340.199219 189.832031 340.359375 189.476562 C 340.441406 189.1875 340.542969 188.890625 340.691406 188.523438 C 340.824219 187.941406 340.847656 187.351562 340.761719 186.769531 C 340.394531 184.257812 338.117188 182.433594 335.601562 182.785156 C 333.8125 183.050781 332.359375 184.390625 331.886719 186.269531 C 331.863281 186.546875 331.824219 186.816406 331.757812 187.148438 C 331.742188 187.457031 331.757812 187.777344 331.804688 188.085938 C 331.984375 189.332031 332.625 190.433594 333.609375 191.1875 Z M 333.609375 191.1875 " fill-opacity="1" fill-rule="nonzero"/><path fill="#000000" d="M 322.414062 189.289062 C 323.230469 189.921875 324.230469 190.265625 325.242188 190.265625 C 325.457031 190.265625 325.671875 190.25 325.886719 190.21875 C 327.671875 189.957031 329.121094 188.617188 329.589844 186.742188 C 329.617188 186.472656 329.65625 186.203125 329.722656 185.871094 C 329.734375 185.558594 329.722656 185.242188 329.675781 184.933594 C 329.304688 182.398438 326.996094 180.617188 324.523438 180.960938 C 322.742188 181.207031 321.347656 182.519531 320.878906 184.390625 C 320.726562 185.003906 320.683594 185.644531 320.75 186.296875 C 320.867188 187.476562 321.460938 188.539062 322.414062 189.289062 Z M 322.414062 189.289062 " fill-opacity="1" fill-rule="nonzero"/><path fill="#000000" d="M 303.832031 195.660156 L 304.273438 195.523438 C 305.171875 195.234375 306.578125 194.746094 308.160156 194.046875 L 308.386719 193.941406 L 309.304688 185.089844 L 303.5 182.6875 L 303.371094 183.164062 C 302.183594 187.582031 303.082031 192.609375 303.71875 195.210938 Z M 303.832031 195.660156 " fill-opacity="1" fill-rule="nonzero"/><path fill="#000000" d="M 344.214844 195.164062 C 344.996094 195.742188 345.910156 196.050781 346.875 196.050781 C 347.105469 196.050781 347.335938 196.035156 347.570312 196 C 347.726562 195.957031 347.886719 195.925781 348.082031 195.882812 C 350.003906 195.335938 351.355469 193.503906 351.363281 191.40625 L 351.359375 191.15625 C 351.351562 191.007812 351.339844 190.859375 351.316406 190.710938 C 351.132812 189.464844 350.492188 188.363281 349.511719 187.609375 C 348.539062 186.867188 347.351562 186.554688 346.15625 186.726562 C 344.714844 186.9375 343.460938 187.871094 342.769531 189.296875 C 342.683594 189.613281 342.574219 189.925781 342.417969 190.304688 C 342.296875 190.878906 342.273438 191.457031 342.359375 192.027344 C 342.542969 193.292969 343.203125 194.410156 344.214844 195.164062 Z M 344.214844 195.164062 " fill-opacity="1" fill-rule="nonzero"/><path fill="#000000" d="M 348.652344 198.015625 L 348.605469 198.023438 C 348.453125 198.066406 348.296875 198.097656 348.101562 198.136719 C 345.90625 198.765625 344.515625 200.941406 344.871094 203.203125 C 345.058594 204.402344 345.703125 205.453125 346.679688 206.164062 C 347.460938 206.738281 348.382812 207.035156 349.332031 207.035156 C 349.566406 207.035156 349.808594 207.015625 350.046875 206.980469 C 352.511719 206.589844 354.203125 204.261719 353.816406 201.792969 C 353.4375 199.382812 351.128906 197.632812 348.652344 198.015625 Z M 348.652344 198.015625 " fill-opacity="1" fill-rule="nonzero"/><path fill="#000000" d="M 319.191406 177.703125 L 319.164062 177.433594 C 318.960938 175.425781 318.542969 173.71875 318.222656 172.636719 L 318.109375 172.25 L 317.714844 172.335938 C 314.847656 172.96875 307.835938 174.972656 304.730469 179.949219 C 304.695312 180.003906 304.664062 180.0625 304.632812 180.121094 L 304.332031 180.648438 L 310.382812 183.152344 Z M 319.191406 177.703125 " fill-opacity="1" fill-rule="nonzero"/><path fill="#000000" d="M 286.445312 248.53125 L 289.078125 244.160156 L 284.582031 238.832031 L 283.960938 239.484375 C 283.910156 239.535156 283.859375 239.585938 283.828125 239.621094 C 283.433594 240.046875 283.0625 240.515625 282.691406 241.054688 L 282.296875 241.628906 L 282.855469 242.042969 C 284.429688 243.21875 285.558594 244.921875 286.027344 246.839844 Z M 286.445312 248.53125 " fill-opacity="1" fill-rule="nonzero"/><path fill="#000000" d="M 180.523438 244.46875 L 181.003906 245.023438 C 181.445312 245.539062 181.960938 246.246094 182.460938 246.9375 C 184.511719 249.757812 185.886719 251.34375 187.335938 251.644531 L 188.074219 251.667969 L 188.171875 251.65625 C 190.105469 251.382812 191.902344 249.253906 194.230469 246.28125 C 195.011719 245.28125 195.816406 244.25 196.613281 243.382812 C 209.140625 229.824219 230.332031 201.722656 230.332031 182.386719 C 230.332031 155.691406 210.957031 133.972656 187.136719 133.972656 C 163.316406 133.972656 143.9375 155.691406 143.9375 182.386719 C 143.9375 202.066406 168.644531 230.699219 180.523438 244.46875 Z M 187.121094 143.761719 L 187.625 143.777344 C 200.09375 143.964844 211.742188 151.636719 218.039062 163.808594 L 218.113281 163.9375 C 218.292969 164.210938 218.4375 164.5 218.554688 164.816406 L 218.609375 164.945312 C 221.375 170.722656 222.835938 177.246094 222.835938 183.816406 C 222.835938 203.539062 197.652344 231.382812 194.78125 234.492188 C 192.496094 236.96875 189.875 238.332031 187.410156 238.332031 L 187.289062 238.332031 C 185.378906 238.296875 183.652344 237.449219 182.292969 235.871094 L 181.894531 235.410156 C 172.007812 223.953125 151.4375 200.113281 151.4375 183.816406 C 151.4375 161.730469 167.453125 143.761719 187.121094 143.761719 Z M 187.121094 143.761719 " fill-opacity="1" fill-rule="nonzero"/><path fill="#000000" d="M 188.628906 218.546875 L 188.628906 226.601562 L 193.617188 231.542969 L 193.738281 230.6875 C 193.8125 230.171875 193.847656 229.6875 193.847656 229.210938 C 193.847656 226.546875 191.554688 222.5 189.410156 219.601562 Z M 188.628906 218.546875 " fill-opacity="1" fill-rule="nonzero"/><path fill="#000000" d="M 181.640625 232.28125 L 186.433594 226.65625 L 186.433594 219.027344 L 185.648438 220.101562 C 182.667969 224.191406 181.21875 227.167969 181.21875 229.210938 C 181.21875 229.945312 181.296875 230.6875 181.453125 231.421875 Z M 181.640625 232.28125 " fill-opacity="1" fill-rule="nonzero"/><path fill="#000000" d="M 182.675781 234.453125 L 182.871094 234.730469 C 184.066406 236.433594 185.765625 237.410156 187.53125 237.410156 C 189.546875 237.410156 191.394531 236.199219 192.601562 234.085938 L 192.765625 233.796875 L 187.597656 228.679688 Z M 182.675781 234.453125 " fill-opacity="1" fill-rule="nonzero"/><path fill="#000000" d="M 90.203125 246.84375 C 90.644531 244.890625 91.773438 243.152344 93.382812 241.953125 L 94.011719 241.480469 L 93.566406 240.832031 C 93.464844 240.6875 93.367188 240.550781 93.261719 240.414062 L 92.832031 239.835938 L 86.449219 243.488281 L 89.769531 248.773438 Z M 90.203125 246.84375 " fill-opacity="1" fill-rule="nonzero"/><path fill="#000000" d="M 171.1875 169.105469 L 171.1875 192.324219 L 167.335938 192.140625 L 167.335938 201.699219 L 178.277344 201.699219 L 179.628906 160.347656 L 173.59375 160.347656 L 166.769531 163.132812 L 166.992188 169.378906 Z M 171.1875 169.105469 " fill-opacity="1" fill-rule="nonzero"/><path fill="#000000" d="M 199.378906 192.664062 C 198.144531 193.636719 196.820312 194.023438 195.332031 193.847656 C 192.527344 193.507812 189.914062 191.191406 188.609375 189.839844 L 187.074219 188.253906 L 182.835938 192.527344 L 183.429688 193.882812 C 185.960938 199.648438 192.152344 201.691406 196.6875 201.691406 C 197.515625 201.691406 198.328125 201.628906 199.105469 201.5 C 205.710938 200.40625 209.777344 195.277344 209.710938 188.113281 C 209.667969 183.347656 208.167969 179.558594 205.257812 176.859375 C 200.703125 172.636719 194.125 172.355469 192 172.375 L 191.910156 167.625 L 207.484375 167.625 L 207.511719 160.351562 L 184.316406 160.347656 L 184.609375 179.699219 L 186.957031 179.460938 C 189.089844 179.246094 193.285156 179.03125 197.375 180.035156 C 199.976562 180.671875 201.933594 182.628906 202.480469 185.144531 C 203.066406 187.859375 201.90625 190.667969 199.378906 192.664062 Z M 199.378906 192.664062 " fill-opacity="1" fill-rule="nonzero"/></svg>