<svg xmlns="http://www.w3.org/2000/svg" xmlns:xlink="http://www.w3.org/1999/xlink" width="500" zoomAndPan="magnify" viewBox="0 0 375 374.999991" height="500" preserveAspectRatio="xMidYMid meet" version="1.0"><path fill="#000000" d="M 166.417969 17.355469 C 165.203125 14.136719 165.335938 10.957031 166.457031 7.792969 C 168.183594 2.902344 173.976562 -0.0546875 178.84375 1.449219 C 180.902344 2.082031 182.433594 3.402344 183.398438 5.234375 C 184.558594 7.4375 186.324219 8.082031 188.675781 8.164062 C 191.367188 8.253906 194.070312 8.492188 196.722656 8.941406 C 200.058594 9.507812 202.910156 10.972656 204.296875 14.359375 C 204.613281 15.125 205.085938 15.558594 205.90625 15.664062 C 209.109375 16.074219 211.644531 20.863281 210.390625 24.105469 C 209.703125 25.859375 208.832031 27.574219 207.84375 29.183594 C 205.574219 32.835938 204.308594 36.671875 204.757812 41.050781 C 204.847656 41.933594 204.441406 42.960938 204.019531 43.792969 C 203.253906 45.257812 202.25 46.589844 201.433594 48.027344 C 199.996094 50.558594 197.578125 51.335938 194.953125 51.625 C 193.570312 51.785156 192.15625 51.652344 190.46875 51.652344 C 191.140625 55.449219 191.023438 59.078125 192.394531 62.492188 C 193.265625 64.667969 194.914062 65.921875 197.027344 66.644531 C 200.390625 67.804688 203.808594 68.808594 207.117188 70.089844 C 209.109375 70.851562 211.011719 71.882812 212.84375 72.976562 C 214.890625 74.203125 215.945312 76.140625 215.851562 78.527344 C 215.734375 81.585938 216.445312 84.460938 217.265625 87.375 C 217.792969 89.300781 218.054688 91.34375 218.082031 93.347656 C 218.121094 96.277344 218.6875 99.03125 219.757812 101.75 C 221.828125 106.957031 224.785156 111.691406 227.359375 116.636719 C 229.21875 120.222656 230.839844 123.929688 232.449219 127.636719 C 234.628906 132.632812 236.699219 137.683594 238.847656 142.695312 C 239.046875 143.15625 239.441406 143.605469 239.878906 143.867188 C 241.726562 144.960938 243.652344 145.898438 245.472656 147.03125 C 248.230469 148.734375 249.996094 151.265625 251.316406 154.195312 C 251.648438 154.933594 252.1875 155.710938 252.847656 156.132812 C 265.394531 164.003906 275.421875 174.527344 284.667969 185.921875 C 294.3125 197.789062 302.625 210.621094 311.558594 223.003906 C 319.316406 233.75 327.613281 244.0625 337.035156 253.449219 C 340.808594 257.222656 344.316406 261.257812 347.945312 265.160156 C 354.09375 271.753906 360.242188 278.347656 366.375 284.953125 C 368.671875 287.433594 370.730469 290.082031 372.167969 293.195312 C 374.703125 298.667969 374.714844 307.609375 366.878906 312.9375 C 365.320312 313.992188 363.605469 314.863281 361.878906 315.652344 C 357.484375 317.65625 357.972656 316.917969 358.132812 321.519531 C 358.222656 324.199219 357.828125 326.769531 356.8125 329.25 C 355.359375 332.808594 352.933594 335.460938 349.476562 337.148438 C 345.902344 338.902344 342.113281 339.824219 338.117188 339.835938 C 336.402344 339.835938 334.671875 339.917969 332.957031 339.8125 C 331.414062 339.71875 330.398438 340.3125 329.632812 341.605469 C 328.261719 343.910156 326.425781 345.785156 324.050781 347.089844 C 320.992188 348.777344 317.71875 349.304688 314.261719 348.898438 C 312.308594 348.671875 310.359375 348.527344 308.417969 348.222656 C 307.335938 348.050781 306.558594 348.394531 305.753906 349.066406 C 297.652344 355.964844 288.085938 358.667969 277.652344 358.5625 C 275.183594 358.535156 272.714844 357.769531 270.261719 357.257812 C 268.402344 356.863281 266.582031 356.347656 264.746094 355.847656 C 262.925781 355.359375 261.566406 356.003906 260.328125 357.335938 C 258.652344 359.128906 256.988281 360.949219 255.101562 362.503906 C 249.363281 367.277344 242.726562 369.125 235.351562 367.898438 C 232.464844 367.410156 229.613281 366.632812 226.804688 365.777344 C 225.046875 365.25 223.53125 365.222656 221.855469 366.054688 C 216.527344 368.703125 210.867188 369.835938 204.914062 369.296875 C 199.847656 368.835938 195.007812 367.6875 190.613281 364.972656 C 189.269531 364.140625 187.816406 363.441406 186.378906 362.78125 C 184.742188 362.03125 183.171875 362.242188 181.683594 363.269531 C 180.058594 364.378906 178.421875 365.460938 176.773438 366.527344 C 173.605469 368.570312 170.203125 370.140625 166.457031 370.746094 C 159.332031 371.921875 152.8125 370.257812 146.917969 366.171875 C 145.015625 364.851562 143.25 363.335938 141.347656 361.847656 C 137.828125 364.179688 133.894531 365.089844 129.804688 365.128906 C 123.222656 365.207031 116.886719 363.941406 110.953125 360.949219 C 107.679688 359.300781 105 357.074219 103.390625 353.710938 C 103.207031 353.339844 102.929688 353.011719 102.679688 352.640625 C 90.226562 356.386719 79.484375 353.867188 70.894531 343.964844 C 66.609375 346.007812 62.359375 346.40625 57.941406 345.757812 C 53.613281 345.136719 50.144531 343.160156 47.898438 339.390625 C 46.726562 337.398438 45.855469 335.222656 44.996094 333.074219 C 44.667969 332.230469 44.296875 331.753906 43.402344 331.582031 C 41.355469 331.171875 39.3125 330.765625 37.304688 330.199219 C 35.722656 329.75 34.164062 329.15625 32.675781 328.445312 C 28.570312 326.480469 25.8125 323.378906 24.824219 318.832031 C 24.71875 318.355469 24.546875 317.90625 24.363281 317.300781 C 23.542969 317.460938 22.765625 317.566406 22.015625 317.761719 C 18.875 318.605469 15.695312 318.832031 12.542969 318.066406 C 9.691406 317.378906 6.816406 316.667969 4.109375 315.546875 C 0.601562 314.082031 0.191406 310.234375 2.9375 307.648438 C 10.484375 300.539062 18.015625 293.417969 25.523438 286.273438 C 30.417969 281.617188 33.886719 275.882812 37.570312 270.304688 C 41.304688 264.644531 43.875 258.394531 47.160156 252.515625 C 54.8125 238.828125 62.558594 225.179688 70.394531 211.582031 C 75.210938 203.222656 81.09375 195.585938 87.347656 188.253906 C 91.769531 183.074219 96.042969 177.757812 101.042969 173.117188 C 102.574219 171.691406 104.066406 170.242188 105.609375 168.832031 C 107.839844 166.800781 109.460938 164.414062 110.265625 161.472656 C 110.964844 158.914062 112.058594 156.527344 113.578125 154.339844 C 115.476562 151.582031 117.96875 149.761719 121.347656 149.261719 C 121.769531 149.195312 122.191406 149.101562 122.613281 149.023438 C 122.667969 149.023438 122.707031 148.945312 122.890625 148.800781 C 123.484375 143.800781 126.28125 139.765625 129.265625 135.730469 C 133.738281 129.664062 138 123.429688 140.847656 116.375 C 141.46875 114.84375 141.941406 113.261719 142.496094 111.691406 C 141.601562 111.535156 140.730469 111.558594 140.054688 111.21875 C 139.316406 110.835938 138.761719 110.109375 138.128906 109.53125 C 137.867188 109.277344 137.601562 109.015625 137.339844 108.75 C 132.351562 103.832031 131.269531 97.621094 134.289062 91.304688 C 134.476562 90.921875 134.648438 90.527344 134.910156 89.972656 C 134.144531 89.472656 133.355469 89.050781 132.65625 88.484375 C 131.480469 87.519531 130.1875 86.625 129.25 85.449219 C 127.8125 83.65625 128.367188 82.195312 130.503906 81.296875 C 131.796875 80.757812 133.117188 80.214844 134.304688 79.476562 C 136.414062 78.160156 137.246094 76.167969 137.035156 73.660156 C 136.8125 70.984375 136.519531 68.292969 136.613281 65.617188 C 136.691406 63.269531 137.46875 60.976562 139.265625 59.3125 C 140.308594 58.339844 141.652344 57.691406 142.8125 56.941406 C 143.261719 54.949219 143.460938 52.761719 144.292969 50.863281 C 145.136719 48.9375 146.613281 47.289062 147.90625 45.363281 C 147.589844 44.902344 147.207031 44.375 146.851562 43.820312 C 145.609375 41.882812 146.296875 40.457031 148.566406 40.273438 C 149.238281 40.21875 149.910156 40.246094 150.585938 40.207031 C 152.433594 40.128906 153.710938 39.21875 154.34375 37.476562 C 155.03125 35.578125 155.652344 33.652344 156.390625 31.765625 C 157.128906 29.882812 157.894531 28.007812 158.777344 26.203125 C 160.375 22.972656 162.417969 20.097656 165.519531 18.105469 C 165.824219 17.90625 166.074219 17.65625 166.390625 17.394531 Z M 43.929688 311.839844 C 44.996094 311.484375 46.433594 311.128906 47.753906 310.523438 C 53.824219 307.726562 58.730469 303.453125 63.046875 298.390625 C 74.246094 285.269531 84.550781 271.464844 94.210938 257.195312 C 104.683594 241.714844 114.144531 225.585938 123.445312 209.378906 C 126.308594 204.394531 129.066406 199.332031 131.890625 194.320312 C 132.324219 193.542969 132.445312 192.792969 131.730469 192.160156 C 131.03125 191.523438 130.175781 191.605469 129.566406 192.210938 C 128.882812 192.898438 128.3125 193.714844 127.824219 194.546875 C 122.058594 204.449219 116.425781 214.417969 110.554688 224.253906 C 100.886719 240.476562 90.988281 256.535156 79.5625 271.609375 C 72.636719 280.746094 65.765625 289.910156 58.113281 298.484375 C 55.011719 301.964844 51.316406 304.65625 47.199219 306.804688 C 45.789062 307.542969 44.351562 308.1875 42.675781 308.148438 C 41.710938 308.136719 40.828125 308.464844 40.671875 309.625 C 40.539062 310.589844 41.171875 311.289062 42.4375 311.605469 C 42.792969 311.695312 43.164062 311.710938 43.914062 311.828125 Z M 213.226562 204.171875 C 213.226562 204.09375 213.253906 204.394531 213.28125 204.699219 C 213.503906 207.257812 213.847656 209.816406 213.914062 212.386719 C 214.242188 226.785156 214.492188 241.199219 216.484375 255.507812 C 217.660156 263.933594 218.730469 272.398438 220.351562 280.746094 C 224.21875 300.605469 229.375 320.148438 235.8125 339.347656 C 236.078125 340.152344 236.421875 340.957031 236.882812 341.683594 C 237.503906 342.660156 238.453125 342.9375 239.246094 342.515625 C 240.050781 342.09375 240.285156 341.300781 239.890625 340.113281 C 239.269531 338.1875 238.625 336.277344 238.003906 334.351562 C 231.261719 313.699219 225.933594 292.695312 222.316406 271.265625 C 220.589844 261.046875 219.191406 250.785156 218.53125 240.449219 C 217.925781 230.902344 217.753906 221.339844 217.289062 211.78125 C 217.160156 208.972656 216.761719 206.175781 216.355469 203.394531 C 216.183594 202.191406 215.339844 201.625 214.46875 201.835938 C 213.453125 202.085938 213.160156 202.839844 213.242188 204.183594 Z M 357.589844 313.292969 C 358.25 312.765625 358.949219 312.476562 359.171875 311.972656 C 359.371094 311.539062 359.226562 310.707031 358.910156 310.3125 C 356.734375 307.582031 354.503906 304.917969 351.730469 302.714844 C 346.890625 298.851562 342.285156 294.710938 338.039062 290.175781 C 335.558594 287.539062 333.050781 284.925781 330.398438 282.476562 C 320.660156 273.480469 311.308594 264.105469 302.652344 254.070312 C 294.644531 244.773438 286.953125 235.226562 280.105469 225.03125 C 278.707031 222.949219 277.347656 220.839844 275.882812 218.78125 C 275.394531 218.097656 274.734375 217.476562 274.035156 217.027344 C 273.269531 216.539062 272.332031 216.488281 271.714844 217.292969 C 271.082031 218.109375 271.4375 218.847656 272.082031 219.574219 C 273.019531 220.617188 273.902344 221.710938 274.707031 222.855469 C 279.3125 229.425781 283.667969 236.203125 288.535156 242.570312 C 297.558594 254.375 307.519531 265.371094 318.140625 275.777344 C 322.785156 280.324219 327.628906 284.664062 332.179688 289.304688 C 337.429688 294.644531 342.640625 300 348.488281 304.695312 C 351.03125 306.738281 353.421875 308.914062 355.320312 311.605469 C 355.796875 312.277344 356.71875 312.660156 357.589844 313.277344 Z M 256.382812 247.304688 C 256.5 247.832031 256.542969 248.136719 256.648438 248.425781 C 257.226562 249.96875 257.730469 251.566406 258.414062 253.054688 C 262.859375 262.679688 267.320312 272.292969 271.820312 281.894531 C 276.371094 291.601562 281.964844 300.632812 288.945312 308.808594 C 295.117188 316.035156 301.226562 323.328125 307.363281 330.582031 C 308.074219 331.425781 308.800781 332.253906 309.550781 333.058594 C 310.210938 333.757812 311.03125 334.023438 311.863281 333.414062 C 312.691406 332.820312 312.691406 331.953125 312.285156 331.109375 C 312.046875 330.621094 311.714844 330.15625 311.359375 329.75 C 305.199219 322.429688 299.039062 315.113281 292.851562 307.820312 C 287.796875 301.871094 283.007812 295.742188 279.445312 288.765625 C 276.488281 282.988281 273.535156 277.199219 270.75 271.332031 C 266.992188 263.417969 263.402344 255.429688 259.734375 247.476562 C 259.574219 247.148438 259.457031 246.6875 259.179688 246.554688 C 258.625 246.289062 257.914062 245.972656 257.386719 246.117188 C 256.949219 246.238281 256.660156 246.960938 256.382812 247.320312 Z M 177.144531 258.726562 C 177.078125 258.050781 177.0625 257.617188 176.972656 257.207031 C 176.800781 256.351562 176.363281 255.707031 175.386719 255.730469 C 174.332031 255.757812 173.925781 256.445312 173.804688 257.40625 C 173.566406 259.226562 173.476562 261.085938 173.011719 262.839844 C 170.996094 270.433594 169.714844 278.164062 168.582031 285.917969 C 167.289062 294.660156 165.386719 303.242188 162.816406 311.710938 C 160.941406 317.855469 159.398438 324.105469 157.75 330.316406 C 156.585938 334.679688 156.296875 339.269531 154.4375 343.476562 C 154.082031 344.269531 154.238281 345.113281 155.082031 345.558594 C 155.875 345.980469 156.707031 345.824219 157.234375 345.113281 C 157.800781 344.335938 158.316406 343.476562 158.660156 342.582031 C 159.054688 341.566406 159.238281 340.457031 159.492188 339.390625 C 161.351562 331.714844 162.867188 323.933594 165.148438 316.390625 C 168.34375 305.867188 170.863281 295.253906 172.433594 284.359375 C 173.421875 277.464844 174.964844 270.632812 176.246094 263.777344 C 176.574219 262.035156 176.878906 260.28125 177.144531 258.765625 Z M 164.515625 102.710938 C 164.148438 106.089844 163.476562 109.304688 161.707031 112.207031 C 157.628906 118.917969 153.183594 125.367188 148.195312 131.445312 C 147.128906 132.738281 146.152344 134.109375 145.136719 135.453125 C 145.214844 135.558594 145.292969 135.652344 145.375 135.757812 C 153.566406 129.691406 163.34375 128.386719 172.816406 126.632812 C 172.394531 124.140625 171.839844 121.871094 171.640625 119.578125 C 171.085938 113.183594 168.078125 107.867188 164.515625 102.726562 Z M 93.273438 336.644531 C 94.960938 335.960938 96.53125 335.460938 97.980469 334.707031 C 103.484375 331.820312 107.773438 327.601562 111.214844 322.46875 C 116.703125 314.28125 120.714844 305.339844 124.433594 296.242188 C 127.628906 288.421875 130.898438 280.617188 134.066406 272.78125 C 134.910156 270.6875 135.519531 268.496094 136.164062 266.320312 C 136.386719 265.570312 136.507812 264.75 136.519531 263.960938 C 136.519531 263.183594 136.164062 262.511719 135.292969 262.351562 C 134.371094 262.179688 133.761719 262.617188 133.433594 263.472656 C 133.355469 263.695312 133.316406 263.945312 133.273438 264.183594 C 132.695312 267.402344 131.507812 270.421875 130.148438 273.375 C 128.460938 277.054688 126.769531 280.722656 125.214844 284.453125 C 122.46875 291.007812 119.898438 297.640625 117.113281 304.179688 C 114.621094 310.0625 111.492188 315.613281 107.917969 320.914062 C 104.882812 325.425781 101.015625 329.039062 96.203125 331.59375 C 94.910156 332.28125 93.640625 333.019531 92.03125 332.480469 C 91.625 332.347656 90.726562 332.769531 90.527344 333.179688 C 90.289062 333.679688 90.316406 334.65625 90.660156 334.984375 C 91.347656 335.671875 92.335938 336.066406 93.273438 336.632812 Z M 217.476562 129.652344 C 213.054688 123.414062 208.238281 117.824219 206.617188 110.398438 C 206.117188 113.40625 205.746094 116.359375 205.523438 119.328125 C 205.390625 121.082031 205.390625 122.875 205.546875 124.617188 C 205.71875 126.433594 206.839844 127.6875 208.636719 128.070312 C 211.433594 128.652344 214.257812 129.085938 217.460938 129.640625 Z M 217.476562 129.652344 " fill-opacity="1" fill-rule="nonzero"/><path fill="#ffffff" d="M 43.929688 311.839844 C 43.175781 311.734375 42.808594 311.710938 42.449219 311.617188 C 41.183594 311.300781 40.550781 310.601562 40.683594 309.640625 C 40.839844 308.480469 41.726562 308.148438 42.6875 308.164062 C 44.363281 308.1875 45.800781 307.554688 47.214844 306.816406 C 51.316406 304.667969 55.023438 301.964844 58.125 298.496094 C 65.765625 289.9375 72.652344 280.773438 79.578125 271.621094 C 90.988281 256.535156 100.898438 240.476562 110.570312 224.269531 C 116.441406 214.429688 122.074219 204.449219 127.839844 194.558594 C 128.328125 193.726562 128.90625 192.910156 129.582031 192.222656 C 130.1875 191.617188 131.046875 191.539062 131.746094 192.171875 C 132.457031 192.804688 132.339844 193.554688 131.902344 194.335938 C 129.078125 199.34375 126.320312 204.410156 123.457031 209.394531 C 114.144531 225.601562 104.699219 241.726562 94.222656 257.207031 C 84.566406 271.476562 74.261719 285.285156 63.058594 298.40625 C 58.746094 303.46875 53.835938 307.726562 47.769531 310.535156 C 46.449219 311.144531 45.011719 311.484375 43.941406 311.855469 Z M 43.929688 311.839844 " fill-opacity="1" fill-rule="nonzero"/><path fill="#ffffff" d="M 213.226562 204.171875 C 213.148438 202.828125 213.4375 202.074219 214.453125 201.824219 C 215.324219 201.613281 216.15625 202.179688 216.339844 203.378906 C 216.75 206.164062 217.144531 208.972656 217.277344 211.765625 C 217.738281 221.3125 217.910156 230.886719 218.519531 240.433594 C 219.175781 250.773438 220.574219 261.046875 222.304688 271.253906 C 225.917969 292.679688 231.25 313.6875 237.992188 334.339844 C 238.625 336.265625 239.257812 338.175781 239.878906 340.101562 C 240.261719 341.289062 240.035156 342.078125 239.230469 342.5 C 238.441406 342.910156 237.488281 342.644531 236.871094 341.671875 C 236.421875 340.957031 236.078125 340.152344 235.800781 339.335938 C 229.363281 320.136719 224.203125 300.59375 220.339844 280.734375 C 218.714844 272.386719 217.648438 263.921875 216.472656 255.496094 C 214.480469 241.199219 214.230469 226.785156 213.898438 212.375 C 213.847656 209.816406 213.492188 207.257812 213.265625 204.6875 C 213.242188 204.382812 213.199219 204.078125 213.214844 204.160156 Z M 213.226562 204.171875 " fill-opacity="1" fill-rule="nonzero"/><path fill="#ffffff" d="M 357.589844 313.292969 C 356.707031 312.660156 355.796875 312.289062 355.320312 311.617188 C 353.421875 308.925781 351.03125 306.75 348.488281 304.707031 C 342.640625 300.011719 337.417969 294.660156 332.179688 289.320312 C 327.628906 284.675781 322.785156 280.339844 318.140625 275.789062 C 307.535156 265.382812 297.574219 254.375 288.535156 242.585938 C 283.667969 236.214844 279.3125 229.449219 274.707031 222.871094 C 273.902344 221.722656 273.019531 220.628906 272.082031 219.585938 C 271.4375 218.863281 271.082031 218.125 271.714844 217.304688 C 272.347656 216.488281 273.285156 216.554688 274.035156 217.042969 C 274.734375 217.488281 275.394531 218.109375 275.882812 218.796875 C 277.335938 220.839844 278.707031 222.949219 280.105469 225.046875 C 286.953125 235.238281 294.632812 244.785156 302.652344 254.082031 C 311.308594 264.132812 320.660156 273.496094 330.398438 282.488281 C 333.050781 284.941406 335.570312 287.550781 338.039062 290.1875 C 342.285156 294.710938 346.890625 298.867188 351.730469 302.730469 C 354.503906 304.933594 356.71875 307.609375 358.910156 310.324219 C 359.226562 310.722656 359.371094 311.539062 359.171875 311.988281 C 358.949219 312.488281 358.25 312.792969 357.589844 313.304688 Z M 357.589844 313.292969 " fill-opacity="1" fill-rule="nonzero"/><path fill="#ffffff" d="M 256.382812 247.304688 C 256.660156 246.949219 256.9375 246.210938 257.386719 246.105469 C 257.914062 245.960938 258.625 246.277344 259.179688 246.539062 C 259.445312 246.671875 259.574219 247.132812 259.734375 247.464844 C 263.402344 255.414062 266.992188 263.40625 270.75 271.320312 C 273.535156 277.1875 276.488281 282.960938 279.445312 288.75 C 283.019531 295.726562 287.808594 301.859375 292.851562 307.804688 C 299.039062 315.097656 305.199219 322.417969 311.359375 329.734375 C 311.714844 330.160156 312.046875 330.605469 312.285156 331.09375 C 312.679688 331.9375 312.691406 332.808594 311.863281 333.402344 C 311.03125 333.996094 310.210938 333.730469 309.550781 333.046875 C 308.800781 332.242188 308.074219 331.410156 307.363281 330.566406 C 301.226562 323.3125 295.132812 316.007812 288.945312 308.796875 C 281.953125 300.632812 276.371094 291.585938 271.820312 281.882812 C 267.320312 272.28125 262.859375 262.667969 258.414062 253.042969 C 257.730469 251.539062 257.214844 249.957031 256.648438 248.414062 C 256.542969 248.125 256.5 247.820312 256.382812 247.292969 Z M 256.382812 247.304688 " fill-opacity="1" fill-rule="nonzero"/><path fill="#ffffff" d="M 177.144531 258.726562 C 176.867188 260.253906 176.5625 261.996094 176.246094 263.734375 C 174.964844 270.59375 173.421875 277.425781 172.433594 284.320312 C 170.875 295.214844 168.355469 305.828125 165.148438 316.351562 C 162.855469 323.894531 161.351562 331.675781 159.492188 339.347656 C 159.226562 340.417969 159.042969 341.523438 158.660156 342.539062 C 158.316406 343.4375 157.800781 344.292969 157.234375 345.074219 C 156.707031 345.785156 155.875 345.941406 155.082031 345.519531 C 154.253906 345.074219 154.09375 344.242188 154.4375 343.4375 C 156.296875 339.230469 156.585938 334.65625 157.75 330.277344 C 159.398438 324.066406 160.953125 317.816406 162.816406 311.671875 C 165.386719 303.203125 167.289062 294.621094 168.582031 285.878906 C 169.726562 278.125 170.996094 270.394531 173.011719 262.800781 C 173.476562 261.046875 173.582031 259.1875 173.804688 257.367188 C 173.9375 256.40625 174.332031 255.71875 175.386719 255.691406 C 176.363281 255.664062 176.800781 256.300781 176.972656 257.167969 C 177.050781 257.589844 177.0625 258.011719 177.144531 258.6875 Z M 177.144531 258.726562 " fill-opacity="1" fill-rule="nonzero"/><path fill="#ffffff" d="M 93.273438 336.660156 C 92.324219 336.09375 91.347656 335.695312 90.660156 335.011719 C 90.316406 334.667969 90.289062 333.691406 90.527344 333.203125 C 90.710938 332.808594 91.625 332.375 92.03125 332.503906 C 93.65625 333.046875 94.921875 332.308594 96.203125 331.621094 C 101.015625 329.078125 104.882812 325.449219 107.917969 320.941406 C 111.492188 315.640625 114.621094 310.089844 117.113281 304.207031 C 119.898438 297.664062 122.46875 291.03125 125.214844 284.480469 C 126.769531 280.746094 128.460938 277.066406 130.148438 273.402344 C 131.507812 270.433594 132.695312 267.429688 133.273438 264.210938 C 133.316406 263.972656 133.355469 263.722656 133.433594 263.5 C 133.75 262.640625 134.355469 262.207031 135.292969 262.378906 C 136.164062 262.535156 136.535156 263.207031 136.519531 263.988281 C 136.519531 264.777344 136.386719 265.582031 136.164062 266.347656 C 135.519531 268.511719 134.910156 270.710938 134.066406 272.808594 C 130.898438 280.640625 127.628906 288.449219 124.433594 296.269531 C 120.714844 305.355469 116.71875 314.292969 111.214844 322.496094 C 107.773438 327.625 103.472656 331.847656 97.980469 334.734375 C 96.542969 335.5 94.960938 335.988281 93.273438 336.671875 Z M 93.273438 336.660156 " fill-opacity="1" fill-rule="nonzero"/><path fill="#000000" d="M 166.417969 17.355469 C 165.203125 14.136719 165.335938 10.957031 166.457031 7.792969 C 168.183594 2.902344 173.976562 -0.0546875 178.84375 1.449219 C 180.902344 2.082031 182.433594 3.402344 183.398438 5.234375 C 184.558594 7.4375 186.324219 8.082031 188.675781 8.164062 C 191.367188 8.253906 194.070312 8.492188 196.722656 8.941406 C 200.058594 9.507812 202.910156 10.972656 204.296875 14.359375 C 204.613281 15.125 205.085938 15.558594 205.90625 15.664062 C 209.109375 16.074219 211.644531 20.863281 210.390625 24.105469 C 209.703125 25.859375 208.832031 27.574219 207.84375 29.183594 C 205.574219 32.835938 204.308594 36.671875 204.757812 41.050781 C 204.847656 41.933594 204.441406 42.960938 204.019531 43.792969 C 203.253906 45.257812 202.25 46.589844 201.433594 48.027344 C 199.996094 50.558594 197.578125 51.335938 194.953125 51.625 C 193.570312 51.785156 192.15625 51.652344 190.46875 51.652344 C 191.140625 55.449219 191.023438 59.078125 192.394531 62.492188 C 193.265625 64.667969 194.914062 65.921875 197.027344 66.644531 C 200.390625 67.804688 203.808594 68.808594 207.117188 70.089844 C 209.109375 70.851562 211.011719 71.882812 212.84375 72.976562 C 214.890625 74.203125 215.945312 76.140625 215.851562 78.527344 C 215.734375 81.585938 216.445312 84.460938 217.265625 87.375 C 217.792969 89.300781 218.054688 91.34375 218.082031 93.347656 C 218.121094 96.277344 218.6875 99.03125 219.757812 101.75 C 221.828125 106.957031 224.785156 111.691406 227.359375 116.636719 C 229.21875 120.222656 230.839844 123.929688 232.449219 127.636719 C 234.628906 132.632812 236.699219 137.683594 238.847656 142.695312 C 239.046875 143.15625 239.441406 143.605469 239.878906 143.867188 C 241.726562 144.960938 243.652344 145.898438 245.472656 147.03125 C 248.230469 148.734375 249.996094 151.265625 251.316406 154.195312 C 251.648438 154.933594 252.1875 155.710938 252.847656 156.132812 C 265.394531 164.003906 275.421875 174.527344 284.667969 185.921875 C 294.3125 197.789062 302.625 210.621094 311.558594 223.003906 C 319.316406 233.75 327.613281 244.0625 337.035156 253.449219 C 340.808594 257.222656 344.316406 261.257812 347.945312 265.160156 C 354.09375 271.753906 360.242188 278.347656 366.375 284.953125 C 368.671875 287.433594 370.730469 290.082031 372.167969 293.195312 C 374.703125 298.667969 374.714844 307.609375 366.878906 312.9375 C 365.320312 313.992188 363.605469 314.863281 361.878906 315.652344 C 357.484375 317.65625 357.972656 316.917969 358.132812 321.519531 C 358.222656 324.199219 357.828125 326.769531 356.8125 329.25 C 355.359375 332.808594 352.933594 335.460938 349.476562 337.148438 C 345.902344 338.902344 342.113281 339.824219 338.117188 339.835938 C 336.402344 339.835938 334.671875 339.917969 332.957031 339.8125 C 331.414062 339.71875 330.398438 340.3125 329.632812 341.605469 C 328.261719 343.910156 326.425781 345.785156 324.050781 347.089844 C 320.992188 348.777344 317.71875 349.304688 314.261719 348.898438 C 312.308594 348.671875 310.359375 348.527344 308.417969 348.222656 C 307.335938 348.050781 306.558594 348.394531 305.753906 349.066406 C 297.652344 355.964844 288.085938 358.667969 277.652344 358.5625 C 275.183594 358.535156 272.714844 357.769531 270.261719 357.257812 C 268.402344 356.863281 266.582031 356.347656 264.746094 355.847656 C 262.925781 355.359375 261.566406 356.003906 260.328125 357.335938 C 258.652344 359.128906 256.988281 360.949219 255.101562 362.503906 C 249.363281 367.277344 242.726562 369.125 235.351562 367.898438 C 232.464844 367.410156 229.613281 366.632812 226.804688 365.777344 C 225.046875 365.25 223.53125 365.222656 221.855469 366.054688 C 216.527344 368.703125 210.867188 369.835938 204.914062 369.296875 C 199.847656 368.835938 195.007812 367.6875 190.613281 364.972656 C 189.269531 364.140625 187.816406 363.441406 186.378906 362.78125 C 184.742188 362.03125 183.171875 362.242188 181.683594 363.269531 C 180.058594 364.378906 178.421875 365.460938 176.773438 366.527344 C 173.605469 368.570312 170.203125 370.140625 166.457031 370.746094 C 159.332031 371.921875 152.8125 370.257812 146.917969 366.171875 C 145.015625 364.851562 143.25 363.335938 141.347656 361.847656 C 137.828125 364.179688 133.894531 365.089844 129.804688 365.128906 C 123.222656 365.207031 116.886719 363.941406 110.953125 360.949219 C 107.679688 359.300781 105 357.074219 103.390625 353.710938 C 103.207031 353.339844 102.929688 353.011719 102.679688 352.640625 C 90.226562 356.386719 79.484375 353.867188 70.894531 343.964844 C 66.609375 346.007812 62.359375 346.40625 57.941406 345.757812 C 53.613281 345.136719 50.144531 343.160156 47.898438 339.390625 C 46.726562 337.398438 45.855469 335.222656 44.996094 333.074219 C 44.667969 332.230469 44.296875 331.753906 43.402344 331.582031 C 41.355469 331.171875 39.3125 330.765625 37.304688 330.199219 C 35.722656 329.75 34.164062 329.15625 32.675781 328.445312 C 28.570312 326.480469 25.8125 323.378906 24.824219 318.832031 C 24.71875 318.355469 24.546875 317.90625 24.363281 317.300781 C 23.542969 317.460938 22.765625 317.566406 22.015625 317.761719 C 18.875 318.605469 15.695312 318.832031 12.542969 318.066406 C 9.691406 317.378906 6.816406 316.667969 4.109375 315.546875 C 0.601562 314.082031 0.191406 310.234375 2.9375 307.648438 C 10.484375 300.539062 18.015625 293.417969 25.523438 286.273438 C 30.417969 281.617188 33.886719 275.882812 37.570312 270.304688 C 41.304688 264.644531 43.875 258.394531 47.160156 252.515625 C 54.8125 238.828125 62.558594 225.179688 70.394531 211.582031 C 75.210938 203.222656 81.09375 195.585938 87.347656 188.253906 C 91.769531 183.074219 96.042969 177.757812 101.042969 173.117188 C 102.574219 171.691406 104.066406 170.242188 105.609375 168.832031 C 107.839844 166.800781 109.460938 164.414062 110.265625 161.472656 C 110.964844 158.914062 112.058594 156.527344 113.578125 154.339844 C 115.476562 151.582031 117.96875 149.761719 121.347656 149.261719 C 121.769531 149.195312 122.191406 149.101562 122.613281 149.023438 C 122.667969 149.023438 122.707031 148.945312 122.890625 148.800781 C 123.484375 143.800781 126.28125 139.765625 129.265625 135.730469 C 133.738281 129.664062 138 123.429688 140.847656 116.375 C 141.46875 114.84375 141.941406 113.261719 142.496094 111.691406 C 141.601562 111.535156 140.730469 111.558594 140.054688 111.21875 C 139.316406 110.835938 138.761719 110.109375 138.128906 109.53125 C 137.867188 109.277344 137.601562 109.015625 137.339844 108.75 C 132.351562 103.832031 131.269531 97.621094 134.289062 91.304688 C 134.476562 90.921875 134.648438 90.527344 134.910156 89.972656 C 134.144531 89.472656 133.355469 89.050781 132.65625 88.484375 C 131.480469 87.519531 130.1875 86.625 129.25 85.449219 C 127.8125 83.65625 128.367188 82.195312 130.503906 81.296875 C 131.796875 80.757812 133.117188 80.214844 134.304688 79.476562 C 136.414062 78.160156 137.246094 76.167969 137.035156 73.660156 C 136.8125 70.984375 136.519531 68.292969 136.613281 65.617188 C 136.691406 63.269531 137.46875 60.976562 139.265625 59.3125 C 140.308594 58.339844 141.652344 57.691406 142.8125 56.941406 C 143.261719 54.949219 143.460938 52.761719 144.292969 50.863281 C 145.136719 48.9375 146.613281 47.289062 147.90625 45.363281 C 147.589844 44.902344 147.207031 44.375 146.851562 43.820312 C 145.609375 41.882812 146.296875 40.457031 148.566406 40.273438 C 149.238281 40.21875 149.910156 40.246094 150.585938 40.207031 C 152.433594 40.128906 153.710938 39.21875 154.34375 37.476562 C 155.03125 35.578125 155.652344 33.652344 156.390625 31.765625 C 157.128906 29.882812 157.894531 28.007812 158.777344 26.203125 C 160.375 22.972656 162.417969 20.097656 165.519531 18.105469 C 165.824219 17.90625 166.074219 17.65625 166.390625 17.394531 Z M 43.929688 311.839844 C 44.996094 311.484375 46.433594 311.128906 47.753906 310.523438 C 53.824219 307.726562 58.730469 303.453125 63.046875 298.390625 C 74.246094 285.269531 84.550781 271.464844 94.210938 257.195312 C 104.683594 241.714844 114.144531 225.585938 123.445312 209.378906 C 126.308594 204.394531 129.066406 199.332031 131.890625 194.320312 C 132.324219 193.542969 132.445312 192.792969 131.730469 192.160156 C 131.03125 191.523438 130.175781 191.605469 129.566406 192.210938 C 128.882812 192.898438 128.3125 193.714844 127.824219 194.546875 C 122.058594 204.449219 116.425781 214.417969 110.554688 224.253906 C 100.886719 240.476562 90.988281 256.535156 79.5625 271.609375 C 72.636719 280.746094 65.765625 289.910156 58.113281 298.484375 C 55.011719 301.964844 51.316406 304.65625 47.199219 306.804688 C 45.789062 307.542969 44.351562 308.1875 42.675781 308.148438 C 41.710938 308.136719 40.828125 308.464844 40.671875 309.625 C 40.539062 310.589844 41.171875 311.289062 42.4375 311.605469 C 42.792969 311.695312 43.164062 311.710938 43.914062 311.828125 Z M 213.226562 204.171875 C 213.226562 204.09375 213.253906 204.394531 213.28125 204.699219 C 213.503906 207.257812 213.847656 209.816406 213.914062 212.386719 C 214.242188 226.785156 214.492188 241.199219 216.484375 255.507812 C 217.660156 263.933594 218.730469 272.398438 220.351562 280.746094 C 224.21875 300.605469 229.375 320.148438 235.8125 339.347656 C 236.078125 340.152344 236.421875 340.957031 236.882812 341.683594 C 237.503906 342.660156 238.453125 342.9375 239.246094 342.515625 C 240.050781 342.09375 240.285156 341.300781 239.890625 340.113281 C 239.269531 338.1875 238.625 336.277344 238.003906 334.351562 C 231.261719 313.699219 225.933594 292.695312 222.316406 271.265625 C 220.589844 261.046875 219.191406 250.785156 218.53125 240.449219 C 217.925781 230.902344 217.753906 221.339844 217.289062 211.78125 C 217.160156 208.972656 216.761719 206.175781 216.355469 203.394531 C 216.183594 202.191406 215.339844 201.625 214.46875 201.835938 C 213.453125 202.085938 213.160156 202.839844 213.242188 204.183594 Z M 357.589844 313.292969 C 358.25 312.765625 358.949219 312.476562 359.171875 311.972656 C 359.371094 311.539062 359.226562 310.707031 358.910156 310.3125 C 356.734375 307.582031 354.503906 304.917969 351.730469 302.714844 C 346.890625 298.851562 342.285156 294.710938 338.039062 290.175781 C 335.558594 287.539062 333.050781 284.925781 330.398438 282.476562 C 320.660156 273.480469 311.308594 264.105469 302.652344 254.070312 C 294.644531 244.773438 286.953125 235.226562 280.105469 225.03125 C 278.707031 222.949219 277.347656 220.839844 275.882812 218.78125 C 275.394531 218.097656 274.734375 217.476562 274.035156 217.027344 C 273.269531 216.539062 272.332031 216.488281 271.714844 217.292969 C 271.082031 218.109375 271.4375 218.847656 272.082031 219.574219 C 273.019531 220.617188 273.902344 221.710938 274.707031 222.855469 C 279.3125 229.425781 283.667969 236.203125 288.535156 242.570312 C 297.558594 254.375 307.519531 265.371094 318.140625 275.777344 C 322.785156 280.324219 327.628906 284.664062 332.179688 289.304688 C 337.429688 294.644531 342.640625 300 348.488281 304.695312 C 351.03125 306.738281 353.421875 308.914062 355.320312 311.605469 C 355.796875 312.277344 356.71875 312.660156 357.589844 313.277344 Z M 256.382812 247.304688 C 256.5 247.832031 256.542969 248.136719 256.648438 248.425781 C 257.226562 249.96875 257.730469 251.566406 258.414062 253.054688 C 262.859375 262.679688 267.320312 272.292969 271.820312 281.894531 C 276.371094 291.601562 281.964844 300.632812 288.945312 308.808594 C 295.117188 316.035156 301.226562 323.328125 307.363281 330.582031 C 308.074219 331.425781 308.800781 332.253906 309.550781 333.058594 C 310.210938 333.757812 311.03125 334.023438 311.863281 333.414062 C 312.691406 332.820312 312.691406 331.953125 312.285156 331.109375 C 312.046875 330.621094 311.714844 330.15625 311.359375 329.75 C 305.199219 322.429688 299.039062 315.113281 292.851562 307.820312 C 287.796875 301.871094 283.007812 295.742188 279.445312 288.765625 C 276.488281 282.988281 273.535156 277.199219 270.75 271.332031 C 266.992188 263.417969 263.402344 255.429688 259.734375 247.476562 C 259.574219 247.148438 259.457031 246.6875 259.179688 246.554688 C 258.625 246.289062 257.914062 245.972656 257.386719 246.117188 C 256.949219 246.238281 256.660156 246.960938 256.382812 247.320312 Z M 177.144531 258.726562 C 177.078125 258.050781 177.0625 257.617188 176.972656 257.207031 C 176.800781 256.351562 176.363281 255.707031 175.386719 255.730469 C 174.332031 255.757812 173.925781 256.445312 173.804688 257.40625 C 173.566406 259.226562 173.476562 261.085938 173.011719 262.839844 C 170.996094 270.433594 169.714844 278.164062 168.582031 285.917969 C 167.289062 294.660156 165.386719 303.242188 162.816406 311.710938 C 160.941406 317.855469 159.398438 324.105469 157.75 330.316406 C 156.585938 334.679688 156.296875 339.269531 154.4375 343.476562 C 154.082031 344.269531 154.238281 345.113281 155.082031 345.558594 C 155.875 345.980469 156.707031 345.824219 157.234375 345.113281 C 157.800781 344.335938 158.316406 343.476562 158.660156 342.582031 C 159.054688 341.566406 159.238281 340.457031 159.492188 339.390625 C 161.351562 331.714844 162.867188 323.933594 165.148438 316.390625 C 168.34375 305.867188 170.863281 295.253906 172.433594 284.359375 C 173.421875 277.464844 174.964844 270.632812 176.246094 263.777344 C 176.574219 262.035156 176.878906 260.28125 177.144531 258.765625 Z M 164.515625 102.710938 C 164.148438 106.089844 163.476562 109.304688 161.707031 112.207031 C 157.628906 118.917969 153.183594 125.367188 148.195312 131.445312 C 147.128906 132.738281 146.152344 134.109375 145.136719 135.453125 C 145.214844 135.558594 145.292969 135.652344 145.375 135.757812 C 153.566406 129.691406 163.34375 128.386719 172.816406 126.632812 C 172.394531 124.140625 171.839844 121.871094 171.640625 119.578125 C 171.085938 113.183594 168.078125 107.867188 164.515625 102.726562 Z M 93.273438 336.644531 C 94.960938 335.960938 96.53125 335.460938 97.980469 334.707031 C 103.484375 331.820312 107.773438 327.601562 111.214844 322.46875 C 116.703125 314.28125 120.714844 305.339844 124.433594 296.242188 C 127.628906 288.421875 130.898438 280.617188 134.066406 272.78125 C 134.910156 270.6875 135.519531 268.496094 136.164062 266.320312 C 136.386719 265.570312 136.507812 264.75 136.519531 263.960938 C 136.519531 263.183594 136.164062 262.511719 135.292969 262.351562 C 134.371094 262.179688 133.761719 262.617188 133.433594 263.472656 C 133.355469 263.695312 133.316406 263.945312 133.273438 264.183594 C 132.695312 267.402344 131.507812 270.421875 130.148438 273.375 C 128.460938 277.054688 126.769531 280.722656 125.214844 284.453125 C 122.46875 291.007812 119.898438 297.640625 117.113281 304.179688 C 114.621094 310.0625 111.492188 315.613281 107.917969 320.914062 C 104.882812 325.425781 101.015625 329.039062 96.203125 331.59375 C 94.910156 332.28125 93.640625 333.019531 92.03125 332.480469 C 91.625 332.347656 90.726562 332.769531 90.527344 333.179688 C 90.289062 333.679688 90.316406 334.65625 90.660156 334.984375 C 91.347656 335.671875 92.335938 336.066406 93.273438 336.632812 Z M 217.476562 129.652344 C 213.054688 123.414062 208.238281 117.824219 206.617188 110.398438 C 206.117188 113.40625 205.746094 116.359375 205.523438 119.328125 C 205.390625 121.082031 205.390625 122.875 205.546875 124.617188 C 205.71875 126.433594 206.839844 127.6875 208.636719 128.070312 C 211.433594 128.652344 214.257812 129.085938 217.460938 129.640625 Z M 217.476562 129.652344 " fill-opacity="1" fill-rule="nonzero"/><path fill="#ffffff" d="M 43.929688 311.839844 C 43.175781 311.734375 42.808594 311.710938 42.449219 311.617188 C 41.183594 311.300781 40.550781 310.601562 40.683594 309.640625 C 40.839844 308.480469 41.726562 308.148438 42.6875 308.164062 C 44.363281 308.1875 45.800781 307.554688 47.214844 306.816406 C 51.316406 304.667969 55.023438 301.964844 58.125 298.496094 C 65.765625 289.9375 72.652344 280.773438 79.578125 271.621094 C 90.988281 256.535156 100.898438 240.476562 110.570312 224.269531 C 116.441406 214.429688 122.074219 204.449219 127.839844 194.558594 C 128.328125 193.726562 128.90625 192.910156 129.582031 192.222656 C 130.1875 191.617188 131.046875 191.539062 131.746094 192.171875 C 132.457031 192.804688 132.339844 193.554688 131.902344 194.335938 C 129.078125 199.34375 126.320312 204.410156 123.457031 209.394531 C 114.144531 225.601562 104.699219 241.726562 94.222656 257.207031 C 84.566406 271.476562 74.261719 285.285156 63.058594 298.40625 C 58.746094 303.46875 53.835938 307.726562 47.769531 310.535156 C 46.449219 311.144531 45.011719 311.484375 43.941406 311.855469 Z M 43.929688 311.839844 " fill-opacity="1" fill-rule="nonzero"/><path fill="#ffffff" d="M 213.226562 204.171875 C 213.148438 202.828125 213.4375 202.074219 214.453125 201.824219 C 215.324219 201.613281 216.15625 202.179688 216.339844 203.378906 C 216.75 206.164062 217.144531 208.972656 217.277344 211.765625 C 217.738281 221.3125 217.910156 230.886719 218.519531 240.433594 C 219.175781 250.773438 220.574219 261.046875 222.304688 271.253906 C 225.917969 292.679688 231.25 313.6875 237.992188 334.339844 C 238.625 336.265625 239.257812 338.175781 239.878906 340.101562 C 240.261719 341.289062 240.035156 342.078125 239.230469 342.5 C 238.441406 342.910156 237.488281 342.644531 236.871094 341.671875 C 236.421875 340.957031 236.078125 340.152344 235.800781 339.335938 C 229.363281 320.136719 224.203125 300.59375 220.339844 280.734375 C 218.714844 272.386719 217.648438 263.921875 216.472656 255.496094 C 214.480469 241.199219 214.230469 226.785156 213.898438 212.375 C 213.847656 209.816406 213.492188 207.257812 213.265625 204.6875 C 213.242188 204.382812 213.199219 204.078125 213.214844 204.160156 Z M 213.226562 204.171875 " fill-opacity="1" fill-rule="nonzero"/><path fill="#ffffff" d="M 357.589844 313.292969 C 356.707031 312.660156 355.796875 312.289062 355.320312 311.617188 C 353.421875 308.925781 351.03125 306.75 348.488281 304.707031 C 342.640625 300.011719 337.417969 294.660156 332.179688 289.320312 C 327.628906 284.675781 322.785156 280.339844 318.140625 275.789062 C 307.535156 265.382812 297.574219 254.375 288.535156 242.585938 C 283.667969 236.214844 279.3125 229.449219 274.707031 222.871094 C 273.902344 221.722656 273.019531 220.628906 272.082031 219.585938 C 271.4375 218.863281 271.082031 218.125 271.714844 217.304688 C 272.347656 216.488281 273.285156 216.554688 274.035156 217.042969 C 274.734375 217.488281 275.394531 218.109375 275.882812 218.796875 C 277.335938 220.839844 278.707031 222.949219 280.105469 225.046875 C 286.953125 235.238281 294.632812 244.785156 302.652344 254.082031 C 311.308594 264.132812 320.660156 273.496094 330.398438 282.488281 C 333.050781 284.941406 335.570312 287.550781 338.039062 290.1875 C 342.285156 294.710938 346.890625 298.867188 351.730469 302.730469 C 354.503906 304.933594 356.71875 307.609375 358.910156 310.324219 C 359.226562 310.722656 359.371094 311.539062 359.171875 311.988281 C 358.949219 312.488281 358.25 312.792969 357.589844 313.304688 Z M 357.589844 313.292969 " fill-opacity="1" fill-rule="nonzero"/><path fill="#ffffff" d="M 256.382812 247.304688 C 256.660156 246.949219 256.9375 246.210938 257.386719 246.105469 C 257.914062 245.960938 258.625 246.277344 259.179688 246.539062 C 259.445312 246.671875 259.574219 247.132812 259.734375 247.464844 C 263.402344 255.414062 266.992188 263.40625 270.75 271.320312 C 273.535156 277.1875 276.488281 282.960938 279.445312 288.75 C 283.019531 295.726562 287.808594 301.859375 292.851562 307.804688 C 299.039062 315.097656 305.199219 322.417969 311.359375 329.734375 C 311.714844 330.160156 312.046875 330.605469 312.285156 331.09375 C 312.679688 331.9375 312.691406 332.808594 311.863281 333.402344 C 311.03125 333.996094 310.210938 333.730469 309.550781 333.046875 C 308.800781 332.242188 308.074219 331.410156 307.363281 330.566406 C 301.226562 323.3125 295.132812 316.007812 288.945312 308.796875 C 281.953125 300.632812 276.371094 291.585938 271.820312 281.882812 C 267.320312 272.28125 262.859375 262.667969 258.414062 253.042969 C 257.730469 251.539062 257.214844 249.957031 256.648438 248.414062 C 256.542969 248.125 256.5 247.820312 256.382812 247.292969 Z M 256.382812 247.304688 " fill-opacity="1" fill-rule="nonzero"/><path fill="#ffffff" d="M 177.144531 258.726562 C 176.867188 260.253906 176.5625 261.996094 176.246094 263.734375 C 174.964844 270.59375 173.421875 277.425781 172.433594 284.320312 C 170.875 295.214844 168.355469 305.828125 165.148438 316.351562 C 162.855469 323.894531 161.351562 331.675781 159.492188 339.347656 C 159.226562 340.417969 159.042969 341.523438 158.660156 342.539062 C 158.316406 343.4375 157.800781 344.292969 157.234375 345.074219 C 156.707031 345.785156 155.875 345.941406 155.082031 345.519531 C 154.253906 345.074219 154.09375 344.242188 154.4375 343.4375 C 156.296875 339.230469 156.585938 334.65625 157.75 330.277344 C 159.398438 324.066406 160.953125 317.816406 162.816406 311.671875 C 165.386719 303.203125 167.289062 294.621094 168.582031 285.878906 C 169.726562 278.125 170.996094 270.394531 173.011719 262.800781 C 173.476562 261.046875 173.582031 259.1875 173.804688 257.367188 C 173.9375 256.40625 174.332031 255.71875 175.386719 255.691406 C 176.363281 255.664062 176.800781 256.300781 176.972656 257.167969 C 177.050781 257.589844 177.0625 258.011719 177.144531 258.6875 Z M 177.144531 258.726562 " fill-opacity="1" fill-rule="nonzero"/><path fill="#ffffff" d="M 93.273438 336.660156 C 92.324219 336.09375 91.347656 335.695312 90.660156 335.011719 C 90.316406 334.667969 90.289062 333.691406 90.527344 333.203125 C 90.710938 332.808594 91.625 332.375 92.03125 332.503906 C 93.65625 333.046875 94.921875 332.308594 96.203125 331.621094 C 101.015625 329.078125 104.882812 325.449219 107.917969 320.941406 C 111.492188 315.640625 114.621094 310.089844 117.113281 304.207031 C 119.898438 297.664062 122.46875 291.03125 125.214844 284.480469 C 126.769531 280.746094 128.460938 277.066406 130.148438 273.402344 C 131.507812 270.433594 132.695312 267.429688 133.273438 264.210938 C 133.316406 263.972656 133.355469 263.722656 133.433594 263.5 C 133.75 262.640625 134.355469 262.207031 135.292969 262.378906 C 136.164062 262.535156 136.535156 263.207031 136.519531 263.988281 C 136.519531 264.777344 136.386719 265.582031 136.164062 266.347656 C 135.519531 268.511719 134.910156 270.710938 134.066406 272.808594 C 130.898438 280.640625 127.628906 288.449219 124.433594 296.269531 C 120.714844 305.355469 116.71875 314.292969 111.214844 322.496094 C 107.773438 327.625 103.472656 331.847656 97.980469 334.734375 C 96.542969 335.5 94.960938 335.988281 93.273438 336.671875 Z M 93.273438 336.660156 " fill-opacity="1" fill-rule="nonzero"/></svg>